<svg width="143" height="42" viewBox="0 0 143 42" fill="none" xmlns="http://www.w3.org/2000/svg">
<g clip-path="url(#clip0_76_11921)">
<mask id="mask0_76_11921" style="mask-type:luminance" maskUnits="userSpaceOnUse" x="-25" y="-75" width="194" height="193">
<path d="M168.063 -74.9742H-24.0628V117.151H168.063V-74.9742Z" fill="white"/>
</mask>
<g mask="url(#mask0_76_11921)">
<path d="M15.4882 22.5129H-0.000915527V38.0021H15.4882V22.5129Z" fill="#B9B9B9"/>
<path d="M7.64573 16.999C11.7288 16.999 15.0387 13.689 15.0387 9.606C15.0387 5.52296 11.7288 2.21301 7.64573 2.21301C3.5627 2.21301 0.252747 5.52296 0.252747 9.606C0.252747 13.689 3.5627 16.999 7.64573 16.999Z" fill="#B9B9B9"/>
<path d="M27.6191 2.18225H22.155V38.3095H27.6191V2.18225Z" fill="#E3E3E3"/>
<path d="M15.4882 22.5129L-0.000915527 38.0021H15.4882V22.5129Z" fill="#E3E3E3"/>
<path d="M38.2675 19.9301H35.9447V8.01636C35.9447 6.30132 36.4942 4.90265 37.5932 3.82034C38.7088 2.73803 40.0825 2.19688 41.7142 2.19688C43.5125 2.19688 44.8613 2.65478 45.7604 3.57058C46.6762 4.46972 47.1341 5.57701 47.1341 6.89243C47.1341 8.57416 46.3515 9.78135 44.7863 10.514V10.6139C46.9343 11.23 48.0083 12.7202 48.0083 15.0847C48.0083 18.3149 46.1017 19.9301 42.2887 19.9301H39.1667V17.7321H42.2637C43.4126 17.7321 44.2535 17.499 44.7863 17.0328C45.3192 16.5666 45.5856 15.8173 45.5856 14.7849C45.5856 13.8858 45.2942 13.1948 44.7114 12.7119C44.1453 12.229 43.371 11.9876 42.3886 11.9876H39.9159V9.91456H41.5144C42.4136 9.91456 43.1795 9.67312 43.8123 9.19024C44.4616 8.69072 44.7863 8.02468 44.7863 7.19214C44.7863 6.3929 44.5366 5.72686 44.037 5.19404C43.5542 4.66121 42.7632 4.39479 41.6643 4.39479C40.6652 4.39479 39.8493 4.71116 39.2166 5.34389C38.5839 5.95998 38.2675 6.86745 38.2675 8.06631V19.9301ZM57.2938 12.8867V15.1346C56.6611 14.6517 55.8868 14.4103 54.971 14.4103C54.1884 14.4103 53.5807 14.5685 53.1477 14.8848C52.7148 15.1846 52.4983 15.6175 52.4983 16.1836C52.4983 17.2826 53.3142 17.832 54.946 17.832H58.2429V13.0616C58.2429 11.0468 57.2605 10.0394 55.2957 10.0394H51.2995V7.94143H55.4206C57.0357 7.94143 58.2762 8.34105 59.142 9.14029C60.0079 9.93953 60.4408 11.0884 60.4408 12.587V19.9301H54.8711C53.4558 19.9301 52.3318 19.6137 51.4993 18.981C50.6668 18.3482 50.2505 17.4241 50.2505 16.2086C50.2505 14.9931 50.6917 14.0689 51.5742 13.4362C52.4567 12.8035 53.564 12.4871 54.8961 12.4871C55.6454 12.4871 56.4446 12.6203 57.2938 12.8867ZM73.127 19.9301H68.8061C66.9579 19.9301 65.6341 19.6553 64.8349 19.1058C64.1189 18.623 63.661 18.0485 63.4612 17.3825C63.278 16.6998 63.1864 15.809 63.1864 14.71V7.94143H65.3844V14.685C65.3844 14.9847 65.3927 15.2428 65.4093 15.4593C65.426 15.6591 65.4843 15.9255 65.5842 16.2585C65.6841 16.5749 65.8256 16.8413 66.0088 17.0578C66.1919 17.2576 66.4583 17.4407 66.808 17.6073C67.1577 17.7571 67.5823 17.832 68.0818 17.832H70.9291V7.94143H73.127V19.9301ZM78.4579 2.44664V7.94143H80.5809C82.4291 7.94143 83.7529 8.21617 84.5521 8.76565C85.2681 9.24852 85.7177 9.8313 85.9008 10.514C86.1006 11.18 86.2005 12.0625 86.2005 13.1615V19.9301H84.0026V13.1865C84.0026 12.8867 83.9943 12.637 83.9777 12.4372C83.961 12.2207 83.9027 11.9543 83.8028 11.6379C83.7029 11.3049 83.5614 11.0385 83.3782 10.8387C83.1951 10.6222 82.9286 10.4391 82.579 10.2892C82.2293 10.1227 81.8047 10.0394 81.3052 10.0394H78.4579V19.9301H76.26V2.44664H78.4579ZM90.5609 9.51494C91.7264 8.29942 93.1834 7.69167 94.9317 7.69167C95.7809 7.69167 96.5718 7.85818 97.3045 8.19119C98.0537 8.50756 98.7031 8.94881 99.2526 9.51494C99.8187 10.0811 100.26 10.7471 100.576 11.513C100.893 12.2623 101.051 13.0699 101.051 13.9357C101.051 14.8016 100.893 15.6175 100.576 16.3834C100.277 17.1327 99.852 17.7904 99.3026 18.3565C98.7531 18.9227 98.1037 19.3722 97.3544 19.7053C96.6051 20.0216 95.7976 20.1798 94.9317 20.1798C94.0492 20.1798 93.2333 20.0216 92.484 19.7053C91.7514 19.3722 91.1103 18.9227 90.5609 18.3565C90.0114 17.7904 89.5785 17.1327 89.2621 16.3834C88.9624 15.6175 88.8125 14.8016 88.8125 13.9357C88.8125 12.1707 89.3953 10.6971 90.5609 9.51494ZM94.9317 9.78968C93.7661 9.78968 92.8254 10.1726 92.1094 10.9386C91.4101 11.7045 91.0604 12.7036 91.0604 13.9357C91.0604 15.1679 91.4101 16.167 92.1094 16.9329C92.8254 17.6988 93.7661 18.0818 94.9317 18.0818C96.1139 18.0818 97.0547 17.6988 97.754 16.9329C98.4534 16.1503 98.803 15.1513 98.803 13.9357C98.803 12.7202 98.4534 11.7295 97.754 10.9636C97.0547 10.181 96.1139 9.78968 94.9317 9.78968ZM113.616 19.9301H109.295C107.447 19.9301 106.123 19.6553 105.324 19.1058C104.608 18.623 104.15 18.0485 103.95 17.3825C103.767 16.6998 103.675 15.809 103.675 14.71V7.94143H105.873V14.685C105.873 14.9847 105.882 15.2428 105.898 15.4593C105.915 15.6591 105.973 15.9255 106.073 16.2585C106.173 16.5749 106.315 16.8413 106.498 17.0578C106.681 17.2576 106.947 17.4407 107.297 17.6073C107.647 17.7571 108.071 17.832 108.571 17.832H111.418V7.94143H113.616V19.9301ZM125.066 7.94143V10.0394H120.645C120.162 10.0394 119.746 10.131 119.396 10.3142C119.047 10.4973 118.872 10.7554 118.872 11.0884C118.872 11.2883 118.914 11.4714 118.997 11.6379C119.08 11.7878 119.172 11.9127 119.272 12.0126C119.388 12.1125 119.555 12.2207 119.771 12.3373C120.004 12.4372 120.179 12.5121 120.296 12.562C120.429 12.5953 120.962 12.7619 121.894 13.0616C122.826 13.3613 123.517 13.611 123.967 13.8109C124.417 14.0107 124.758 14.2854 124.991 14.6351C125.241 14.9681 125.399 15.3011 125.466 15.6341C125.532 15.9505 125.566 16.2669 125.566 16.5832C125.566 18.8144 124.034 19.9301 120.97 19.9301H116.649V17.832H120.97C122.535 17.832 123.318 17.4158 123.318 16.5832C123.318 16.1836 123.085 15.8506 122.618 15.5842C122.169 15.3178 121.611 15.093 120.945 14.9098C120.296 14.7267 119.638 14.5185 118.972 14.2854C118.322 14.0356 117.765 13.6444 117.298 13.1115C116.849 12.562 116.624 11.8877 116.624 11.0884C116.624 10.0727 117.015 9.29848 117.798 8.76565C118.58 8.21617 119.53 7.94143 120.645 7.94143H125.066ZM133.936 7.69167C136.766 7.80822 138.182 8.98211 138.182 11.2133C138.182 13.994 136.358 15.3844 132.712 15.3844H131.688V13.4612H132.887C134.002 13.4612 134.777 13.2947 135.21 12.9617C135.642 12.612 135.859 12.0375 135.859 11.2383C135.859 10.7221 135.667 10.3392 135.284 10.0894C134.901 9.82298 134.41 9.68977 133.811 9.68977C132.629 9.68977 131.696 10.106 131.013 10.9386C130.347 11.7711 130.014 12.7702 130.014 13.9357C130.014 15.1679 130.372 16.167 131.088 16.9329C131.821 17.6988 132.77 18.0818 133.936 18.0818C134.985 18.0818 135.842 17.8237 136.508 17.3075L138.007 18.7811C136.858 19.7136 135.501 20.1798 133.936 20.1798C132.038 20.1798 130.522 19.622 129.39 18.5064C128.258 17.3908 127.692 15.9505 127.692 14.1855C127.692 12.2207 128.249 10.6305 129.365 9.41503C130.481 8.19952 132.004 7.62506 133.936 7.69167Z" fill="#B9B9B9"/>
<path d="M49.507 36.5961C49.3415 36.5961 49.2052 36.5425 49.0981 36.4355C48.991 36.3284 48.9375 36.1921 48.9375 36.0266V25.7617C48.9375 25.5962 48.991 25.46 49.0981 25.3529C49.2052 25.2458 49.3415 25.1923 49.507 25.1923H52.2375C52.9481 25.1923 53.5808 25.3432 54.1357 25.6449C54.6905 25.937 55.1237 26.3507 55.4352 26.8861C55.7564 27.4117 55.917 28.0201 55.917 28.7112C55.917 29.3732 55.7564 29.9621 55.4352 30.478C55.1237 30.9939 54.6905 31.3979 54.1357 31.69C53.5808 31.982 52.9481 32.128 52.2375 32.128H50.0764V36.0266C50.0764 36.1921 50.0229 36.3284 49.9158 36.4355C49.8087 36.5425 49.6725 36.5961 49.507 36.5961ZM55.6104 36.5961C55.4839 36.5961 55.3817 36.5717 55.3038 36.5231C55.2356 36.4744 55.1724 36.4014 55.114 36.304L52.3105 31.836L53.4494 31.5439L56.0631 35.72C56.2091 35.9536 56.2334 36.158 56.1361 36.3332C56.0485 36.5085 55.8732 36.5961 55.6104 36.5961ZM50.0764 31.0329H52.2375C52.7339 31.0329 53.172 30.9355 53.5516 30.7409C53.941 30.5364 54.2476 30.259 54.4715 29.9086C54.6954 29.5581 54.8073 29.159 54.8073 28.7112C54.8073 28.2343 54.6954 27.8157 54.4715 27.4555C54.2476 27.0856 53.941 26.7984 53.5516 26.594C53.172 26.3896 52.7339 26.2874 52.2375 26.2874H50.0764V31.0329ZM58.5331 36.5961C58.3676 36.5961 58.2313 36.5425 58.1243 36.4355C58.0172 36.3284 57.9636 36.1921 57.9636 36.0266V25.7617C57.9636 25.5962 58.0172 25.46 58.1243 25.3529C58.2313 25.2458 58.3676 25.1923 58.5331 25.1923H65.3812C65.537 25.1923 65.6684 25.2458 65.7755 25.3529C65.8923 25.4502 65.9507 25.5816 65.9507 25.7471C65.9507 25.8931 65.8923 26.0197 65.7755 26.1268C65.6684 26.2339 65.537 26.2874 65.3812 26.2874H59.1026V30.3174H63.6728C63.8383 30.3174 63.9746 30.371 64.0817 30.478C64.1888 30.5851 64.2423 30.7165 64.2423 30.8723C64.2423 31.028 64.1888 31.1594 64.0817 31.2665C63.9746 31.3736 63.8383 31.4271 63.6728 31.4271H59.1026V35.501H65.3812C65.537 35.501 65.6684 35.5545 65.7755 35.6616C65.8923 35.7686 65.9507 35.8952 65.9507 36.0412C65.9507 36.2067 65.8923 36.343 65.7755 36.4501C65.6684 36.5474 65.537 36.5961 65.3812 36.5961H58.5331ZM67.4456 36.5961C67.2217 36.5961 67.0611 36.5036 66.9638 36.3186C66.8664 36.1337 66.8567 35.9536 66.9346 35.7784L71.2274 25.5865C71.3345 25.3237 71.5195 25.1923 71.7823 25.1923C72.0354 25.1923 72.2155 25.3237 72.3225 25.5865L76.63 35.793C76.7176 35.9779 76.703 36.158 76.5862 36.3332C76.4791 36.5085 76.3234 36.5961 76.1189 36.5961C76.0021 36.5961 75.8951 36.5669 75.7977 36.5085C75.7101 36.4501 75.6371 36.3624 75.5787 36.2456L71.5633 26.5064H72.0159L67.9713 36.2456C67.9226 36.3624 67.8496 36.4501 67.7523 36.5085C67.6647 36.5669 67.5624 36.5961 67.4456 36.5961ZM68.4093 33.8802L68.8474 32.9019H74.7756L75.2136 33.8802H68.4093ZM78.9097 36.5961C78.7539 36.5961 78.6176 36.5425 78.5008 36.4355C78.3937 36.3284 78.3402 36.1921 78.3402 36.0266V25.7617C78.3402 25.606 78.3937 25.4746 78.5008 25.3675C78.6176 25.2507 78.7539 25.1923 78.9097 25.1923C79.0654 25.1923 79.1968 25.2507 79.3039 25.3675C79.4207 25.4746 79.4791 25.606 79.4791 25.7617V35.5156H85.1883C85.3441 35.5156 85.4755 35.5691 85.5826 35.6762C85.6994 35.7735 85.7578 35.9001 85.7578 36.0558C85.7578 36.2116 85.6994 36.343 85.5826 36.4501C85.4755 36.5474 85.3441 36.5961 85.1883 36.5961H78.9097ZM92.4275 36.5961C92.262 36.5961 92.1257 36.5425 92.0186 36.4355C91.9116 36.3284 91.858 36.1921 91.858 36.0266V25.7617C91.858 25.5962 91.9116 25.46 92.0186 25.3529C92.1257 25.2458 92.262 25.1923 92.4275 25.1923H99.2756C99.4313 25.1923 99.5628 25.2458 99.6698 25.3529C99.7866 25.4502 99.8451 25.5816 99.8451 25.7471C99.8451 25.8931 99.7866 26.0197 99.6698 26.1268C99.5628 26.2339 99.4313 26.2874 99.2756 26.2874H92.9969V30.3174H97.5672C97.7327 30.3174 97.869 30.371 97.9761 30.478C98.0831 30.5851 98.1367 30.7165 98.1367 30.8723C98.1367 31.028 98.0831 31.1594 97.9761 31.2665C97.869 31.3736 97.7327 31.4271 97.5672 31.4271H92.9969V35.501H99.2756C99.4313 35.501 99.5628 35.5545 99.6698 35.6616C99.7866 35.7686 99.8451 35.8952 99.8451 36.0412C99.8451 36.2067 99.7866 36.343 99.6698 36.4501C99.5628 36.5474 99.4313 36.5961 99.2756 36.5961H92.4275ZM105.472 36.7421C104.849 36.7421 104.27 36.6545 103.735 36.4793C103.209 36.2943 102.751 36.0363 102.362 35.7054C101.973 35.3744 101.676 34.9899 101.471 34.5519C101.394 34.3961 101.389 34.255 101.457 34.1284C101.535 33.9921 101.661 33.8997 101.836 33.851C101.973 33.812 102.104 33.8266 102.231 33.8948C102.367 33.9629 102.469 34.0651 102.537 34.2014C102.683 34.4837 102.897 34.7368 103.18 34.9607C103.462 35.1846 103.798 35.3598 104.187 35.4864C104.577 35.6032 105.005 35.6616 105.472 35.6616C105.988 35.6616 106.446 35.5788 106.845 35.4133C107.244 35.2381 107.555 34.9899 107.779 34.6687C108.013 34.3377 108.13 33.9386 108.13 33.4713C108.13 32.8775 107.911 32.3665 107.473 31.9382C107.035 31.5099 106.348 31.2373 105.414 31.1205C104.275 30.9842 103.384 30.6338 102.742 30.0692C102.099 29.4949 101.778 28.794 101.778 27.9666C101.778 27.3728 101.934 26.8568 102.245 26.4188C102.567 25.9808 103.005 25.6449 103.559 25.4113C104.114 25.1679 104.752 25.0463 105.472 25.0463C106.008 25.0463 106.494 25.1339 106.932 25.3091C107.37 25.4746 107.75 25.6985 108.071 25.9808C108.402 26.2533 108.67 26.5551 108.874 26.8861C108.972 27.0418 109.001 27.1927 108.962 27.3387C108.933 27.4847 108.85 27.5967 108.714 27.6745C108.568 27.7427 108.417 27.7524 108.261 27.7037C108.115 27.6551 108.003 27.5626 107.925 27.4263C107.779 27.2024 107.594 26.9931 107.37 26.7984C107.156 26.594 106.893 26.4334 106.582 26.3166C106.27 26.1998 105.896 26.1365 105.458 26.1268C104.689 26.1268 104.07 26.2923 103.603 26.6232C103.136 26.9445 102.902 27.4166 102.902 28.0396C102.902 28.3705 102.99 28.6772 103.165 28.9595C103.34 29.232 103.628 29.4705 104.027 29.6749C104.436 29.8696 104.981 30.0156 105.662 30.113C106.879 30.2882 107.779 30.663 108.363 31.2373C108.957 31.8019 109.254 32.5417 109.254 33.4567C109.254 33.9824 109.157 34.4496 108.962 34.8585C108.777 35.2673 108.509 35.6129 108.159 35.8952C107.818 36.1678 107.414 36.377 106.947 36.5231C106.489 36.6691 105.998 36.7421 105.472 36.7421ZM114.366 36.5961C114.21 36.5961 114.074 36.5425 113.957 36.4355C113.85 36.3186 113.796 36.1824 113.796 36.0266V25.1923H114.935V36.0266C114.935 36.1824 114.882 36.3186 114.774 36.4355C114.667 36.5425 114.531 36.5961 114.366 36.5961ZM110.336 26.229C110.18 26.229 110.053 26.1803 109.956 26.083C109.859 25.9856 109.81 25.8639 109.81 25.7179C109.81 25.5622 109.859 25.4356 109.956 25.3383C110.053 25.2409 110.18 25.1923 110.336 25.1923H118.41C118.566 25.1923 118.693 25.2409 118.79 25.3383C118.887 25.4356 118.936 25.5622 118.936 25.7179C118.936 25.8639 118.887 25.9856 118.79 26.083C118.693 26.1803 118.566 26.229 118.41 26.229H110.336ZM118.822 36.5961C118.598 36.5961 118.437 36.5036 118.34 36.3186C118.243 36.1337 118.233 35.9536 118.311 35.7784L122.604 25.5865C122.711 25.3237 122.896 25.1923 123.159 25.1923C123.412 25.1923 123.592 25.3237 123.699 25.5865L128.006 35.793C128.094 35.9779 128.079 36.158 127.962 36.3332C127.855 36.5085 127.7 36.5961 127.495 36.5961C127.378 36.5961 127.271 36.5669 127.174 36.5085C127.086 36.4501 127.013 36.3624 126.955 36.2456L122.94 26.5064H123.392L119.348 36.2456C119.299 36.3624 119.226 36.4501 119.129 36.5085C119.041 36.5669 118.939 36.5961 118.822 36.5961ZM119.786 33.8802L120.224 32.9019H126.152L126.59 33.8802H119.786ZM131.862 36.5961C131.706 36.5961 131.57 36.5425 131.453 36.4355C131.346 36.3186 131.292 36.1824 131.292 36.0266V25.1923H132.431V36.0266C132.431 36.1824 132.378 36.3186 132.271 36.4355C132.164 36.5425 132.027 36.5961 131.862 36.5961ZM127.832 26.229C127.676 26.229 127.549 26.1803 127.452 26.083C127.355 25.9856 127.306 25.8639 127.306 25.7179C127.306 25.5622 127.355 25.4356 127.452 25.3383C127.549 25.2409 127.676 25.1923 127.832 25.1923H135.906C136.062 25.1923 136.189 25.2409 136.286 25.3383C136.383 25.4356 136.432 25.5622 136.432 25.7179C136.432 25.8639 136.383 25.9856 136.286 26.083C136.189 26.1803 136.062 26.229 135.906 26.229H127.832ZM138.685 36.5961C138.519 36.5961 138.383 36.5425 138.276 36.4355C138.169 36.3284 138.115 36.1921 138.115 36.0266V25.7617C138.115 25.5962 138.169 25.46 138.276 25.3529C138.383 25.2458 138.519 25.1923 138.685 25.1923H145.533C145.689 25.1923 145.82 25.2458 145.927 25.3529C146.044 25.4502 146.102 25.5816 146.102 25.7471C146.102 25.8931 146.044 26.0197 145.927 26.1268C145.82 26.2339 145.689 26.2874 145.533 26.2874H139.254V30.3174H143.824C143.99 30.3174 144.126 30.371 144.233 30.478C144.34 30.5851 144.394 30.7165 144.394 30.8723C144.394 31.028 144.34 31.1594 144.233 31.2665C144.126 31.3736 143.99 31.4271 143.824 31.4271H139.254V35.501H145.533C145.689 35.501 145.82 35.5545 145.927 35.6616C146.044 35.7686 146.102 35.8952 146.102 36.0412C146.102 36.2067 146.044 36.343 145.927 36.4501C145.82 36.5474 145.689 36.5961 145.533 36.5961H138.685Z" fill="#B9B9B9"/>
</g>
</g>
<defs>
<clipPath id="clip0_76_11921">
<rect width="142.68" height="41.8449" fill="white" transform="translate(-0.000305176 0.000244141)"/>
</clipPath>
</defs>
</svg>
