<svg width="116" height="76" viewBox="0 0 116 76" fill="none" xmlns="http://www.w3.org/2000/svg">
<g clip-path="url(#clip0_76_11832)">
<path d="M32.2977 27.8291C32.2977 28.0113 32.1486 28.1604 31.9663 28.1604H27.26C27.0777 28.1604 26.9286 28.0113 26.9286 27.8291V23.1246C26.9286 22.9424 27.0777 22.7933 27.26 22.7933H31.9663C32.1486 22.7933 32.2977 22.9424 32.2977 23.1246V27.8291Z" fill="#B9B9B9"/>
<path d="M39.0589 27.8291C39.0589 28.0113 38.9098 28.1604 38.7275 28.1604H34.0212C33.8389 28.1604 33.6898 28.0113 33.6898 27.8291V23.1246C33.6898 22.9424 33.8389 22.7933 34.0212 22.7933H38.7275C38.9098 22.7933 39.0589 22.9424 39.0589 23.1246V27.8291Z" fill="#B9B9B9"/>
<path d="M82.3103 27.8291C82.3103 28.0113 82.1612 28.1604 81.9789 28.1604H77.2726C77.0903 28.1604 76.9412 28.0113 76.9412 27.8291V23.1246C76.9412 22.9424 77.0903 22.7933 77.2726 22.7933H81.9789C82.1612 22.7933 82.3103 22.9424 82.3103 23.1246V27.8291Z" fill="#B9B9B9"/>
<path d="M89.0715 27.8291C89.0715 28.0113 88.9223 28.1604 88.74 28.1604H84.0338C83.8515 28.1604 83.7023 28.0113 83.7023 27.8291V23.1246C83.7023 22.9424 83.8515 22.7933 84.0338 22.7933H88.74C88.9223 22.7933 89.0715 22.9424 89.0715 23.1246V27.8291Z" fill="#B9B9B9"/>
<path d="M99.7766 23.3897L93.8937 17.5092V13.3514C93.8937 13.1195 93.6949 12.9372 93.4629 12.9372H91.6069C91.3749 12.9372 91.1926 13.1195 91.1926 13.3514V14.8256L83.404 7.04011C83.1886 6.82477 82.824 6.82477 82.592 7.04011L81.78 7.8518C81.5646 8.06714 81.2 8.43157 80.968 8.66348L73.9251 15.7036L60.0051 1.78902C59.7897 1.55711 59.4251 1.20925 59.1931 0.977341L58.3977 0.165659C58.1823 -0.0496857 57.8177 -0.0496857 57.5857 0.165659L49.7971 7.95119V6.47691C49.7971 6.245 49.6149 6.06278 49.3663 6.06278H47.5103C47.2783 6.06278 47.0794 6.26156 47.0794 6.47691V10.6347L42.0417 15.6705L34.9989 8.63035C34.7834 8.415 34.4189 8.05058 34.1869 7.81867L33.3749 7.00698C33.1594 6.79164 32.7949 6.79164 32.5629 7.00698L24.7743 14.7925V13.3182C24.7743 13.0863 24.592 12.9041 24.3434 12.9041H22.4874C22.2554 12.9041 22.0566 13.0863 22.0566 13.3182V17.476L16.1737 23.3566C15.9583 23.5719 15.9583 23.9364 16.1737 24.1683L16.9857 24.98C17.2011 25.1953 17.5657 25.1953 17.7977 24.98L32.5463 10.2206C32.7617 10.0052 33.1263 10.0052 33.3583 10.2206L48.1234 24.98C48.3389 25.1953 48.7034 25.1953 48.9354 24.98L49.7474 24.1683C49.9629 23.9529 49.9629 23.5885 49.7474 23.3566L43.6491 17.2607L57.5691 3.34613C57.7846 3.13079 58.1491 3.13079 58.3811 3.34613L72.3011 17.2607L66.2029 23.3566C65.9874 23.5719 65.9874 23.9364 66.2029 24.1683L67.0149 24.98C67.2303 25.1953 67.5949 25.1953 67.8269 24.98L82.5754 10.2206C82.7909 10.0052 83.1554 10.0052 83.3874 10.2206L98.136 24.98C98.3514 25.1953 98.716 25.1953 98.948 24.98L99.76 24.1683C100.009 23.9861 100.009 23.6216 99.7766 23.3897Z" fill="#B9B9B9"/>
<path d="M33.7229 11.7942C33.64 11.7114 33.4909 11.5623 33.408 11.4795L33.0931 11.1648C33.0103 11.082 32.8611 11.082 32.7783 11.1648L26.5143 17.4429C26.4314 17.5257 26.4314 17.6748 26.5143 17.7576L26.8291 18.0724C26.912 18.1552 27.0611 18.1552 27.144 18.0724L32.7949 12.4237C32.8777 12.3409 33.0269 12.3409 33.1097 12.4237L38.7606 18.0724C38.8434 18.1552 38.9926 18.1552 39.0754 18.0724L39.3903 17.7576C39.4731 17.6748 39.4731 17.5257 39.3903 17.4429L33.7229 11.7942Z" fill="#B9B9B9"/>
<path d="M58.7789 4.87005C58.696 4.78723 58.5469 4.63814 58.464 4.55532L58.1491 4.24059C58.0663 4.15776 57.9171 4.15776 57.8343 4.24059L51.5537 10.5187C51.4709 10.6015 51.4709 10.7506 51.5537 10.8334L51.8686 11.1482C51.9514 11.231 52.1006 11.231 52.1834 11.1482L57.8343 5.49952C57.9171 5.4167 58.0663 5.4167 58.1491 5.49952L63.8 11.1482C63.8829 11.231 64.032 11.231 64.1149 11.1482L64.4297 10.8334C64.5126 10.7506 64.5126 10.6181 64.4297 10.5187L58.7789 4.87005Z" fill="#B9B9B9"/>
<path d="M83.7852 11.7942C83.7023 11.7114 83.5532 11.5623 83.4703 11.4795L83.1554 11.1648C83.0726 11.082 82.9234 11.082 82.8406 11.1648L76.56 17.4429C76.4771 17.5257 76.4771 17.6748 76.56 17.7576L76.8749 18.0724C76.9577 18.1552 77.1069 18.1552 77.1897 18.0724L82.8571 12.4072C82.94 12.3243 83.0891 12.3243 83.172 12.4072L88.8229 18.0558C88.9057 18.1386 89.0549 18.1386 89.1377 18.0558L89.4526 17.7411C89.5354 17.6582 89.5354 17.5092 89.4526 17.4263L83.7852 11.7942Z" fill="#B9B9B9"/>
<path d="M58 34.041C77.952 34.041 95.2195 38.2485 103.571 44.3775C101.069 36.5423 81.6309 30.4298 58 30.4298C34.3692 30.4298 14.9309 36.5257 12.4286 44.3775C20.7806 38.2485 38.048 34.041 58 34.041Z" fill="#E3E3E3"/>
<path d="M32.2977 32.0532V29.5188C32.2977 29.3366 32.1486 29.1875 31.9663 29.1875H27.26C27.0777 29.1875 26.9286 29.3366 26.9286 29.5188V33.511C28.6023 32.9809 30.4086 32.5005 32.2977 32.0532Z" fill="#B9B9B9"/>
<path d="M39.0589 30.7612V29.5188C39.0589 29.3366 38.9098 29.1875 38.7275 29.1875H34.0212C33.8389 29.1875 33.6898 29.3366 33.6898 29.5188V31.7551C35.4132 31.3741 37.2029 31.0428 39.0589 30.7612Z" fill="#B9B9B9"/>
<path d="M82.3103 31.7385V29.5022C82.3103 29.32 82.1612 29.1709 81.9789 29.1709H77.2726C77.0903 29.1709 76.9412 29.32 76.9412 29.5022V30.7446C78.7972 31.0427 80.5869 31.374 82.3103 31.7385Z" fill="#B9B9B9"/>
<path d="M89.0714 33.511V29.5188C89.0714 29.3366 88.9223 29.1875 88.74 29.1875H84.0337C83.8514 29.1875 83.7023 29.3366 83.7023 29.5188V32.0532C85.5914 32.5005 87.3977 32.9809 89.0714 33.511Z" fill="#B9B9B9"/>
<path d="M57.304 21.7497C57.304 21.9319 57.1549 22.081 56.9726 22.081H52.2663C52.084 22.081 51.9349 21.9319 51.9349 21.7497V17.0453C51.9349 16.8631 52.084 16.714 52.2663 16.714H56.9726C57.1549 16.714 57.304 16.8631 57.304 17.0453V21.7497Z" fill="#B9B9B9"/>
<path d="M64.0652 21.7497C64.0652 21.9319 63.916 22.081 63.7338 22.081H59.0275C58.8452 22.081 58.696 21.9319 58.696 21.7497V17.0453C58.696 16.8631 58.8452 16.714 59.0275 16.714H63.7338C63.916 16.714 64.0652 16.8631 64.0652 17.0453V21.7497Z" fill="#B9B9B9"/>
<path d="M57.304 28.1438C57.304 28.326 57.1549 28.4751 56.9726 28.4751H52.2663C52.084 28.4751 51.9349 28.326 51.9349 28.1438V23.4393C51.9349 23.2571 52.084 23.108 52.2663 23.108H56.9726C57.1549 23.108 57.304 23.2571 57.304 23.4393V28.1438Z" fill="#B9B9B9"/>
<path d="M64.0652 28.1438C64.0652 28.326 63.916 28.4751 63.7338 28.4751H59.0275C58.8452 28.4751 58.696 28.326 58.696 28.1438V23.4393C58.696 23.2571 58.8452 23.108 59.0275 23.108H63.7338C63.916 23.108 64.0652 23.2571 64.0652 23.4393V28.1438Z" fill="#B9B9B9"/>
<path d="M0 50.7881H7.656C9.42914 50.7881 10.7549 51.1691 11.6331 51.9311C12.5114 52.6931 12.9589 53.7532 12.9589 55.1281C12.9589 55.8901 12.8429 56.5196 12.6274 57.0331C12.3954 57.53 12.1469 57.9441 11.8486 58.2423C11.5503 58.557 11.252 58.7724 10.9537 58.9049C10.6554 59.0374 10.44 59.1368 10.3074 59.17V59.2196C10.5394 59.2528 10.8046 59.319 11.0863 59.4516C11.368 59.5675 11.6166 59.7663 11.8651 60.0313C12.0971 60.2964 12.296 60.6277 12.4617 61.0584C12.6109 61.4725 12.6937 62.0026 12.6937 62.632C12.6937 63.5762 12.76 64.4376 12.9091 65.1996C13.0583 65.9781 13.2737 66.5248 13.572 66.8561H10.556C10.3406 66.5082 10.2246 66.1272 10.1914 65.7131C10.1583 65.299 10.1417 64.8849 10.1417 64.5039C10.1417 63.775 10.092 63.129 10.0091 62.5989C9.92629 62.0688 9.76057 61.6216 9.512 61.2737C9.28 60.9258 8.94857 60.6608 8.53429 60.4951C8.12 60.3295 7.58972 60.2467 6.94343 60.2467H2.81714V66.8561H0V50.7881ZM2.81714 58.0932H7.424C8.31886 58.0932 8.99829 57.8779 9.46229 57.4472C9.92629 57.0165 10.1583 56.387 10.1583 55.5257C10.1583 55.0121 10.0754 54.598 9.92629 54.2833C9.77714 53.9686 9.57829 53.7035 9.31314 53.5379C9.048 53.3557 8.74971 53.2397 8.41829 53.1734C8.08686 53.1072 7.73886 53.0906 7.37429 53.0906H2.81714V58.0932Z" fill="#B9B9B9"/>
<path d="M17.4663 61.6879C17.4663 62.1351 17.5326 62.5658 17.6651 62.9965C17.7977 63.4106 17.98 63.7751 18.2451 64.0898C18.4937 64.4045 18.8251 64.653 19.2063 64.8352C19.5874 65.0174 20.068 65.1168 20.5983 65.1168C21.344 65.1168 21.9571 64.9512 22.4046 64.6364C22.8686 64.3217 23.2 63.8248 23.432 63.1953H25.8514C25.7188 63.8248 25.4868 64.388 25.1554 64.8849C24.824 65.3819 24.4263 65.796 23.9623 66.1273C23.4983 66.4586 22.9846 66.7236 22.4046 66.8893C21.8246 67.0549 21.228 67.1543 20.5983 67.1543C19.6868 67.1543 18.8748 67.0052 18.1788 66.7071C17.4663 66.4089 16.8863 65.9948 16.3891 65.4481C15.9086 64.9015 15.5274 64.272 15.2954 63.51C15.0468 62.7646 14.9308 61.9363 14.9308 61.0418C14.9308 60.2136 15.0634 59.435 15.3286 58.6896C15.5937 57.9442 15.9583 57.2982 16.4554 56.735C16.936 56.1717 17.5326 55.7245 18.212 55.3932C18.908 55.0619 19.6868 54.8962 20.5486 54.8962C21.46 54.8962 22.2886 55.095 23.0177 55.476C23.7468 55.857 24.3434 56.3705 24.824 57C25.3046 57.6295 25.6526 58.3583 25.868 59.17C26.0834 59.9817 26.1331 60.8265 26.0337 61.7044H17.4663V61.6879ZM23.4486 59.9982C23.4154 59.6007 23.3326 59.2031 23.1834 58.8221C23.0343 58.4411 22.852 58.1264 22.6034 57.8448C22.3548 57.5632 22.0566 57.3479 21.7086 57.1656C21.3606 57 20.9628 56.9006 20.532 56.9006C20.0846 56.9006 19.6703 56.9834 19.3057 57.1325C18.9411 57.2816 18.6263 57.5135 18.3611 57.7785C18.096 58.0601 17.8971 58.3749 17.7314 58.7559C17.5823 59.1369 17.4828 59.5344 17.4663 59.9651H23.4486V59.9982Z" fill="#B9B9B9"/>
<path d="M37.6834 64.2554C37.6834 64.5702 37.7166 64.8021 37.7994 64.9346C37.8823 65.0671 38.048 65.1334 38.28 65.1334C38.3629 65.1334 38.4457 65.1334 38.5452 65.1334C38.6446 65.1334 38.7772 65.1168 38.9097 65.0837V66.8561C38.8269 66.8893 38.7109 66.9224 38.5617 66.9555C38.4126 66.9887 38.28 67.0218 38.1309 67.0549C37.9817 67.0881 37.8326 67.1046 37.6834 67.1212C37.5343 67.1378 37.4017 67.1377 37.3023 67.1377C36.772 67.1377 36.3412 67.0384 35.9932 66.823C35.6452 66.6077 35.4297 66.2432 35.3137 65.7297C34.8 66.2267 34.1869 66.5911 33.4412 66.8065C32.6954 67.0218 31.9829 67.1377 31.2869 67.1377C30.7566 67.1377 30.2594 67.0715 29.7789 66.9224C29.2983 66.7733 28.884 66.5745 28.5029 66.2929C28.1383 66.0113 27.84 65.6635 27.6246 65.2328C27.4092 64.8021 27.2932 64.3051 27.2932 63.7419C27.2932 63.0296 27.4257 62.4333 27.6909 61.9861C27.956 61.5388 28.304 61.1909 28.7183 60.9259C29.1492 60.6774 29.6297 60.4952 30.16 60.3793C30.6903 60.2633 31.2206 60.1805 31.7674 60.1142C32.2314 60.0314 32.6789 59.9651 33.0932 59.9154C33.5074 59.8823 33.8886 59.816 34.2034 59.7167C34.5183 59.6338 34.7834 59.4847 34.9657 59.3025C35.148 59.1203 35.2474 58.8387 35.2474 58.4577C35.2474 58.1264 35.1646 57.8614 35.0154 57.646C34.8663 57.4307 34.6674 57.2816 34.4354 57.1657C34.2034 57.0497 33.9383 56.9834 33.6566 56.9337C33.3749 56.9006 33.1097 56.884 32.8446 56.884C32.132 56.884 31.5354 57.0331 31.0714 57.3313C30.6074 57.6295 30.3423 58.0933 30.2926 58.7228H27.724C27.7737 57.9773 27.956 57.3479 28.2709 56.8509C28.5857 56.354 28.9834 55.9564 29.4806 55.6582C29.9612 55.3601 30.5246 55.1447 31.1377 55.0288C31.7509 54.9128 32.3806 54.8466 33.0269 54.8466C33.5903 54.8466 34.1537 54.9128 34.7172 55.0288C35.264 55.1447 35.7777 55.3435 36.2086 55.6085C36.656 55.8736 37.004 56.2214 37.2692 56.6521C37.5343 57.0828 37.6669 57.5963 37.6669 58.2092V64.2554H37.6834ZM35.1314 61.0087C34.7337 61.2572 34.2697 61.4228 33.6897 61.4725C33.1263 61.5222 32.5463 61.6051 31.9829 61.7044C31.7177 61.7541 31.4526 61.8204 31.204 61.9032C30.9554 61.9861 30.7234 62.102 30.5246 62.2345C30.3257 62.3836 30.1766 62.5658 30.0606 62.7977C29.9446 63.0296 29.8949 63.3112 29.8949 63.6425C29.8949 63.9242 29.9777 64.1726 30.1434 64.3548C30.3092 64.5536 30.508 64.7027 30.74 64.8187C30.972 64.9346 31.2206 65.0174 31.5023 65.0506C31.784 65.1003 32.0326 65.1168 32.248 65.1168C32.5297 65.1168 32.8446 65.0837 33.176 65.0009C33.5074 64.918 33.8223 64.8021 34.104 64.6199C34.4023 64.4377 34.6343 64.2058 34.8332 63.9407C35.032 63.6591 35.1314 63.3278 35.1314 62.9137V61.0087Z" fill="#B9B9B9"/>
<path d="M40.5172 50.7881H43.0857V66.823H40.5172V50.7881Z" fill="#B9B9B9"/>
<path d="M52.4817 50.7881H64.032V53.2066H55.2823V57.4141H63.3691V59.7H55.2823V64.3879H64.1811V66.8064H52.4651V50.7881H52.4817Z" fill="#B9B9B9"/>
<path d="M68.208 63.0959C68.2909 63.8413 68.5726 64.3714 69.0697 64.6695C69.5669 64.9677 70.1634 65.1168 70.8429 65.1168C71.0749 65.1168 71.3566 65.1002 71.6714 65.0671C71.9863 65.034 72.268 64.9511 72.5332 64.8517C72.7983 64.7524 73.0303 64.5867 73.196 64.3879C73.3617 64.1891 73.4446 63.9241 73.428 63.5928C73.4114 63.2615 73.2954 62.9965 73.0634 62.7811C72.8314 62.5658 72.5497 62.4001 72.2017 62.2676C71.8537 62.1351 71.456 62.0357 70.992 61.9363C70.5446 61.8535 70.0806 61.7541 69.6166 61.6381C69.136 61.5388 68.672 61.4062 68.2411 61.2571C67.7937 61.1081 67.396 60.9093 67.048 60.6442C66.7 60.3958 66.4183 60.0645 66.2029 59.6669C65.9874 59.2694 65.888 58.7724 65.888 58.1926C65.888 57.5632 66.0371 57.0331 66.352 56.6024C66.6669 56.1717 67.048 55.8238 67.5286 55.5754C67.9926 55.3103 68.5229 55.1281 69.1029 55.0287C69.6829 54.9293 70.2297 54.8796 70.76 54.8796C71.3566 54.8796 71.9366 54.9459 72.4834 55.0784C73.0303 55.2109 73.5274 55.4097 73.9749 55.6913C74.4223 55.9729 74.7869 56.3539 75.0686 56.8012C75.3669 57.265 75.5491 57.8116 75.6154 58.4577H72.9474C72.8314 57.8448 72.5497 57.4306 72.1023 57.2153C71.6549 57 71.1577 56.9006 70.5777 56.9006C70.3954 56.9006 70.18 56.9171 69.9314 56.9503C69.6829 56.9834 69.4509 57.0331 69.2354 57.1159C69.02 57.1987 68.8377 57.3147 68.6886 57.4803C68.5394 57.6294 68.4566 57.8448 68.4566 58.0932C68.4566 58.408 68.5726 58.6564 68.788 58.8552C69.0034 59.054 69.2851 59.2031 69.6497 59.3356C69.9977 59.4681 70.3954 59.5675 70.8594 59.6669C71.3069 59.7497 71.7709 59.8491 72.2514 59.9651C72.7154 60.0645 73.1794 60.197 73.6269 60.3461C74.0743 60.4952 74.472 60.6939 74.8366 60.959C75.1846 61.2075 75.4663 61.5387 75.6983 61.9197C75.9137 62.3173 76.0297 62.7811 76.0297 63.3609C76.0297 64.0566 75.8806 64.6364 75.5657 65.1168C75.2509 65.5972 74.8366 65.9782 74.3394 66.2929C73.8423 66.5911 73.2789 66.8064 72.6657 66.9389C72.0526 67.0714 71.4394 67.1377 70.8429 67.1377C70.1137 67.1377 69.4343 67.0549 68.8046 66.8892C68.1749 66.7236 67.6446 66.4751 67.1806 66.1438C66.7166 65.8125 66.3686 65.3818 66.1034 64.8849C65.8383 64.3879 65.7057 63.7916 65.6891 63.0959H68.208Z" fill="#B9B9B9"/>
<path d="M76.7755 55.2109H78.7143V51.7323H81.2829V55.2109H83.6029V57.1159H81.2829V63.3112C81.2829 63.5762 81.2995 63.8082 81.316 64.0069C81.3326 64.2057 81.3989 64.3714 81.4652 64.5039C81.548 64.6364 81.664 64.7358 81.8297 64.8021C81.9955 64.8683 82.2275 64.9014 82.5092 64.9014C82.6915 64.9014 82.8737 64.9014 83.056 64.8849C83.2383 64.8849 83.4206 64.8517 83.6029 64.8021V66.7733C83.3212 66.8064 83.0395 66.8395 82.7743 66.8561C82.5092 66.8892 82.2275 66.9058 81.9457 66.9058C81.2663 66.9058 80.736 66.8395 80.3217 66.707C79.9075 66.5745 79.5926 66.3923 79.3606 66.1438C79.1286 65.8953 78.9629 65.5806 78.8966 65.2162C78.8137 64.8352 78.764 64.4211 78.7475 63.9407V57.0828H76.8086V55.2109H76.7755Z" fill="#B9B9B9"/>
<path d="M95.1532 64.2554C95.1532 64.5702 95.1863 64.8021 95.2692 64.9346C95.352 65.0671 95.5177 65.1334 95.7497 65.1334C95.8326 65.1334 95.9155 65.1334 96.0149 65.1334C96.1143 65.1334 96.2469 65.1168 96.3794 65.0837V66.8561C96.2966 66.8893 96.1806 66.9224 96.0314 66.9555C95.8823 66.9887 95.7497 67.0218 95.6006 67.0549C95.4515 67.0881 95.3023 67.1046 95.1532 67.1212C95.004 67.1378 94.8715 67.1377 94.772 67.1377C94.2417 67.1377 93.8109 67.0384 93.4629 66.823C93.1149 66.6077 92.8995 66.2432 92.7835 65.7297C92.2697 66.2267 91.6566 66.5911 90.9109 66.8065C90.1652 67.0384 89.4526 67.1377 88.7566 67.1377C88.2263 67.1377 87.7292 67.0715 87.2486 66.9224C86.768 66.7733 86.3537 66.5745 85.9726 66.2929C85.608 66.0113 85.3097 65.6635 85.0943 65.2328C84.8789 64.8021 84.7629 64.3051 84.7629 63.7419C84.7629 63.0296 84.8955 62.4333 85.1606 61.9861C85.4257 61.5388 85.7737 61.1909 86.188 60.9259C86.6189 60.6774 87.0994 60.4952 87.6297 60.3793C88.16 60.2633 88.6903 60.1805 89.2372 60.1142C89.7012 60.0314 90.1486 59.9651 90.5629 59.9154C90.9772 59.8823 91.3583 59.816 91.6732 59.7167C91.988 59.6338 92.2532 59.4847 92.4354 59.3025C92.6177 59.1203 92.7172 58.8387 92.7172 58.4577C92.7172 58.1264 92.6343 57.8614 92.4852 57.646C92.336 57.4307 92.1372 57.2816 91.9052 57.1657C91.6732 57.0497 91.408 56.9834 91.1263 56.9337C90.8446 56.9006 90.5794 56.884 90.3143 56.884C89.6017 56.884 89.0052 57.0331 88.5412 57.3313C88.0772 57.6295 87.812 58.0933 87.7623 58.7228H85.1937C85.2434 57.9773 85.4257 57.3479 85.7406 56.8509C86.0555 56.354 86.4532 55.9564 86.9503 55.6582C87.4309 55.3601 87.9943 55.1447 88.6075 55.0288C89.2206 54.9128 89.8503 54.8466 90.4966 54.8466C91.06 54.8466 91.6234 54.9128 92.1869 55.0288C92.7337 55.1447 93.2474 55.3435 93.6783 55.6085C94.1257 55.8736 94.4737 56.2214 94.7389 56.6521C95.004 57.0828 95.1366 57.5963 95.1366 58.2092V64.2554H95.1532ZM92.6012 61.0087C92.2034 61.2572 91.7394 61.4228 91.1594 61.4725C90.596 61.5222 90.016 61.6051 89.4526 61.7044C89.1874 61.7541 88.9223 61.8204 88.6737 61.9032C88.4252 61.9861 88.1932 62.102 87.9943 62.2345C87.7954 62.3836 87.6463 62.5658 87.5303 62.7977C87.4143 63.0296 87.3646 63.3112 87.3646 63.6425C87.3646 63.9242 87.4475 64.1726 87.6132 64.3548C87.7789 64.5536 87.9777 64.7027 88.2097 64.8187C88.4417 64.9346 88.6903 65.0174 88.972 65.0506C89.2537 65.1003 89.5023 65.1168 89.7177 65.1168C89.9995 65.1168 90.3143 65.0837 90.6457 65.0009C90.9772 64.918 91.292 64.8021 91.5737 64.6199C91.872 64.4377 92.104 64.2058 92.3029 63.9407C92.5017 63.6591 92.6012 63.3278 92.6012 62.9137V61.0087Z" fill="#B9B9B9"/>
<path d="M96.7606 55.2109H98.6994V51.7323H101.251V55.2109H103.571V57.1159H101.251V63.3112C101.251 63.5762 101.268 63.8082 101.285 64.0069C101.301 64.2057 101.367 64.3714 101.434 64.5039C101.517 64.6364 101.633 64.7358 101.798 64.8021C101.964 64.8683 102.196 64.9014 102.478 64.9014C102.66 64.9014 102.842 64.9014 103.025 64.8849C103.207 64.8849 103.389 64.8517 103.571 64.8021V66.7733C103.29 66.8064 103.008 66.8395 102.743 66.8561C102.478 66.8892 102.196 66.9058 101.914 66.9058C101.235 66.9058 100.705 66.8395 100.29 66.707C99.876 66.5745 99.5611 66.3923 99.3291 66.1438C99.0971 65.8953 98.9314 65.5806 98.8651 65.2162C98.7823 64.8352 98.7326 64.4211 98.716 63.9407V57.0828H96.7771V55.2109H96.7606Z" fill="#B9B9B9"/>
<path d="M107.416 61.6879C107.416 62.1351 107.482 62.5658 107.615 62.9965C107.747 63.4106 107.93 63.7751 108.195 64.0898C108.443 64.4045 108.775 64.653 109.156 64.8352C109.554 65.0174 110.018 65.1168 110.548 65.1168C111.294 65.1168 111.907 64.9512 112.354 64.6364C112.818 64.3217 113.15 63.8248 113.382 63.1953H115.801C115.669 63.8248 115.437 64.388 115.105 64.8849C114.774 65.3819 114.376 65.796 113.912 66.1273C113.448 66.4586 112.934 66.7236 112.354 66.8893C111.774 67.0549 111.178 67.1543 110.548 67.1543C109.637 67.1543 108.825 67.0052 108.129 66.7071C107.416 66.4089 106.836 65.9948 106.339 65.4481C105.858 64.9015 105.477 64.272 105.245 63.51C104.997 62.7646 104.881 61.9363 104.881 61.0418C104.881 60.2136 105.013 59.435 105.278 58.6896C105.543 57.9442 105.908 57.2982 106.405 56.735C106.886 56.1717 107.482 55.7245 108.162 55.3932C108.858 55.0619 109.637 54.8962 110.498 54.8962C111.41 54.8962 112.238 55.095 112.967 55.476C113.697 55.857 114.293 56.3705 114.774 57C115.254 57.6295 115.602 58.3583 115.818 59.17C116.033 59.9817 116.083 60.8265 115.983 61.7044H107.416V61.6879ZM113.382 59.9982C113.349 59.6007 113.266 59.2031 113.117 58.8221C112.967 58.4411 112.785 58.1264 112.537 57.8448C112.288 57.5632 111.99 57.3479 111.642 57.1656C111.294 57 110.896 56.9006 110.465 56.9006C110.018 56.9006 109.603 56.9834 109.239 57.1325C108.874 57.2816 108.559 57.5135 108.294 57.7785C108.029 58.0601 107.83 58.3749 107.665 58.7559C107.515 59.1369 107.416 59.5344 107.399 59.9651H113.382V59.9982Z" fill="#B9B9B9"/>
<path d="M15.1132 71.7097H15.8589L16.6543 74.0122H16.6709L17.4497 71.7097H18.1623L16.9692 74.9564C16.9194 75.089 16.8532 75.2215 16.8034 75.354C16.7537 75.4865 16.6874 75.5859 16.6046 75.6853C16.5217 75.7847 16.4389 75.8675 16.3229 75.9172C16.2069 75.9669 16.0577 76 15.8754 76C15.7097 76 15.5606 75.9835 15.4114 75.9669V75.4037C15.4612 75.4037 15.5274 75.4203 15.5772 75.4368C15.6269 75.4534 15.6766 75.4534 15.7429 75.4534C15.8257 75.4534 15.892 75.4368 15.9417 75.4203C15.9914 75.4037 16.0412 75.3706 16.0743 75.3374C16.1074 75.3043 16.1406 75.2546 16.1572 75.2049C16.1737 75.1552 16.2069 75.089 16.2234 75.0227L16.3063 74.7908L15.1132 71.7097Z" fill="#B9B9B9"/>
<path d="M21.1286 74.8736C20.88 74.8736 20.6646 74.8405 20.4657 74.7577C20.2669 74.6749 20.1177 74.5589 19.9852 74.4264C19.8526 74.2773 19.7532 74.1116 19.6869 73.9129C19.6206 73.7141 19.5875 73.4987 19.5875 73.2668C19.5875 73.0349 19.6206 72.8196 19.6869 72.6208C19.7532 72.422 19.8526 72.2564 19.9852 72.1073C20.1177 71.9582 20.2835 71.8588 20.4657 71.776C20.6646 71.6932 20.88 71.66 21.1286 71.66C21.3772 71.66 21.5926 71.6932 21.7915 71.776C21.9903 71.8588 22.1395 71.9748 22.272 72.1073C22.4046 72.2564 22.504 72.422 22.5703 72.6208C22.6366 72.8196 22.6698 73.0349 22.6698 73.2668C22.6698 73.4987 22.6366 73.7307 22.5703 73.9129C22.504 74.1116 22.4046 74.2773 22.272 74.4264C22.1395 74.5755 21.9737 74.6749 21.7915 74.7577C21.5926 74.8239 21.3772 74.8736 21.1286 74.8736ZM21.1286 74.327C21.2777 74.327 21.4103 74.2939 21.5263 74.2276C21.6423 74.1613 21.7252 74.0785 21.808 73.9791C21.8743 73.8797 21.924 73.7638 21.9738 73.6313C22.0069 73.4987 22.0235 73.3662 22.0235 73.2337C22.0235 73.1012 22.0069 72.9687 21.9738 72.8361C21.9406 72.7036 21.8909 72.5877 21.808 72.4883C21.7418 72.3889 21.6423 72.3061 21.5263 72.2398C21.4103 72.1735 21.2777 72.1404 21.1286 72.1404C20.9795 72.1404 20.8469 72.1735 20.7309 72.2398C20.6149 72.3061 20.532 72.3889 20.4492 72.4883C20.3829 72.5877 20.3332 72.7036 20.2835 72.8361C20.2503 72.9687 20.2337 73.1012 20.2337 73.2337C20.2337 73.3662 20.2503 73.4987 20.2835 73.6313C20.3166 73.7638 20.3663 73.8797 20.4492 73.9791C20.5155 74.0785 20.6149 74.1613 20.7309 74.2276C20.8469 74.2939 20.9795 74.327 21.1286 74.327Z" fill="#B9B9B9"/>
<path d="M27.144 74.7742H26.4812V74.3436H26.4646C26.3818 74.4926 26.2492 74.6252 26.1 74.708C25.9343 74.8074 25.7686 74.8405 25.6029 74.8405C25.2052 74.8405 24.9069 74.7411 24.7246 74.5423C24.5423 74.3436 24.4595 74.0454 24.4595 73.6313V71.6766H25.1389V73.565C25.1389 73.83 25.1886 74.0288 25.288 74.1282C25.3875 74.2442 25.5366 74.2939 25.7189 74.2939C25.868 74.2939 25.984 74.2773 26.0835 74.2276C26.1829 74.1779 26.2492 74.1282 26.3155 74.0454C26.3818 73.9791 26.4149 73.8797 26.448 73.7803C26.4812 73.681 26.4812 73.565 26.4812 73.449V71.66H27.1606V74.7742H27.144Z" fill="#B9B9B9"/>
<path d="M29.0497 71.7096H29.6794V72.306H29.696C29.7126 72.2231 29.7623 72.1403 29.812 72.0575C29.8617 71.9747 29.9446 71.9084 30.0274 71.8421C30.1103 71.7759 30.1931 71.7262 30.2926 71.6765C30.392 71.6434 30.4914 71.6102 30.5909 71.6102C30.6737 71.6102 30.7234 71.6102 30.7566 71.6102C30.7897 71.6102 30.8229 71.6102 30.856 71.6268V72.2728C30.8063 72.2728 30.7566 72.2563 30.7069 72.2563C30.6571 72.2563 30.6074 72.2397 30.5577 72.2397C30.4417 72.2397 30.3423 72.2563 30.2263 72.306C30.1269 72.3557 30.044 72.4219 29.9611 72.5047C29.8783 72.5876 29.8286 72.7035 29.7789 72.836C29.7291 72.9686 29.7126 73.1176 29.7126 73.2833V74.741H29.0331V71.7096H29.0497Z" fill="#B9B9B9"/>
<path d="M34.8663 71.7096H35.38V70.782H36.0595V71.7096H36.6726V72.2231H36.0595V73.8631C36.0595 73.9293 36.0595 73.9956 36.076 74.0453C36.076 74.095 36.0926 74.1447 36.1258 74.1778C36.1423 74.2109 36.1755 74.2441 36.2252 74.2606C36.2749 74.2772 36.3246 74.2938 36.4075 74.2938C36.4572 74.2938 36.5069 74.2938 36.5566 74.2938C36.6063 74.2938 36.656 74.2772 36.7058 74.2772V74.8073C36.6229 74.8073 36.5566 74.8238 36.4903 74.8238C36.424 74.8238 36.3412 74.8404 36.2749 74.8404C36.0926 74.8404 35.96 74.8238 35.844 74.7907C35.728 74.7576 35.6452 74.7079 35.5955 74.6416C35.5292 74.5754 35.496 74.4925 35.4629 74.3931C35.4463 74.2938 35.4298 74.1778 35.4298 74.0618V72.2563H34.916V71.7096H34.8663Z" fill="#B9B9B9"/>
<path d="M40.9149 74.095C40.9149 74.1778 40.9315 74.2441 40.948 74.2772C40.9646 74.3104 41.0143 74.3269 41.0806 74.3269C41.0972 74.3269 41.1303 74.3269 41.1469 74.3269C41.18 74.3269 41.2132 74.3269 41.2463 74.3104V74.7742C41.2297 74.7742 41.1966 74.7907 41.1469 74.8073C41.1137 74.8239 41.064 74.8239 41.0309 74.8404C40.9977 74.8404 40.948 74.857 40.9149 74.857C40.8817 74.857 40.8486 74.857 40.8155 74.857C40.6829 74.857 40.5669 74.8239 40.4675 74.7742C40.368 74.7245 40.3183 74.6251 40.2852 74.476C40.1526 74.6085 39.9869 74.7079 39.788 74.7576C39.5892 74.8239 39.4069 74.8404 39.2246 74.8404C39.092 74.8404 38.9595 74.8239 38.8269 74.7907C38.6943 74.7576 38.5949 74.6914 38.4955 74.6251C38.396 74.5588 38.3132 74.4594 38.2635 74.3435C38.2137 74.2275 38.1806 74.095 38.1806 73.9459C38.1806 73.7637 38.2137 73.5981 38.28 73.4821C38.3463 73.3662 38.4457 73.2668 38.5617 73.2005C38.6777 73.1343 38.7937 73.0846 38.9429 73.0514C39.0755 73.0183 39.2246 73.0017 39.3737 72.9852C39.4897 72.9686 39.6057 72.952 39.7217 72.9355C39.8377 72.9189 39.9372 72.9023 40.02 72.8858C40.1029 72.8692 40.1692 72.8195 40.2189 72.7698C40.2686 72.7201 40.2852 72.6539 40.2852 72.5545C40.2852 72.4717 40.2686 72.3888 40.2189 72.3391C40.1692 72.2894 40.1195 72.2397 40.0697 72.2066C40.0035 72.1735 39.9372 72.1569 39.8709 72.1404C39.788 72.1238 39.7217 72.1238 39.6555 72.1238C39.4732 72.1238 39.3075 72.1569 39.1915 72.2397C39.0755 72.3226 38.9926 72.4385 38.976 72.6042H38.2966C38.3132 72.4054 38.3629 72.2397 38.4457 72.1072C38.5286 71.9747 38.628 71.8753 38.7606 71.7925C38.8932 71.7097 39.0423 71.66 39.1915 71.6268C39.3572 71.5937 39.5229 71.5771 39.6886 71.5771C39.8377 71.5771 39.9869 71.5937 40.136 71.6268C40.2852 71.66 40.4177 71.7097 40.5337 71.7759C40.6497 71.8422 40.7492 71.9416 40.8155 72.0575C40.8817 72.1735 40.9149 72.306 40.9149 72.4717V74.095ZM40.2355 73.2502C40.136 73.3165 40.0035 73.3662 39.8543 73.3662C39.7052 73.3827 39.556 73.3993 39.4069 73.4324C39.3406 73.449 39.2577 73.4656 39.1915 73.4821C39.1252 73.4987 39.0589 73.5318 39.0092 73.5649C38.9595 73.5981 38.9097 73.6478 38.8932 73.714C38.86 73.7803 38.8435 73.8465 38.8435 73.9294C38.8435 74.0122 38.86 74.0619 38.9097 74.1116C38.9595 74.1613 39.0092 74.211 39.0755 74.2275C39.1417 74.2607 39.208 74.2772 39.2743 74.2938C39.3406 74.3104 39.4069 74.3104 39.4732 74.3104C39.556 74.3104 39.6223 74.2938 39.7217 74.2772C39.8046 74.2607 39.8875 74.2275 39.9703 74.1778C40.0532 74.1281 40.1195 74.0619 40.1692 73.9956C40.2189 73.9294 40.252 73.83 40.252 73.7306V73.2502H40.2355Z" fill="#B9B9B9"/>
<path d="M45.6875 74.6251C45.6875 75.0889 45.5549 75.4368 45.2897 75.6687C45.0246 75.9006 44.66 76.0165 44.1629 76.0165C44.0137 76.0165 43.848 76 43.6989 75.9669C43.5497 75.9337 43.4006 75.884 43.268 75.8012C43.1355 75.7184 43.036 75.619 42.9366 75.503C42.8537 75.3871 42.804 75.2214 42.7875 75.0558H43.4669C43.4834 75.1552 43.5166 75.2214 43.5663 75.2877C43.616 75.3539 43.6657 75.3871 43.732 75.4202C43.7983 75.4533 43.8646 75.4699 43.9475 75.4865C44.0303 75.503 44.1132 75.503 44.196 75.503C44.4777 75.503 44.6766 75.4368 44.7926 75.3043C44.9252 75.1717 44.9749 74.973 44.9749 74.7245V74.2607H44.9583C44.8589 74.4263 44.7263 74.5588 44.5606 74.6582C44.3949 74.7576 44.2126 74.8073 44.0303 74.8073C43.7817 74.8073 43.5829 74.7576 43.4006 74.6748C43.2349 74.592 43.0857 74.476 42.9697 74.3269C42.8537 74.1778 42.7709 74.0122 42.7212 73.8134C42.6714 73.6146 42.6383 73.4158 42.6383 73.1839C42.6383 72.9852 42.6714 72.7864 42.7377 72.5876C42.804 72.4054 42.8869 72.2397 43.0195 72.0907C43.1355 71.9581 43.2846 71.8422 43.4503 71.7594C43.616 71.6765 43.8149 71.6268 44.0303 71.6268C44.2292 71.6268 44.3949 71.66 44.5606 71.7428C44.7263 71.8256 44.8423 71.9581 44.9417 72.1238H44.9583V71.7097H45.6377V74.6251H45.6875ZM44.1795 74.2441C44.3286 74.2441 44.4612 74.211 44.5606 74.1447C44.66 74.0784 44.7429 73.9956 44.8092 73.8962C44.8754 73.7968 44.9252 73.6809 44.9583 73.5484C44.9914 73.4158 45.008 73.2833 45.008 73.1508C45.008 73.0183 44.9914 72.8858 44.9583 72.7698C44.9252 72.6539 44.8754 72.5379 44.8092 72.4385C44.7429 72.3391 44.66 72.2729 44.5606 72.2066C44.4612 72.1569 44.3286 72.1238 44.1795 72.1238C44.0303 72.1238 43.8977 72.1569 43.7983 72.2232C43.6989 72.2894 43.616 72.3723 43.5497 72.4716C43.4834 72.571 43.4337 72.687 43.4172 72.8195C43.384 72.952 43.3675 73.068 43.3675 73.2005C43.3675 73.333 43.384 73.449 43.4172 73.5649C43.4503 73.6809 43.5 73.7968 43.5663 73.8962C43.6326 73.9956 43.7154 74.0619 43.8149 74.1281C43.9143 74.211 44.0469 74.2441 44.1795 74.2441Z" fill="#B9B9B9"/>
<path d="M47.5766 70.5336H48.256V74.7742H47.5766V70.5336Z" fill="#B9B9B9"/>
<path d="M50.1949 70.5336H50.8743V71.1796H50.1949V70.5336ZM50.1949 71.7097H50.8743V74.7908H50.1949V71.7097Z" fill="#B9B9B9"/>
<path d="M52.8132 71.7097H53.4595V72.1569L53.476 72.1735C53.5755 72.0078 53.708 71.8753 53.8737 71.7759C54.0395 71.6765 54.2217 71.6268 54.4206 71.6268C54.752 71.6268 55.0172 71.7097 55.216 71.8919C55.4149 72.0741 55.5143 72.3226 55.5143 72.6704V74.7742H54.8349V72.8361C54.8349 72.5876 54.7686 72.4219 54.6857 72.306C54.5863 72.19 54.4372 72.1403 54.2383 72.1403C54.1223 72.1403 54.0229 72.1569 53.9235 72.2066C53.824 72.2563 53.7577 72.306 53.6915 72.3723C53.6252 72.4385 53.5755 72.5379 53.5423 72.6373C53.5092 72.7367 53.4926 72.8361 53.4926 72.952V74.7576H52.8132V71.7097Z" fill="#B9B9B9"/>
<path d="M57.9503 73.4158C57.9503 73.5318 57.9669 73.6478 58 73.7637C58.0332 73.8797 58.0829 73.9791 58.1492 74.0619C58.2154 74.1447 58.2983 74.211 58.3977 74.2607C58.4972 74.3104 58.6297 74.3269 58.7623 74.3269C58.9612 74.3269 59.1269 74.2772 59.2429 74.1944C59.3589 74.1116 59.4583 73.9791 59.508 73.8134H60.1543C60.1212 73.9791 60.0549 74.1281 59.972 74.2607C59.8892 74.3932 59.7732 74.5091 59.6572 74.592C59.5412 74.6748 59.392 74.741 59.2429 74.7907C59.0937 74.8404 58.928 74.857 58.7623 74.857C58.5137 74.857 58.2983 74.8239 58.116 74.741C57.9337 74.6582 57.768 74.5588 57.6354 74.4097C57.5029 74.2607 57.4034 74.095 57.3372 73.8962C57.2709 73.6975 57.2377 73.4821 57.2377 73.2502C57.2377 73.0349 57.2709 72.8195 57.3372 72.6207C57.4034 72.4219 57.5029 72.2563 57.6354 72.1072C57.768 71.9581 57.9172 71.8422 58.0994 71.7594C58.2817 71.6765 58.4806 71.6268 58.7126 71.6268C58.9612 71.6268 59.1766 71.6765 59.3589 71.7759C59.5577 71.8753 59.7069 72.0078 59.8394 72.1735C59.972 72.3391 60.0549 72.5379 60.1212 72.7533C60.1709 72.9686 60.1874 73.2005 60.1709 73.4158H57.9503ZM59.5246 72.9686C59.5246 72.8692 59.4914 72.7532 59.4583 72.6539C59.4252 72.5545 59.3754 72.4716 59.3092 72.3888C59.2429 72.3226 59.16 72.2563 59.0772 72.2066C58.9777 72.1569 58.8783 72.1403 58.7623 72.1403C58.6463 72.1403 58.5303 72.1569 58.4309 72.2066C58.3314 72.2563 58.2486 72.306 58.1823 72.3723C58.116 72.4385 58.0497 72.5379 58.0166 72.6373C57.9669 72.7367 57.9503 72.8361 57.9503 72.952H59.5246V72.9686Z" fill="#B9B9B9"/>
<path d="M67.5949 74.6251C67.5949 75.0889 67.4623 75.4368 67.1971 75.6687C66.932 75.9006 66.5674 76.0165 66.0703 76.0165C65.9211 76.0165 65.7554 76 65.6063 75.9669C65.4571 75.9337 65.308 75.884 65.1754 75.8012C65.0429 75.7184 64.9434 75.619 64.844 75.503C64.7611 75.3871 64.7114 75.2214 64.6949 75.0558H65.3743C65.3909 75.1552 65.424 75.2214 65.4737 75.2877C65.5234 75.3539 65.5731 75.3871 65.6394 75.4202C65.7057 75.4533 65.772 75.4699 65.8549 75.4865C65.9377 75.503 66.0206 75.503 66.1034 75.503C66.3851 75.503 66.584 75.4368 66.7 75.3043C66.8326 75.1717 66.8823 74.973 66.8823 74.7245V74.2607H66.8657C66.7663 74.4263 66.6337 74.5588 66.468 74.6582C66.3023 74.7576 66.12 74.8073 65.9377 74.8073C65.6891 74.8073 65.4903 74.7576 65.308 74.6748C65.1423 74.592 64.9931 74.476 64.8771 74.3269C64.7611 74.1778 64.6783 74.0122 64.6286 73.8134C64.5789 73.6146 64.5457 73.4158 64.5457 73.1839C64.5457 72.9852 64.5789 72.7864 64.6451 72.5876C64.7114 72.4054 64.7943 72.2397 64.9269 72.0907C65.0429 71.9581 65.192 71.8422 65.3577 71.7594C65.5234 71.6765 65.7223 71.6268 65.9377 71.6268C66.1366 71.6268 66.3023 71.66 66.468 71.7428C66.6337 71.8256 66.7497 71.9581 66.8491 72.1238H66.8657V71.7097H67.5451V74.6251H67.5949ZM66.0869 74.2441C66.236 74.2441 66.3686 74.211 66.468 74.1447C66.5674 74.0784 66.6503 73.9956 66.7166 73.8962C66.7829 73.7968 66.8326 73.6809 66.8657 73.5484C66.8989 73.4158 66.9154 73.2833 66.9154 73.1508C66.9154 73.0183 66.8989 72.8858 66.8657 72.7698C66.8326 72.6539 66.7829 72.5379 66.7166 72.4385C66.6503 72.3391 66.5674 72.2729 66.468 72.2066C66.3686 72.1569 66.236 72.1238 66.0869 72.1238C65.9377 72.1238 65.8051 72.1569 65.7057 72.2232C65.6063 72.2894 65.5234 72.3723 65.4571 72.4716C65.3909 72.571 65.3411 72.687 65.3246 72.8195C65.2914 72.952 65.2749 73.068 65.2749 73.2005C65.2749 73.333 65.2914 73.449 65.3246 73.5649C65.3577 73.6809 65.4074 73.7968 65.4737 73.8962C65.54 73.9956 65.6229 74.0619 65.7223 74.1281C65.8217 74.211 65.9543 74.2441 66.0869 74.2441Z" fill="#B9B9B9"/>
<path d="M70.876 74.8736C70.6275 74.8736 70.412 74.8405 70.2132 74.7577C70.0143 74.6749 69.8652 74.5589 69.7326 74.4264C69.6 74.2773 69.5006 74.1116 69.4343 73.9129C69.368 73.7141 69.3349 73.4987 69.3349 73.2668C69.3349 73.0349 69.368 72.8196 69.4343 72.6208C69.5006 72.422 69.6 72.2564 69.7326 72.1073C69.8652 71.9582 70.0309 71.8588 70.2132 71.776C70.412 71.6932 70.6275 71.66 70.876 71.66C71.1246 71.66 71.34 71.6932 71.5389 71.776C71.7378 71.8588 71.8869 71.9748 72.0195 72.1073C72.152 72.2564 72.2515 72.422 72.3178 72.6208C72.384 72.8196 72.4172 73.0349 72.4172 73.2668C72.4172 73.4987 72.384 73.7307 72.3178 73.9129C72.2515 74.1116 72.152 74.2773 72.0195 74.4264C71.8869 74.5755 71.7212 74.6749 71.5389 74.7577C71.34 74.8239 71.1246 74.8736 70.876 74.8736ZM70.876 74.327C71.0252 74.327 71.1578 74.2939 71.2738 74.2276C71.3898 74.1613 71.4726 74.0785 71.5555 73.9791C71.6218 73.8797 71.6715 73.7638 71.7212 73.6313C71.7543 73.4987 71.7709 73.3662 71.7709 73.2337C71.7709 73.1012 71.7543 72.9687 71.7212 72.8361C71.688 72.7036 71.6383 72.5877 71.5555 72.4883C71.4892 72.3889 71.3898 72.3061 71.2738 72.2398C71.1578 72.1735 71.0252 72.1404 70.876 72.1404C70.7269 72.1404 70.5943 72.1735 70.4783 72.2398C70.3623 72.3061 70.2795 72.3889 70.1966 72.4883C70.1303 72.5877 70.0806 72.7036 70.0309 72.8361C69.9812 72.9687 69.9812 73.1012 69.9812 73.2337C69.9812 73.3662 69.9978 73.4987 70.0309 73.6313C70.064 73.7638 70.1138 73.8797 70.1966 73.9791C70.2629 74.0785 70.3623 74.1613 70.4783 74.2276C70.5943 74.2939 70.7269 74.327 70.876 74.327Z" fill="#B9B9B9"/>
<path d="M74.7206 73.4158C74.7206 73.5318 74.7371 73.6478 74.7703 73.7637C74.8034 73.8797 74.8531 73.9791 74.9194 74.0619C74.9857 74.1447 75.0686 74.211 75.168 74.2607C75.2674 74.3104 75.4 74.3269 75.5326 74.3269C75.7314 74.3269 75.8971 74.2772 76.0131 74.1944C76.1291 74.1116 76.2286 73.9791 76.2783 73.8134H76.9246C76.8914 73.9791 76.8251 74.1281 76.7423 74.2607C76.6594 74.3932 76.5434 74.5091 76.4274 74.592C76.3114 74.6748 76.1623 74.741 76.0131 74.7907C75.864 74.8404 75.6983 74.857 75.5326 74.857C75.284 74.857 75.0686 74.8239 74.8863 74.741C74.704 74.6582 74.5383 74.5588 74.4057 74.4097C74.2731 74.2607 74.1737 74.095 74.1074 73.8962C74.0411 73.6975 74.008 73.4821 74.008 73.2502C74.008 73.0349 74.0411 72.8195 74.1074 72.6207C74.1737 72.4219 74.2731 72.2563 74.4057 72.1072C74.5383 71.9581 74.6874 71.8422 74.8697 71.7594C75.052 71.6765 75.2509 71.6268 75.4829 71.6268C75.7314 71.6268 75.9469 71.6765 76.1291 71.7759C76.328 71.8753 76.4771 72.0078 76.6097 72.1735C76.7423 72.3391 76.8251 72.5379 76.8914 72.7533C76.9411 72.9686 76.9577 73.2005 76.9411 73.4158H74.7206ZM76.2949 72.9686C76.2949 72.8692 76.2617 72.7532 76.2286 72.6539C76.1954 72.5545 76.1457 72.4716 76.0794 72.3888C76.0131 72.3226 75.9303 72.2563 75.8474 72.2066C75.748 72.1569 75.6486 72.1403 75.5326 72.1403C75.4166 72.1403 75.3006 72.1569 75.2011 72.2066C75.1017 72.2563 75.0188 72.306 74.9526 72.3723C74.8863 72.4385 74.82 72.5379 74.7868 72.6373C74.7371 72.7367 74.7206 72.8361 74.7206 72.952H76.2949V72.9686Z" fill="#B9B9B9"/>
<path d="M79.1949 73.7969C79.2114 73.9957 79.2943 74.1282 79.4269 74.211C79.5594 74.2938 79.7086 74.327 79.8909 74.327C79.9572 74.327 80.0234 74.327 80.1063 74.3104C80.1892 74.2938 80.272 74.2773 80.3383 74.2607C80.4046 74.2276 80.4709 74.1944 80.5206 74.1448C80.5703 74.0951 80.5869 74.0288 80.5869 73.9294C80.5869 73.8466 80.5537 73.7638 80.4874 73.7141C80.4212 73.6644 80.3549 73.6147 80.2554 73.5815C80.156 73.5484 80.0566 73.5153 79.9406 73.4987C79.8246 73.4822 79.7086 73.449 79.576 73.4159C79.4434 73.3828 79.3274 73.3496 79.2114 73.3165C79.0954 73.2834 78.996 73.2171 78.8966 73.1509C78.7972 73.0846 78.7309 73.0018 78.6812 72.8858C78.6314 72.7864 78.5983 72.6539 78.5983 72.4883C78.5983 72.3226 78.6314 72.1901 78.7143 72.0741C78.7972 71.9582 78.8966 71.8754 79.0292 71.7925C79.1617 71.7263 79.2943 71.6766 79.4434 71.6434C79.5926 71.6103 79.7417 71.5938 79.8743 71.5938C80.04 71.5938 80.1892 71.6103 80.3217 71.6434C80.4709 71.6766 80.6034 71.7263 80.7194 71.8091C80.8354 71.8919 80.9349 71.9747 81.0177 72.1073C81.1006 72.2232 81.1503 72.3723 81.1669 72.5379H80.4543C80.4212 72.3723 80.3549 72.2729 80.2389 72.2067C80.1229 72.157 79.9903 72.1238 79.8412 72.1238C79.7914 72.1238 79.7417 72.1238 79.6754 72.1404C79.6092 72.1404 79.5429 72.157 79.4932 72.1901C79.4434 72.2066 79.3937 72.2398 79.344 72.2895C79.3109 72.3392 79.2777 72.3889 79.2777 72.4551C79.2777 72.5379 79.3109 72.6042 79.3606 72.6539C79.4103 72.7036 79.4932 72.7533 79.5926 72.7864C79.692 72.8196 79.7914 72.8527 79.9074 72.8692C80.0234 72.8858 80.156 72.9189 80.272 72.9521C80.388 72.9852 80.5206 73.0183 80.6366 73.0515C80.7526 73.0846 80.8686 73.1509 80.9514 73.2171C81.0509 73.2834 81.1172 73.3662 81.1834 73.4656C81.2332 73.565 81.2663 73.6975 81.2663 73.8466C81.2663 74.0288 81.2166 74.1779 81.1337 74.3104C81.0509 74.4429 80.9349 74.5423 80.8023 74.6251C80.6697 74.708 80.5206 74.7577 80.3549 74.7908C80.1892 74.8239 80.0234 74.8405 79.8743 74.8405C79.6754 74.8405 79.4932 74.8239 79.344 74.7742C79.1783 74.7245 79.0292 74.6583 78.9132 74.5754C78.7972 74.4926 78.6977 74.3767 78.6314 74.2441C78.5652 74.1116 78.532 73.946 78.5154 73.7638H79.1949V73.7969Z" fill="#B9B9B9"/>
<path d="M85.8069 70.5336H86.4863V72.1072H86.5029C86.5857 71.9747 86.7183 71.8588 86.8675 71.7594C87.0332 71.66 87.2155 71.6269 87.4143 71.6269C87.7457 71.6269 88.0109 71.7097 88.2097 71.8919C88.4086 72.0741 88.508 72.3226 88.508 72.6705V74.7742H87.8286V72.8361C87.8286 72.5876 87.7623 72.422 87.6795 72.306C87.58 72.1901 87.4309 72.1404 87.232 72.1404C87.116 72.1404 87.0166 72.1569 86.9172 72.2066C86.8177 72.2563 86.7515 72.306 86.6852 72.3723C86.6189 72.4385 86.5692 72.5379 86.536 72.6373C86.5029 72.7367 86.4863 72.8361 86.4863 72.9521V74.7576H85.8069V70.5336Z" fill="#B9B9B9"/>
<path d="M90.944 73.4158C90.944 73.5318 90.9606 73.6478 90.9937 73.7637C91.0269 73.8797 91.0766 73.9791 91.1429 74.0619C91.2092 74.1447 91.292 74.211 91.3914 74.2607C91.4909 74.3104 91.6234 74.3269 91.756 74.3269C91.9549 74.3269 92.1206 74.2772 92.2366 74.1944C92.3526 74.1116 92.452 73.9791 92.5017 73.8134H93.148C93.1149 73.9791 93.0486 74.1281 92.9657 74.2607C92.8829 74.3932 92.7669 74.5091 92.6509 74.592C92.5349 74.6748 92.3857 74.741 92.2366 74.7907C92.0874 74.8404 91.9217 74.857 91.756 74.857C91.5074 74.857 91.292 74.8239 91.1097 74.741C90.9274 74.6582 90.7617 74.5588 90.6292 74.4097C90.4966 74.2607 90.3972 74.095 90.3309 73.8962C90.2646 73.6975 90.2314 73.4821 90.2314 73.2502C90.2314 73.0349 90.2646 72.8195 90.3309 72.6207C90.3972 72.4219 90.4966 72.2563 90.6292 72.1072C90.7617 71.9581 90.9109 71.8422 91.0932 71.7594C91.2754 71.6765 91.4743 71.6268 91.7063 71.6268C91.9549 71.6268 92.1703 71.6765 92.3526 71.7759C92.5514 71.8753 92.7006 72.0078 92.8332 72.1735C92.9657 72.3391 93.0486 72.5379 93.1149 72.7533C93.1646 72.9686 93.1812 73.2005 93.1646 73.4158H90.944ZM92.5183 72.9686C92.5183 72.8692 92.4852 72.7532 92.452 72.6539C92.4189 72.5545 92.3692 72.4716 92.3029 72.3888C92.2366 72.3226 92.1537 72.2563 92.0709 72.2066C91.9714 72.1569 91.872 72.1403 91.756 72.1403C91.64 72.1403 91.524 72.1569 91.4246 72.2066C91.3252 72.2563 91.2423 72.306 91.176 72.3723C91.1097 72.4385 91.0434 72.5379 91.0103 72.6373C90.9606 72.7367 90.944 72.8361 90.944 72.952H92.5183V72.9686Z" fill="#B9B9B9"/>
<path d="M94.9046 71.7096H95.5343V72.306H95.5509C95.5674 72.2231 95.6171 72.1403 95.6669 72.0575C95.7166 71.9747 95.7994 71.9084 95.8823 71.8421C95.9651 71.7759 96.048 71.7262 96.1474 71.6765C96.2469 71.6434 96.3463 71.6102 96.4457 71.6102C96.5286 71.6102 96.5783 71.6102 96.6114 71.6102C96.6446 71.6102 96.6777 71.6102 96.7109 71.6268V72.2728C96.6611 72.2728 96.6114 72.2563 96.5617 72.2563C96.512 72.2563 96.4623 72.2397 96.4126 72.2397C96.2966 72.2397 96.1971 72.2563 96.0811 72.306C95.9817 72.3557 95.8989 72.4219 95.816 72.5047C95.7331 72.5876 95.6834 72.7035 95.6337 72.836C95.584 72.9686 95.5674 73.1176 95.5674 73.2833V74.741H94.888V71.7096H94.9046Z" fill="#B9B9B9"/>
<path d="M98.6166 73.4158C98.6166 73.5318 98.6331 73.6478 98.6663 73.7637C98.6994 73.8797 98.7491 73.9791 98.8154 74.0619C98.8817 74.1447 98.9646 74.211 99.064 74.2607C99.1634 74.3104 99.296 74.3269 99.4286 74.3269C99.6274 74.3269 99.7931 74.2772 99.9091 74.1944C100.025 74.1116 100.125 73.9791 100.174 73.8134H100.821C100.787 73.9791 100.721 74.1281 100.638 74.2607C100.555 74.3932 100.439 74.5091 100.323 74.592C100.207 74.6748 100.058 74.741 99.9091 74.7907C99.76 74.8404 99.5943 74.857 99.4286 74.857C99.18 74.857 98.9646 74.8239 98.7823 74.741C98.6 74.6582 98.4343 74.5588 98.3017 74.4097C98.1691 74.2607 98.0697 74.095 98.0034 73.8962C97.9371 73.6975 97.904 73.4821 97.904 73.2502C97.904 73.0349 97.9371 72.8195 98.0034 72.6207C98.0697 72.4219 98.1691 72.2563 98.3017 72.1072C98.4343 71.9581 98.5834 71.8422 98.7657 71.7594C98.948 71.6765 99.1469 71.6268 99.3789 71.6268C99.6274 71.6268 99.8428 71.6765 100.025 71.7759C100.224 71.8753 100.373 72.0078 100.506 72.1735C100.638 72.3391 100.721 72.5379 100.787 72.7533C100.837 72.9686 100.854 73.2005 100.837 73.4158H98.6166ZM100.207 72.9686C100.207 72.8692 100.174 72.7532 100.141 72.6539C100.108 72.5545 100.058 72.4716 99.992 72.3888C99.9257 72.3226 99.8429 72.2563 99.76 72.2066C99.6606 72.1569 99.5611 72.1403 99.4451 72.1403C99.3291 72.1403 99.2131 72.1569 99.1137 72.2066C99.0143 72.2563 98.9314 72.306 98.8651 72.3723C98.7988 72.4385 98.7326 72.5379 98.6994 72.6373C98.6497 72.7367 98.6331 72.8361 98.6331 72.952H100.207V72.9686Z" fill="#B9B9B9"/>
</g>
<defs>
<clipPath id="clip0_76_11832">
<rect width="116" height="76" fill="white"/>
</clipPath>
</defs>
</svg>
