<svg width="145" height="43" viewBox="0 0 145 43" fill="none" xmlns="http://www.w3.org/2000/svg">
<path d="M30.8612 13.6508L25.1848 19.3061L27.3705 21.4837L33.0796 15.8284L30.8612 13.6508Z" fill="#EBEBEB"/>
<path d="M19.3781 25.0911L13.7017 30.7464L15.8875 32.9565L21.5639 27.2687L19.3781 25.0911Z" fill="#BBBBBB"/>
<path d="M23.7827 17.9086L29.4592 12.2208L27.2734 10.0432L21.5644 15.6985L23.7827 17.9086Z" fill="#BBBBBB"/>
<path d="M17.9748 23.6936L15.7565 21.4835L10.08 27.1713L12.2658 29.349L17.9748 23.6936Z" fill="#EBEBEB"/>
<path d="M17.9748 19.3061L12.2658 13.6508L10.08 15.8284L15.7565 21.4837L17.9748 19.3061Z" fill="#EBEBEB"/>
<path d="M19.3781 17.9086L21.5639 15.6985L15.8875 10.0432L13.7017 12.2208L19.3781 17.9086Z" fill="#BBBBBB"/>
<path d="M25.1848 23.6936L30.8612 29.349L33.0796 27.1713L27.3705 21.4835L25.1848 23.6936Z" fill="#EBEBEB"/>
<path d="M29.4592 30.7464L23.7827 25.0911L21.5644 27.2687L27.2734 32.9565L29.4592 30.7464Z" fill="#BBBBBB"/>
<path d="M29.4587 35.1345L27.2729 32.9569L21.5639 38.6122L15.8875 32.9569L13.7017 35.1345L21.5639 43L29.4587 35.1345Z" fill="#BBBBBB"/>
<path d="M10.0805 15.8284L7.89478 13.6508L0 21.4837L7.89478 29.3491L10.0805 27.1715L4.40412 21.4837L10.0805 15.8284Z" fill="#EBEBEB"/>
<path d="M35.2651 13.6508L33.0793 15.8284L38.7557 21.4837L33.0793 27.1715L35.2651 29.3491L43.1599 21.4837L35.2651 13.6508Z" fill="#EBEBEB"/>
<path d="M27.2729 10.043L29.4587 7.86544L21.5639 0L13.7017 7.86544L15.8875 10.043L21.5639 4.38774L27.2729 10.043Z" fill="#BBBBBB"/>
<path d="M60.6875 21.6042C61.3803 21.052 61.9345 20.2237 62.1424 19.1884V19.1194L60.6875 18.7743V18.8433C60.4797 19.6026 60.2026 20.2238 59.7176 20.6379C59.2327 21.052 58.6092 21.2591 57.9164 21.2591C57.3622 21.2591 56.808 21.121 56.323 20.8449C55.8381 20.5689 55.4917 20.0857 55.2146 19.5335C54.9375 18.9124 54.8682 18.2222 54.8682 17.4629C54.8682 16.8417 54.9375 16.2206 55.1453 15.6684C55.3531 15.1163 55.6995 14.6331 56.1845 14.288C56.6694 13.9429 57.2929 13.8049 57.9857 13.8049C58.6092 13.8049 59.1634 13.9429 59.5791 14.288C59.9948 14.5641 60.3412 15.0472 60.549 15.7374V15.8065L62.0038 15.4614V15.3923C61.7267 14.4951 61.2418 13.8049 60.549 13.3217C59.8562 12.8386 59.0249 12.5625 58.055 12.5625C57.1544 12.5625 56.3923 12.7696 55.6302 13.1147C54.9375 13.5288 54.314 14.0809 53.9676 14.8402C53.5519 15.5994 53.3441 16.4966 53.3441 17.4629C53.3441 18.3602 53.5519 19.2575 53.8983 20.0857C54.2447 20.914 54.7989 21.5351 55.4224 21.9493C56.1152 22.3634 56.9465 22.5705 58.055 22.5705C59.0941 22.4324 59.9948 22.1563 60.6875 21.6042Z" fill="#BBBBBB"/>
<path d="M75.6505 20.085C76.0662 19.3258 76.274 18.4285 76.274 17.4622C76.274 16.4959 76.0662 15.6677 75.7198 14.8394C75.3041 14.0802 74.7499 13.459 74.0571 13.0449C73.295 12.6308 72.4637 12.4237 71.5631 12.4237C70.1776 12.4237 68.9998 12.9068 68.0992 13.8041C67.1986 14.7014 66.7829 16.0128 66.7829 17.6002C66.7829 18.4285 66.9908 19.2567 67.3372 20.016C67.6835 20.7752 68.307 21.3964 68.9998 21.8105C69.7619 22.2246 70.5932 22.5007 71.4938 22.5007C72.3944 22.5007 73.1565 22.2936 73.9186 21.8795C74.6114 21.4654 75.2349 20.8442 75.6505 20.085ZM71.4938 21.1893C70.5932 21.1893 69.7619 20.8442 69.1384 20.223C68.5149 19.6018 68.2378 18.7046 68.2378 17.5312C68.2378 16.1508 68.5842 15.1155 69.2077 14.4943C69.8312 13.8731 70.5932 13.5971 71.4938 13.5971C72.1173 13.5971 72.6716 13.7351 73.2258 14.0802C73.7108 14.3563 74.1264 14.8394 74.3342 15.3916C74.6113 15.9437 74.7499 16.634 74.7499 17.3932C74.7499 18.5665 74.4728 19.5328 73.8493 20.154C73.2258 20.8442 72.3944 21.1893 71.4938 21.1893Z" fill="#BBBBBB"/>
<path d="M90.7542 12.7001H89.3687V22.4319H90.7542V12.7001Z" fill="#BBBBBB"/>
<path d="M86.6679 22.4317L88.8848 16.2889V12.8378L86.5293 19.4638C86.3215 20.016 86.183 20.4301 86.1137 20.7752L85.698 19.6018L83.3426 12.7688H83.204V16.2889L85.3516 22.5007H86.6679V22.4317Z" fill="#BBBBBB"/>
<path d="M82.6492 12.7001H81.2637V22.4319H82.6492V12.7001Z" fill="#BBBBBB"/>
<path d="M102.601 17.6696C103.155 17.1174 103.432 16.3581 103.432 15.5299C103.432 15.0468 103.363 14.5636 103.155 14.2185C102.947 13.8044 102.67 13.4593 102.324 13.2522C101.977 13.0452 101.562 12.8381 101.077 12.7691C100.73 12.7001 100.245 12.7001 99.5525 12.7001H97.7513V14.0114H99.6218C100.176 14.0114 100.592 14.0115 100.8 14.0805C101.146 14.1495 101.354 14.3566 101.562 14.6326C101.769 14.9087 101.839 15.2538 101.839 15.5989C101.839 16.1511 101.7 16.4962 101.354 16.8413C101.007 17.1174 100.453 17.2554 99.6218 17.2554H97.682V18.5668H99.6218C101.077 18.5668 102.116 18.2907 102.601 17.6696Z" fill="#BBBBBB"/>
<path d="M97.2669 12.7001H95.812V22.4319H97.2669V12.7001Z" fill="#BBBBBB"/>
<path d="M113.825 12.7001H112.301L108.49 22.4319H110.015L110.43 21.3276L111.539 18.3598L111.747 17.7386L112.578 15.5989C112.786 15.1158 112.924 14.6326 112.994 14.1495C113.132 14.6326 113.34 15.1848 113.617 15.806L114.587 18.3598H112.093L111.677 19.5331H115.072L116.18 22.4319H117.843L113.825 12.7001Z" fill="#BBBBBB"/>
<path d="M129.204 19.9472V22.4319H130.658V12.7001H129.273V20.0162L129.204 19.9472Z" fill="#BBBBBB"/>
<path d="M124.216 12.7001H122.83V22.4319H124.216V12.7001Z" fill="#BBBBBB"/>
<path d="M128.719 19.1879L124.7 13.3903V15.806L128.719 21.6727V19.1879Z" fill="#BBBBBB"/>
<path d="M143.266 12.7001L141.326 15.5299C140.98 16.0821 140.633 16.6342 140.356 17.1174L139.525 18.3598V22.4319H140.98V18.3598L144.929 12.7691H143.266V12.7001Z" fill="#BBBBBB"/>
<path d="M139.456 15.6679L137.516 12.7001H135.715L139.248 17.8766L140.079 16.6342L139.456 15.6679Z" fill="#BBBBBB"/>
<path d="M54.9386 30.3006V27.2637H55.9084V26.7805H53.4144V27.2637H54.3843V30.3006H54.9386Z" fill="#BBBBBB"/>
<path d="M60.2015 26.7805H59.7859L58.4696 30.3006H59.0238L59.3009 29.5413H60.6172L60.8943 30.3006H61.4485L60.2015 26.7805ZM59.5087 29.0582L59.9937 27.5398L60.4786 29.0582H59.5087Z" fill="#BBBBBB"/>
<path d="M65.3979 27.54C65.4672 27.471 65.5365 27.402 65.6057 27.333C65.675 27.264 65.8136 27.2639 65.9521 27.2639C66.0907 27.2639 66.2985 27.333 66.3678 27.402C66.5064 27.471 66.5756 27.6091 66.5756 27.7471H67.1299C67.0606 27.471 66.922 27.195 66.7142 26.9879C66.5064 26.7808 66.2292 26.7118 65.8829 26.7118C65.6057 26.7118 65.3979 26.7808 65.1901 26.9188C64.9822 27.0569 64.8437 27.195 64.7744 27.333C64.7051 27.402 64.7051 27.5401 64.6359 27.6781C64.6359 27.8161 64.5666 28.0922 64.5666 28.5063C64.5666 28.9204 64.5666 29.1965 64.6359 29.3346C64.6359 29.4036 64.6359 29.4726 64.7051 29.5416C64.7051 29.6106 64.7744 29.6106 64.7744 29.6797C64.8437 29.8177 64.9822 29.9558 65.1901 30.0938C65.3979 30.2318 65.6057 30.3009 65.8829 30.3009C66.2292 30.3009 66.5756 30.1628 66.7835 29.9558C66.9913 29.7487 67.1299 29.4036 67.1299 29.0585V28.3683H65.8829V28.8514H66.5756V29.0585C66.5756 29.2656 66.5064 29.4726 66.3678 29.6107C66.2293 29.7487 66.0907 29.8177 65.8829 29.8177C65.7443 29.8177 65.675 29.8177 65.5365 29.7487C65.4672 29.6797 65.3979 29.6106 65.3286 29.5416C65.2594 29.4726 65.1901 29.3346 65.1901 29.2656C65.1901 29.1275 65.1208 28.9205 65.1208 28.5754C65.1208 28.2302 65.1208 28.0232 65.1901 27.8851C65.2594 27.7471 65.3286 27.6091 65.3979 27.54Z" fill="#BBBBBB"/>
<path d="M70.8016 26.7805V30.3006H73.0185V29.8174H71.2866V26.7805H70.8016Z" fill="#BBBBBB"/>
<path d="M77.1064 26.7805H76.5522V30.3006H77.1064V26.7805Z" fill="#BBBBBB"/>
<path d="M81.3335 27.8158L82.9269 30.3006H83.4118V26.7805H82.9269V29.3343H82.8576L81.2642 26.7805H80.7793V30.3006H81.3335V27.8158Z" fill="#BBBBBB"/>
<path d="M89.4385 27.3327V26.7805H87.1523V30.3006H89.4385V29.8174H87.7065V28.7821H89.1614V28.299H87.7065V27.3327H89.4385Z" fill="#BBBBBB"/>
<path d="M97.0591 29.5413C97.0591 29.6104 97.1284 29.6104 97.1284 29.6794C97.1976 29.8174 97.3362 29.9555 97.544 30.0935C97.7518 30.2316 97.9597 30.3006 98.2368 30.3006C98.5832 30.3006 98.9296 30.1625 99.1374 29.9555C99.3452 29.7484 99.4838 29.4033 99.4838 29.0582V28.368H98.2368V28.8511H98.9296V29.0582C98.9296 29.2653 98.8603 29.4723 98.7217 29.6104C98.5832 29.7484 98.4446 29.8174 98.2368 29.8174C98.0982 29.8174 98.029 29.8174 97.8904 29.7484C97.8211 29.6794 97.7518 29.6104 97.6826 29.5413C97.6133 29.4723 97.544 29.3343 97.544 29.2653C97.544 29.1272 97.4747 28.9202 97.4747 28.5751C97.4747 28.23 97.4747 28.0229 97.544 27.8849C97.544 27.7468 97.6133 27.6778 97.6826 27.6088C97.7518 27.5398 97.8211 27.4707 97.8904 27.4017C97.9597 27.3327 98.0982 27.3327 98.2368 27.3327C98.3753 27.3327 98.5832 27.4017 98.6524 27.4707C98.791 27.5397 98.8603 27.6778 98.8603 27.8158H99.4145C99.3452 27.5397 99.2067 27.2637 98.9988 27.0566C98.791 26.8496 98.5139 26.7805 98.1675 26.7805C97.8904 26.7805 97.6826 26.8496 97.4747 26.9876C97.2669 27.1257 97.1283 27.2637 97.0591 27.4017C96.9898 27.4707 96.9898 27.6088 96.9205 27.7468C96.9205 27.8849 96.8512 28.161 96.8512 28.5751C96.8512 28.9892 96.8512 29.2653 96.9205 29.4033C96.9898 29.4723 96.9898 29.5413 97.0591 29.5413Z" fill="#BBBBBB"/>
<path d="M103.016 29.5416C103.016 29.6106 103.086 29.6106 103.086 29.6797C103.155 29.8177 103.294 29.9558 103.501 30.0938C103.709 30.2318 103.917 30.3009 104.194 30.3009C104.471 30.3009 104.679 30.2318 104.887 30.0938C105.095 29.9558 105.233 29.8177 105.303 29.6797C105.372 29.6106 105.372 29.4726 105.441 29.3346C105.441 29.1965 105.441 28.9204 105.441 28.5063C105.441 28.0922 105.441 27.8161 105.441 27.6781C105.441 27.5401 105.372 27.402 105.303 27.333C105.233 27.195 105.095 27.0569 104.887 26.9188C104.679 26.7808 104.471 26.7118 104.194 26.7118C103.917 26.7118 103.709 26.7808 103.501 26.9188C103.294 27.0569 103.155 27.195 103.086 27.333C103.016 27.402 103.016 27.5401 102.947 27.6781C102.947 27.8161 102.878 28.0922 102.878 28.5063C102.878 28.9204 102.878 29.1965 102.947 29.3346C103.016 29.4726 103.016 29.5416 103.016 29.5416ZM103.501 27.8851C103.501 27.7471 103.571 27.6781 103.64 27.609C103.709 27.54 103.778 27.471 103.848 27.402C103.917 27.333 104.056 27.333 104.194 27.333C104.333 27.333 104.402 27.333 104.541 27.402C104.61 27.471 104.679 27.54 104.748 27.609C104.818 27.6781 104.887 27.8161 104.887 27.8851C104.887 28.0232 104.956 28.2302 104.956 28.5754C104.956 28.9205 104.956 29.1275 104.887 29.2656C104.887 29.4036 104.818 29.4726 104.748 29.5416C104.679 29.6106 104.61 29.6797 104.541 29.7487C104.471 29.8177 104.333 29.8177 104.194 29.8177C104.056 29.8177 103.986 29.8177 103.848 29.7487C103.778 29.6797 103.709 29.6106 103.64 29.5416C103.571 29.4726 103.501 29.3346 103.501 29.2656C103.501 29.1275 103.432 28.9205 103.432 28.5754C103.501 28.2302 103.501 27.9542 103.501 27.8851Z" fill="#BBBBBB"/>
<path d="M111.33 27.3327V26.7805H109.113V30.3006H111.33V29.8174H109.598V28.7821H111.053V28.299H109.598V27.3327H111.33Z" fill="#BBBBBB"/>
<path d="M115.901 29.8177C115.485 29.8177 115.208 29.6797 114.931 29.4726L114.585 29.8867C114.931 30.2318 115.416 30.3699 115.901 30.3699C116.732 30.3699 117.148 30.0248 117.148 29.3346C117.148 29.0585 117.079 28.8514 116.94 28.6444C116.802 28.4373 116.525 28.3683 116.178 28.2993C116.04 28.2993 115.901 28.2302 115.763 28.2302C115.555 28.2302 115.485 28.1612 115.416 28.0232C115.347 27.9542 115.278 27.8161 115.278 27.7471C115.278 27.6091 115.347 27.471 115.485 27.333C115.624 27.264 115.763 27.1949 115.901 27.1949C116.247 27.1949 116.525 27.2639 116.802 27.471L117.079 27.0569C116.732 26.8498 116.386 26.7118 115.901 26.7118C115.555 26.7118 115.278 26.7808 115.07 26.9879C114.862 27.195 114.793 27.402 114.793 27.7471C114.793 28.0232 114.862 28.2303 115.07 28.3683C115.208 28.5754 115.485 28.6444 115.763 28.7134C115.901 28.7134 116.109 28.7824 116.247 28.7824C116.525 28.8514 116.732 28.9895 116.732 29.2656C116.525 29.6797 116.317 29.8177 115.901 29.8177Z" fill="#BBBBBB"/>
<path d="M127.263 30.3006V26.7805H126.778V28.299H125.323V26.7805H124.838V30.3006H125.323V28.7821H126.778V30.3006H127.263Z" fill="#BBBBBB"/>
<path d="M133.292 27.3327V26.7805H131.006V30.3006H133.292V29.8174H131.56V28.7821H133.015V28.299H131.56V27.3327H133.292Z" fill="#BBBBBB"/>
<path d="M139.178 27.8155C139.178 27.4704 139.04 27.2634 138.832 27.0563C138.624 26.9183 138.416 26.8492 138.139 26.8492H136.754V30.3693H137.308V28.8508H138.001L138.763 30.3693H139.386L138.555 28.7818C138.971 28.5747 139.178 28.2986 139.178 27.8155ZM138.555 28.1606C138.486 28.2986 138.278 28.2987 138.07 28.3677H137.239V27.3324H138.07C138.209 27.3324 138.347 27.4014 138.486 27.4704C138.624 27.5394 138.694 27.6775 138.694 27.8845C138.694 27.9536 138.624 28.0916 138.555 28.1606Z" fill="#BBBBBB"/>
<path d="M145 27.3327V26.7805H142.783V30.3006H145V29.8174H143.268V28.7821H144.792V28.299H143.268V27.3327H145Z" fill="#BBBBBB"/>
</svg>
