<svg width="73" height="68" viewBox="0 0 73 68" fill="none" xmlns="http://www.w3.org/2000/svg">
<path d="M20.6716 1.87715C20.6716 2.24829 20.5616 2.6111 20.3554 2.9197C20.1492 3.22829 19.8561 3.46881 19.5132 3.61084C19.1703 3.75287 18.793 3.79003 18.429 3.71763C18.065 3.64522 17.7306 3.4665 17.4682 3.20406C17.2057 2.94162 17.027 2.60725 16.9546 2.24324C16.8822 1.87923 16.9194 1.50192 17.0614 1.15903C17.2034 0.816137 17.4439 0.523062 17.7525 0.316866C18.0611 0.110669 18.4239 0.000612499 18.7951 0.000612499C19.0416 0.000239243 19.2858 0.0485225 19.5136 0.142695C19.7415 0.236868 19.9485 0.375078 20.1228 0.549405C20.2972 0.723731 20.4354 0.930747 20.5295 1.15859C20.6237 1.38643 20.672 1.63061 20.6716 1.87715Z" fill="#E3E3E3"/>
<path d="M29.6085 1.87715C29.6085 2.24841 29.4984 2.61133 29.2921 2.91999C29.0857 3.22864 28.7925 3.46916 28.4494 3.61111C28.1064 3.75306 27.7289 3.79005 27.3648 3.71742C27.0007 3.64478 26.6664 3.46578 26.4041 3.20305C26.1417 2.94033 25.9632 2.6057 25.8912 2.2415C25.8191 1.8773 25.8566 1.4999 25.9991 1.15706C26.1416 0.81422 26.3825 0.521342 26.6915 0.315487C27.0005 0.109632 27.3635 5.16713e-05 27.7348 0.000612494C27.9811 0.000612212 28.225 0.0491707 28.4525 0.14351C28.68 0.23785 28.8867 0.376119 29.0607 0.550409C29.2347 0.724698 29.3727 0.931588 29.4667 1.15924C29.5607 1.3869 29.6089 1.63085 29.6085 1.87715Z" fill="#E3E3E3"/>
<path d="M47.4845 1.87715C47.4845 2.24829 47.3744 2.6111 47.1682 2.9197C46.962 3.22829 46.669 3.46881 46.3261 3.61084C45.9832 3.75287 45.6059 3.79003 45.2419 3.71763C44.8779 3.64522 44.5435 3.4665 44.281 3.20406C44.0186 2.94162 43.8399 2.60725 43.7675 2.24324C43.6951 1.87923 43.7322 1.50192 43.8743 1.15903C44.0163 0.816137 44.2568 0.523062 44.5654 0.316866C44.874 0.110669 45.2368 0.000612499 45.608 0.000612499C45.8545 0.000239243 46.0987 0.0485225 46.3265 0.142695C46.5544 0.236868 46.7614 0.375078 46.9357 0.549405C47.11 0.723731 47.2482 0.930747 47.3424 1.15859C47.4366 1.38643 47.4849 1.63061 47.4845 1.87715Z" fill="#E3E3E3"/>
<path d="M56.4214 1.87715C56.4214 2.24841 56.3112 2.61133 56.1049 2.91999C55.8986 3.22864 55.6054 3.46916 55.2623 3.61111C54.9192 3.75306 54.5418 3.79005 54.1777 3.71742C53.8136 3.64478 53.4793 3.46578 53.2169 3.20305C52.9546 2.94033 52.7761 2.6057 52.704 2.2415C52.6319 1.8773 52.6695 1.4999 52.812 1.15706C52.9544 0.81422 53.1954 0.521342 53.5044 0.315487C53.8133 0.109632 54.1764 5.16713e-05 54.5477 0.000612494C54.794 0.000612212 55.0379 0.0491707 55.2654 0.14351C55.4929 0.23785 55.6996 0.376119 55.8736 0.550409C56.0476 0.724698 56.1856 0.931588 56.2796 1.15924C56.3736 1.3869 56.4218 1.63085 56.4214 1.87715Z" fill="#E3E3E3"/>
<path d="M20.6716 10.8854C20.6716 11.2566 20.5616 11.6194 20.3554 11.928C20.1492 12.2366 19.8561 12.4771 19.5132 12.6191C19.1703 12.7612 18.793 12.7983 18.429 12.7259C18.065 12.6535 17.7306 12.4748 17.4682 12.2124C17.2057 11.9499 17.027 11.6156 16.9546 11.2515C16.8822 10.8875 16.9194 10.5102 17.0614 10.1673C17.2034 9.82444 17.4439 9.53136 17.7525 9.32517C18.0611 9.11897 18.4239 9.00891 18.7951 9.00891C19.0416 9.00854 19.2858 9.05682 19.5136 9.151C19.7415 9.24517 19.9485 9.38338 20.1228 9.5577C20.2972 9.73203 20.4354 9.93905 20.5295 10.1669C20.6237 10.3947 20.672 10.6389 20.6716 10.8854Z" fill="#E3E3E3"/>
<path d="M29.6085 10.8854C29.6085 11.2567 29.4984 11.6196 29.2921 11.9283C29.0857 12.2369 28.7925 12.4775 28.4494 12.6194C28.1064 12.7614 27.7289 12.7984 27.3648 12.7257C27.0007 12.6531 26.6664 12.4741 26.4041 12.2114C26.1417 11.9486 25.9632 11.614 25.8912 11.2498C25.8191 10.8856 25.8566 10.5082 25.9991 10.1654C26.1416 9.82252 26.3825 9.52964 26.6915 9.32379C27.0005 9.11793 27.3635 9.00835 27.7348 9.00891C27.9811 9.00891 28.225 9.05747 28.4525 9.15181C28.68 9.24615 28.8867 9.38442 29.0607 9.55871C29.2347 9.733 29.3727 9.93989 29.4667 10.1675C29.5607 10.3952 29.6089 10.6392 29.6085 10.8854Z" fill="#E3E3E3"/>
<path d="M56.4214 10.8854C56.4214 11.2567 56.3112 11.6196 56.1049 11.9283C55.8986 12.2369 55.6054 12.4775 55.2623 12.6194C54.9192 12.7614 54.5418 12.7984 54.1777 12.7257C53.8136 12.6531 53.4793 12.4741 53.2169 12.2114C52.9546 11.9486 52.7761 11.614 52.704 11.2498C52.6319 10.8856 52.6695 10.5082 52.812 10.1654C52.9544 9.82252 53.1954 9.52964 53.5044 9.32379C53.8133 9.11793 54.1764 9.00835 54.5477 9.00891C54.794 9.00891 55.0379 9.05747 55.2654 9.15181C55.4929 9.24615 55.6996 9.38442 55.8736 9.55871C56.0476 9.733 56.1856 9.93989 56.2796 10.1675C56.3736 10.3952 56.4218 10.6392 56.4214 10.8854Z" fill="#E3E3E3"/>
<path d="M20.6716 19.8944C20.6716 20.2655 20.5616 20.6283 20.3554 20.9369C20.1492 21.2455 19.8561 21.486 19.5132 21.6281C19.1703 21.7701 18.793 21.8072 18.429 21.7348C18.065 21.6624 17.7306 21.4837 17.4682 21.2213C17.2057 20.9588 17.027 20.6245 16.9546 20.2605C16.8822 19.8964 16.9194 19.5191 17.0614 19.1762C17.2034 18.8333 17.4439 18.5403 17.7525 18.3341C18.0611 18.1279 18.4239 18.0178 18.7951 18.0178C19.0416 18.0175 19.2858 18.0657 19.5136 18.1599C19.7415 18.2541 19.9485 18.3923 20.1228 18.5666C20.2972 18.7409 20.4354 18.948 20.5295 19.1758C20.6237 19.4036 20.672 19.6478 20.6716 19.8944Z" fill="#E3E3E3"/>
<path d="M19.3106 28.903H18.2816V37.9115H19.3106V28.903Z" fill="#B9B9B9"/>
<path d="M28.2486 19.894H27.2196V37.9111H28.2486V19.894Z" fill="#B9B9B9"/>
<path d="M37.1855 1.87695H36.1565V37.9138H37.1855V1.87695Z" fill="#B9B9B9"/>
<path d="M46.1235 10.8857H45.0945V37.9113H46.1235V10.8857Z" fill="#B9B9B9"/>
<path d="M55.0637 19.894H54.0347V37.9111H55.0637V19.894Z" fill="#B9B9B9"/>
<path d="M34.7968 10.8854C34.7968 11.2566 34.9068 11.6194 35.113 11.928C35.3192 12.2366 35.6123 12.4771 35.9552 12.6191C36.2981 12.7612 36.6754 12.7983 37.0394 12.7259C37.4034 12.6535 37.7378 12.4748 38.0002 12.2124C38.2626 11.9499 38.4414 11.6156 38.5138 11.2515C38.5862 10.8875 38.549 10.5102 38.407 10.1673C38.265 9.82444 38.0244 9.53136 37.7158 9.32517C37.4072 9.11897 37.0444 9.00891 36.6733 9.00891C36.4268 9.00854 36.1826 9.05682 35.9547 9.151C35.7269 9.24517 35.5199 9.38338 35.3455 9.5577C35.1712 9.73203 35.033 9.93905 34.9388 10.1669C34.8447 10.3947 34.7964 10.6389 34.7968 10.8854Z" fill="#B9B9B9"/>
<path d="M25.8588 19.8944C25.8588 20.2655 25.9688 20.6283 26.175 20.9369C26.3812 21.2455 26.6743 21.486 27.0172 21.6281C27.3601 21.7701 27.7374 21.8072 28.1014 21.7348C28.4654 21.6624 28.7998 21.4837 29.0622 21.2213C29.3246 20.9588 29.5034 20.6245 29.5758 20.2605C29.6482 19.8964 29.611 19.5191 29.469 19.1762C29.327 18.8333 29.0864 18.5403 28.7778 18.3341C28.4692 18.1279 28.1064 18.0178 27.7353 18.0178C27.4888 18.0175 27.2446 18.0657 27.0167 18.1599C26.7889 18.2541 26.5819 18.3923 26.4076 18.5666C26.2332 18.7409 26.095 18.948 26.0008 19.1758C25.9067 19.4036 25.8584 19.6478 25.8588 19.8944Z" fill="#B9B9B9"/>
<path d="M34.7968 19.8944C34.7968 20.2655 34.9068 20.6283 35.113 20.9369C35.3192 21.2455 35.6123 21.486 35.9552 21.6281C36.2981 21.7701 36.6754 21.8072 37.0394 21.7348C37.4034 21.6624 37.7378 21.4837 38.0002 21.2213C38.2626 20.9588 38.4414 20.6245 38.5138 20.2605C38.5862 19.8964 38.549 19.5191 38.407 19.1762C38.265 18.8333 38.0244 18.5403 37.7158 18.3341C37.4072 18.1279 37.0444 18.0178 36.6733 18.0178C36.4268 18.0175 36.1826 18.0657 35.9547 18.1599C35.7269 18.2541 35.5199 18.3923 35.3455 18.5666C35.1712 18.7409 35.033 18.948 34.9388 19.1758C34.8447 19.4036 34.7964 19.6478 34.7968 19.8944Z" fill="#B9B9B9"/>
<path d="M52.6716 19.8944C52.6716 20.2655 52.7817 20.6283 52.9879 20.9369C53.1941 21.2455 53.4872 21.486 53.8301 21.6281C54.1729 21.7701 54.5503 21.8072 54.9143 21.7348C55.2783 21.6624 55.6126 21.4837 55.8751 21.2213C56.1375 20.9588 56.3162 20.6245 56.3886 20.2605C56.4611 19.8964 56.4239 19.5191 56.2819 19.1762C56.1398 18.8333 55.8993 18.5403 55.5907 18.3341C55.2821 18.1279 54.9193 18.0178 54.5482 18.0178C54.3016 18.0175 54.0574 18.0657 53.8296 18.1599C53.6018 18.2541 53.3948 18.3923 53.2204 18.5666C53.0461 18.7409 52.9079 18.948 52.8137 19.1758C52.7195 19.4036 52.6713 19.6478 52.6716 19.8944Z" fill="#B9B9B9"/>
<path d="M16.9208 28.9142C16.9202 29.2856 17.0299 29.6488 17.2358 29.9578C17.4418 30.2669 17.7349 30.5078 18.0779 30.6502C18.4209 30.7926 18.7984 30.83 19.1627 30.7577C19.527 30.6854 19.8616 30.5066 20.1242 30.244C20.3868 29.9814 20.5656 29.6467 20.6379 29.2825C20.7102 28.9182 20.6728 28.5406 20.5305 28.1976C20.3881 27.8546 20.1471 27.5616 19.8381 27.3556C19.5291 27.1496 19.1659 27.04 18.7945 27.0405C18.2978 27.0413 17.8216 27.2389 17.4704 27.5902C17.1192 27.9414 16.9215 28.4175 16.9208 28.9142Z" fill="#B9B9B9"/>
<path d="M25.8588 28.9142C25.8582 29.2855 25.9678 29.6486 26.1736 29.9575C26.3795 30.2665 26.6724 30.5075 27.0152 30.6499C27.3581 30.7924 27.7354 30.83 28.0996 30.7579C28.4638 30.6858 28.7985 30.5073 29.0612 30.245C29.3239 29.9827 29.5029 29.6483 29.5756 29.2842C29.6482 28.9201 29.6112 28.5427 29.4693 28.1996C29.3273 27.8565 29.0868 27.5633 28.7781 27.357C28.4695 27.1507 28.1066 27.0405 27.7353 27.0405C27.2381 27.0405 26.7612 27.2378 26.4094 27.5891C26.0575 27.9405 25.8595 28.417 25.8588 28.9142Z" fill="#B9B9B9"/>
<path d="M34.7968 28.9142C34.7962 29.2855 34.9058 29.6486 35.1116 29.9575C35.3175 30.2665 35.6104 30.5075 35.9532 30.6499C36.296 30.7924 36.6734 30.83 37.0376 30.7579C37.4018 30.6858 37.7365 30.5073 37.9992 30.245C38.2619 29.9827 38.4409 29.6483 38.5136 29.2842C38.5862 28.9201 38.5492 28.5427 38.4073 28.1996C38.2653 27.8565 38.0248 27.5633 37.7161 27.357C37.4075 27.1507 37.0446 27.0405 36.6733 27.0405C36.1761 27.0405 35.6992 27.2378 35.3474 27.5891C34.9955 27.9405 34.7975 28.417 34.7968 28.9142Z" fill="#B9B9B9"/>
<path d="M43.7336 28.9142C43.7331 29.2856 43.8427 29.6488 44.0487 29.9578C44.2547 30.2669 44.5477 30.5078 44.8907 30.6502C45.2338 30.7926 45.6113 30.83 45.9756 30.7577C46.3398 30.6854 46.6745 30.5066 46.9371 30.244C47.1997 29.9814 47.3785 29.6467 47.4508 29.2825C47.5231 28.9182 47.4857 28.5406 47.3433 28.1976C47.2009 27.8546 46.96 27.5616 46.651 27.3556C46.3419 27.1496 45.9787 27.04 45.6073 27.0405C45.1106 27.0413 44.6345 27.2389 44.2833 27.5902C43.932 27.9414 43.7344 28.4175 43.7336 28.9142Z" fill="#B9B9B9"/>
<path d="M52.6716 28.9142C52.6711 29.2855 52.7807 29.6486 52.9865 29.9575C53.1924 30.2665 53.4852 30.5075 53.8281 30.6499C54.1709 30.7924 54.5483 30.83 54.9125 30.7579C55.2767 30.6858 55.6114 30.5073 55.8741 30.245C56.1368 29.9827 56.3158 29.6483 56.3884 29.2842C56.4611 28.9201 56.4241 28.5427 56.2821 28.1996C56.1402 27.8565 55.8997 27.5633 55.591 27.357C55.2824 27.1507 54.9194 27.0405 54.5482 27.0405C54.051 27.0405 53.5741 27.2378 53.2223 27.5891C52.8704 27.9405 52.6724 28.417 52.6716 28.9142Z" fill="#B9B9B9"/>
<path d="M16.9208 37.9114C16.9202 38.2828 17.0299 38.646 17.2358 38.955C17.4418 39.2641 17.7349 39.505 18.0779 39.6474C18.4209 39.7898 18.7984 39.8272 19.1627 39.7549C19.527 39.6826 19.8616 39.5038 20.1242 39.2412C20.3868 38.9786 20.5656 38.6439 20.6379 38.2797C20.7102 37.9154 20.6728 37.5378 20.5305 37.1948C20.3881 36.8518 20.1471 36.5588 19.8381 36.3528C19.5291 36.1468 19.1659 36.0372 18.7945 36.0377C18.2978 36.0385 17.8216 36.2361 17.4704 36.5873C17.1192 36.9386 16.9215 37.4147 16.9208 37.9114Z" fill="#B9B9B9"/>
<path d="M25.8588 37.9114C25.8582 38.2827 25.9678 38.6458 26.1736 38.9547C26.3795 39.2637 26.6724 39.5047 27.0152 39.6471C27.3581 39.7896 27.7354 39.8272 28.0996 39.7551C28.4638 39.683 28.7985 39.5045 29.0612 39.2422C29.3239 38.9798 29.5029 38.6455 29.5756 38.2814C29.6482 37.9173 29.6112 37.5398 29.4693 37.1968C29.3273 36.8537 29.0868 36.5605 28.7781 36.3542C28.4695 36.1478 28.1066 36.0377 27.7353 36.0377C27.2381 36.0377 26.7612 36.235 26.4094 36.5863C26.0575 36.9376 25.8595 37.4142 25.8588 37.9114Z" fill="#B9B9B9"/>
<path d="M34.7968 37.9114C34.7962 38.2827 34.9058 38.6458 35.1116 38.9547C35.3175 39.2637 35.6104 39.5047 35.9532 39.6471C36.296 39.7896 36.6734 39.8272 37.0376 39.7551C37.4018 39.683 37.7365 39.5045 37.9992 39.2422C38.2619 38.9798 38.4409 38.6455 38.5136 38.2814C38.5862 37.9173 38.5492 37.5398 38.4073 37.1968C38.2653 36.8537 38.0248 36.5605 37.7161 36.3542C37.4075 36.1478 37.0446 36.0377 36.6733 36.0377C36.1761 36.0377 35.6992 36.235 35.3474 36.5863C34.9955 36.9376 34.7975 37.4142 34.7968 37.9114Z" fill="#B9B9B9"/>
<path d="M43.7336 37.9114C43.7331 38.2828 43.8427 38.646 44.0487 38.955C44.2547 39.2641 44.5477 39.505 44.8907 39.6474C45.2338 39.7898 45.6113 39.8272 45.9756 39.7549C46.3398 39.6826 46.6745 39.5038 46.9371 39.2412C47.1997 38.9786 47.3785 38.6439 47.4508 38.2797C47.5231 37.9154 47.4857 37.5378 47.3433 37.1948C47.2009 36.8518 46.96 36.5588 46.651 36.3528C46.3419 36.1468 45.9787 36.0372 45.6073 36.0377C45.1106 36.0385 44.6345 36.2361 44.2833 36.5873C43.932 36.9386 43.7344 37.4147 43.7336 37.9114Z" fill="#B9B9B9"/>
<path d="M52.6716 37.9114C52.6711 38.2827 52.7807 38.6458 52.9865 38.9547C53.1924 39.2637 53.4852 39.5047 53.8281 39.6471C54.1709 39.7896 54.5483 39.8272 54.9125 39.7551C55.2767 39.683 55.6114 39.5045 55.8741 39.2422C56.1368 38.9798 56.3158 38.6455 56.3884 38.2814C56.4611 37.9173 56.4241 37.5398 56.2821 37.1968C56.1402 36.8537 55.8997 36.5605 55.591 36.3542C55.2824 36.1478 54.9194 36.0377 54.5482 36.0377C54.051 36.0377 53.5741 36.235 53.2223 36.5863C52.8704 36.9376 52.6724 37.4142 52.6716 37.9114Z" fill="#B9B9B9"/>
<path d="M34.7968 1.87715C34.7968 2.24829 34.9068 2.6111 35.113 2.9197C35.3192 3.22829 35.6123 3.46881 35.9552 3.61084C36.2981 3.75287 36.6754 3.79003 37.0394 3.71763C37.4034 3.64522 37.7378 3.4665 38.0002 3.20406C38.2626 2.94162 38.4414 2.60725 38.5138 2.24324C38.5862 1.87923 38.549 1.50192 38.407 1.15903C38.265 0.816137 38.0244 0.523062 37.7158 0.316866C37.4072 0.110669 37.0444 0.000612499 36.6733 0.000612499C36.4268 0.000239243 36.1826 0.0485225 35.9547 0.142695C35.7269 0.236868 35.5199 0.375078 35.3455 0.549405C35.1712 0.723731 35.033 0.930747 34.9388 1.15859C34.8447 1.38643 34.7964 1.63061 34.7968 1.87715Z" fill="#B9B9B9"/>
<path d="M43.7336 10.8854C43.7336 11.2567 43.8438 11.6196 44.0501 11.9283C44.2564 12.2369 44.5497 12.4775 44.8927 12.6194C45.2358 12.7614 45.6132 12.7984 45.9773 12.7257C46.3414 12.6531 46.6758 12.4741 46.9381 12.2114C47.2004 11.9486 47.3789 11.614 47.451 11.2498C47.5231 10.8856 47.4855 10.5082 47.3431 10.1654C47.2006 9.82252 46.9596 9.52964 46.6507 9.32379C46.3417 9.11793 45.9786 9.00835 45.6073 9.00891C45.361 9.00891 45.1172 9.05747 44.8896 9.15181C44.6621 9.24615 44.4555 9.38442 44.2814 9.55871C44.1074 9.733 43.9694 9.93989 43.8755 10.1675C43.7815 10.3952 43.7333 10.6392 43.7336 10.8854Z" fill="#E3E3E3"/>
<path d="M43.7336 19.8944C43.7336 20.2656 43.8438 20.6285 44.0501 20.9372C44.2564 21.2459 44.5497 21.4864 44.8927 21.6283C45.2358 21.7703 45.6132 21.8073 45.9773 21.7346C46.3414 21.662 46.6758 21.483 46.9381 21.2203C47.2004 20.9575 47.3789 20.6229 47.451 20.2587C47.5231 19.8945 47.4855 19.5171 47.3431 19.1743C47.2006 18.8314 46.9596 18.5386 46.6507 18.3327C46.3417 18.1268 45.9786 18.0173 45.6073 18.0178C45.361 18.0178 45.1172 18.0664 44.8896 18.1607C44.6621 18.2551 44.4555 18.3933 44.2814 18.5676C44.1074 18.7419 43.9694 18.9488 43.8755 19.1765C43.7815 19.4041 43.7333 19.6481 43.7336 19.8944Z" fill="#B9B9B9"/>
<path d="M2.21874 58.2096H0.481173L5.50676 44.5229H7.2176L12.2432 58.2096H10.5056L6.41564 46.6882H6.30871L2.21874 58.2096ZM2.86031 52.8632H9.86405V54.3335H2.86031V52.8632ZM18.3314 58.4234C17.369 58.4234 16.5403 58.1962 15.8453 57.7418C15.1503 57.2873 14.6156 56.6614 14.2414 55.8639C13.8671 55.0664 13.68 54.1553 13.68 53.1305C13.68 52.088 13.8716 51.168 14.2548 50.3705C14.6424 49.5685 15.1815 48.9426 15.872 48.4926C16.5671 48.0381 17.3779 47.8109 18.3046 47.8109C19.0264 47.8109 19.6769 47.9446 20.256 48.2119C20.8352 48.4792 21.3097 48.8535 21.6795 49.3346C22.0493 49.8158 22.2788 50.3772 22.3679 51.0187H20.7907C20.6704 50.5509 20.4031 50.1366 19.9887 49.7757C19.5788 49.4104 19.0264 49.2277 18.3314 49.2277C17.7165 49.2277 17.1774 49.3881 16.7141 49.7089C16.2552 50.0252 15.8965 50.473 15.6381 51.0521C15.3842 51.6269 15.2572 52.3019 15.2572 53.0771C15.2572 53.8701 15.3819 54.5607 15.6314 55.1488C15.8854 55.7369 16.2418 56.1936 16.7007 56.5188C17.1641 56.844 17.7076 57.0067 18.3314 57.0067C18.7412 57.0067 19.1133 56.9354 19.4474 56.7928C19.7816 56.6502 20.0645 56.4453 20.2961 56.178C20.5278 55.9107 20.6927 55.5899 20.7907 55.2156H22.3679C22.2788 55.8216 22.0582 56.3673 21.7063 56.853C21.3587 57.3341 20.8976 57.7173 20.3229 58.0024C19.7526 58.2831 19.0888 58.4234 18.3314 58.4234ZM28.8437 58.4234C27.8813 58.4234 27.0526 58.1962 26.3576 57.7418C25.6626 57.2873 25.1279 56.6614 24.7537 55.8639C24.3794 55.0664 24.1923 54.1553 24.1923 53.1305C24.1923 52.088 24.3839 51.168 24.767 50.3705C25.1547 49.5685 25.6937 48.9426 26.3843 48.4926C27.0793 48.0381 27.8902 47.8109 28.8169 47.8109C29.5387 47.8109 30.1892 47.9446 30.7683 48.2119C31.3475 48.4792 31.822 48.8535 32.1918 49.3346C32.5616 49.8158 32.7911 50.3772 32.8802 51.0187H31.303C31.1827 50.5509 30.9154 50.1366 30.501 49.7757C30.0911 49.4104 29.5387 49.2277 28.8437 49.2277C28.2288 49.2277 27.6897 49.3881 27.2264 49.7089C26.7675 50.0252 26.4088 50.473 26.1504 51.0521C25.8965 51.6269 25.7695 52.3019 25.7695 53.0771C25.7695 53.8701 25.8942 54.5607 26.1437 55.1488C26.3977 55.7369 26.7541 56.1936 27.213 56.5188C27.6764 56.844 28.2199 57.0067 28.8437 57.0067C29.2535 57.0067 29.6256 56.9354 29.9597 56.7928C30.2939 56.6502 30.5768 56.4453 30.8084 56.178C31.0401 55.9107 31.205 55.5899 31.303 55.2156H32.8802C32.7911 55.8216 32.5705 56.3673 32.2185 56.853C31.871 57.3341 31.4099 57.7173 30.8352 58.0024C30.2649 58.2831 29.6011 58.4234 28.8437 58.4234ZM41.6549 54.0127V47.9446H43.2321V58.2096H41.6549V56.472H41.548C41.3074 56.9933 40.9331 57.4366 40.4252 57.8019C39.9173 58.1628 39.2757 58.3433 38.5005 58.3433C37.859 58.3433 37.2887 58.2029 36.7897 57.9222C36.2907 57.6371 35.8986 57.2094 35.6135 56.6391C35.3283 56.0644 35.1858 55.3404 35.1858 54.4671V47.9446H36.763V54.3602C36.763 55.1087 36.9724 55.7057 37.3912 56.1512C37.8144 56.5968 38.3535 56.8195 39.0084 56.8195C39.4005 56.8195 39.7992 56.7193 40.2047 56.5188C40.6146 56.3183 40.9576 56.0109 41.2339 55.5966C41.5145 55.1822 41.6549 54.6543 41.6549 54.0127ZM53.3918 50.2435L51.975 50.6445C51.8859 50.4084 51.7545 50.1789 51.5807 49.9561C51.4114 49.7289 51.1798 49.5418 50.8857 49.3948C50.5917 49.2477 50.2152 49.1742 49.7563 49.1742C49.1281 49.1742 48.6046 49.319 48.1858 49.6086C47.7715 49.8938 47.5643 50.2569 47.5643 50.6979C47.5643 51.09 47.7069 51.3997 47.992 51.6269C48.2771 51.8541 48.7227 52.0435 49.3286 52.1949L50.8523 52.5692C51.7701 52.7919 52.454 53.1328 52.904 53.5917C53.354 54.0461 53.579 54.632 53.579 55.3493C53.579 55.9374 53.4096 56.4631 53.071 56.9265C52.7369 57.3898 52.2691 57.7552 51.6676 58.0225C51.0662 58.2898 50.3667 58.4234 49.5692 58.4234C48.5222 58.4234 47.6556 58.1962 46.9695 57.7418C46.2834 57.2873 45.849 56.6235 45.6663 55.7503L47.1633 55.376C47.3059 55.9285 47.5754 56.3428 47.9719 56.6191C48.3729 56.8953 48.8964 57.0334 49.5424 57.0334C50.2776 57.0334 50.8612 56.8775 51.2934 56.5656C51.73 56.2493 51.9483 55.8706 51.9483 55.4295C51.9483 55.0731 51.8236 54.7746 51.5741 54.534C51.3246 54.2889 50.9414 54.1063 50.4246 53.986L48.7138 53.585C47.7737 53.3622 47.0831 53.0169 46.642 52.5491C46.2054 52.0769 45.9871 51.4865 45.9871 50.7781C45.9871 50.199 46.1497 49.6866 46.475 49.2411C46.8047 48.7955 47.2524 48.4458 47.8182 48.1918C48.3885 47.9379 49.0345 47.8109 49.7563 47.8109C50.7721 47.8109 51.5696 48.0337 52.1488 48.4792C52.7324 48.9247 53.1468 49.5128 53.3918 50.2435ZM58.9738 58.4502C58.3233 58.4502 57.733 58.3277 57.2028 58.0826C56.6726 57.8331 56.2516 57.4745 55.9397 57.0067C55.6278 56.5344 55.4719 55.9641 55.4719 55.2958C55.4719 54.7077 55.5877 54.231 55.8194 53.8657C56.0511 53.4959 56.3607 53.2063 56.7483 52.9969C57.136 52.7875 57.5637 52.6316 58.0315 52.5291C58.5037 52.4222 58.9782 52.3375 59.4549 52.2751C60.0787 52.1949 60.5844 52.1348 60.972 52.0947C61.364 52.0501 61.6492 51.9766 61.8274 51.8741C62.0101 51.7717 62.1014 51.5935 62.1014 51.3395V51.286C62.1014 50.6267 61.921 50.1143 61.5601 49.749C61.2036 49.3836 60.6623 49.201 59.9361 49.201C59.1832 49.201 58.5928 49.3658 58.1651 49.6955C57.7374 50.0252 57.4367 50.3772 57.2629 50.7514L55.7659 50.2168C56.0333 49.593 56.3897 49.1074 56.8352 48.7599C57.2852 48.4079 57.7753 48.1629 58.3055 48.0248C58.8401 47.8822 59.3658 47.8109 59.8827 47.8109C60.2123 47.8109 60.591 47.851 61.0188 47.9312C61.4509 48.0069 61.8675 48.1651 62.2685 48.4057C62.6739 48.6463 63.0103 49.0094 63.2776 49.495C63.5449 49.9806 63.6786 50.6311 63.6786 51.4464V58.2096H62.1014V56.8195H62.0212C61.9143 57.0423 61.7361 57.2807 61.4866 57.5346C61.2371 57.7886 60.9051 58.0047 60.4908 58.1829C60.0765 58.3611 59.5708 58.4502 58.9738 58.4502ZM59.2144 57.0334C59.8381 57.0334 60.3638 56.9109 60.7915 56.6658C61.2237 56.4208 61.5489 56.1045 61.7672 55.7169C61.99 55.3292 62.1014 54.9216 62.1014 54.4939V53.0504C62.0346 53.1305 61.8875 53.2041 61.6603 53.2709C61.4376 53.3333 61.1791 53.389 60.8851 53.438C60.5955 53.4825 60.3126 53.5226 60.0364 53.5583C59.7646 53.5894 59.544 53.6162 59.3747 53.6385C58.9649 53.6919 58.5817 53.7788 58.2253 53.8991C57.8733 54.0149 57.5882 54.1909 57.3699 54.427C57.156 54.6587 57.0491 54.975 57.0491 55.376C57.0491 55.924 57.2518 56.3384 57.6572 56.6191C58.0671 56.8953 58.5862 57.0334 59.2144 57.0334ZM71.1284 47.9446V49.2812H65.5949V47.9446H71.1284ZM67.2523 58.2096V46.5278C67.2523 45.9397 67.3904 45.4496 67.6666 45.0575C67.9429 44.6655 68.3015 44.3714 68.7426 44.1754C69.1837 43.9793 69.6492 43.8813 70.1393 43.8813C70.5269 43.8813 70.8433 43.9125 71.0883 43.9749C71.3333 44.0373 71.516 44.0952 71.6363 44.1486L71.1819 45.512C71.1017 45.4852 70.9903 45.4518 70.8477 45.4117C70.7096 45.3716 70.5269 45.3516 70.2997 45.3516C69.7784 45.3516 69.402 45.483 69.1703 45.7459C68.9431 46.0087 68.8295 46.3941 68.8295 46.902V58.2096H67.2523Z" fill="#B9B9B9"/>
<path d="M1.29008 67.0545C1.14341 67.0545 1.0103 67.0269 0.890748 66.9716C0.7712 66.9154 0.676264 66.8345 0.605942 66.729C0.535619 66.6225 0.500458 66.4939 0.500458 66.3432C0.500458 66.2106 0.526578 66.1031 0.578817 66.0208C0.631057 65.9374 0.700877 65.8721 0.788278 65.8249C0.875679 65.7776 0.972121 65.7425 1.07761 65.7194C1.18409 65.6953 1.29108 65.6762 1.39858 65.6621C1.53922 65.644 1.65325 65.6305 1.74065 65.6214C1.82905 65.6114 1.89335 65.5948 1.93353 65.5717C1.97472 65.5486 1.99531 65.5084 1.99531 65.4511V65.4391C1.99531 65.2904 1.95463 65.1749 1.87325 65.0925C1.79289 65.0101 1.67083 64.9689 1.50708 64.9689C1.3373 64.9689 1.20419 65.0061 1.10774 65.0804C1.0113 65.1548 0.94349 65.2341 0.90431 65.3185L0.566762 65.198C0.627039 65.0573 0.707407 64.9478 0.807868 64.8695C0.909333 64.7901 1.01984 64.7349 1.13939 64.7037C1.25994 64.6716 1.37849 64.6555 1.49502 64.6555C1.56936 64.6555 1.65475 64.6645 1.75119 64.6826C1.84864 64.6997 1.94257 64.7354 2.03299 64.7896C2.12441 64.8439 2.20025 64.9257 2.26053 65.0352C2.32081 65.1447 2.35095 65.2914 2.35095 65.4752V67.0002H1.99531V66.6868H1.97723C1.95312 66.737 1.91294 66.7908 1.85668 66.848C1.80042 66.9053 1.72558 66.954 1.63215 66.9942C1.53872 67.0344 1.4247 67.0545 1.29008 67.0545ZM1.34433 66.735C1.48497 66.735 1.60352 66.7074 1.69996 66.6521C1.79741 66.5969 1.87074 66.5256 1.91997 66.4382C1.9702 66.3508 1.99531 66.2588 1.99531 66.1624V65.8369C1.98025 65.855 1.94709 65.8716 1.89586 65.8866C1.84563 65.9007 1.78736 65.9133 1.72106 65.9243C1.65576 65.9344 1.59196 65.9434 1.52968 65.9514C1.4684 65.9585 1.41867 65.9645 1.38049 65.9695C1.28807 65.9816 1.20167 66.0012 1.12131 66.0283C1.04194 66.0544 0.977647 66.0941 0.928421 66.1473C0.8802 66.1996 0.856089 66.2709 0.856089 66.3613C0.856089 66.4849 0.901799 66.5783 0.993218 66.6416C1.08564 66.7039 1.20268 66.735 1.34433 66.735ZM3.94036 67.0485C3.72337 67.0485 3.53651 66.9972 3.37979 66.8948C3.22307 66.7923 3.10252 66.6511 3.01813 66.4713C2.93374 66.2915 2.89155 66.0861 2.89155 65.855C2.89155 65.6199 2.93475 65.4125 3.02115 65.2326C3.10855 65.0518 3.2301 64.9107 3.38582 64.8092C3.54254 64.7067 3.72538 64.6555 3.93433 64.6555C4.09708 64.6555 4.24375 64.6856 4.37435 64.7459C4.50495 64.8062 4.61194 64.8906 4.69532 64.9991C4.77871 65.1076 4.83044 65.2341 4.85054 65.3788H4.49491C4.46778 65.2733 4.4075 65.1799 4.31408 65.0985C4.22165 65.0161 4.09708 64.975 3.94036 64.975C3.80173 64.975 3.68017 65.0111 3.57569 65.0835C3.47221 65.1548 3.39134 65.2557 3.33308 65.3863C3.27581 65.5159 3.24718 65.6681 3.24718 65.8429C3.24718 66.0218 3.27531 66.1775 3.33157 66.3101C3.38883 66.4427 3.4692 66.5457 3.57267 66.619C3.67715 66.6923 3.79972 66.729 3.94036 66.729C4.03279 66.729 4.11667 66.7129 4.19202 66.6808C4.26736 66.6486 4.33115 66.6024 4.38339 66.5421C4.43563 66.4819 4.4728 66.4095 4.49491 66.3251H4.85054C4.83044 66.4618 4.78072 66.5848 4.70135 66.6943C4.62299 66.8028 4.51902 66.8892 4.38942 66.9535C4.26083 67.0168 4.11114 67.0485 3.94036 67.0485ZM6.31073 67.0485C6.09374 67.0485 5.90688 66.9972 5.75016 66.8948C5.59344 66.7923 5.47289 66.6511 5.3885 66.4713C5.30412 66.2915 5.26192 66.0861 5.26192 65.855C5.26192 65.6199 5.30512 65.4125 5.39152 65.2326C5.47892 65.0518 5.60048 64.9107 5.75619 64.8092C5.91291 64.7067 6.09575 64.6555 6.30471 64.6555C6.46745 64.6555 6.61413 64.6856 6.74472 64.7459C6.87532 64.8062 6.98231 64.8906 7.0657 64.9991C7.14908 65.1076 7.20082 65.2341 7.22091 65.3788H6.86528C6.83815 65.2733 6.77788 65.1799 6.68445 65.0985C6.59202 65.0161 6.46745 64.975 6.31073 64.975C6.1721 64.975 6.05054 65.0111 5.94606 65.0835C5.84259 65.1548 5.76172 65.2557 5.70345 65.3863C5.64619 65.5159 5.61755 65.6681 5.61755 65.8429C5.61755 66.0218 5.64568 66.1775 5.70194 66.3101C5.7592 66.4427 5.83957 66.5457 5.94305 66.619C6.04753 66.6923 6.17009 66.729 6.31073 66.729C6.40316 66.729 6.48704 66.7129 6.56239 66.6808C6.63773 66.6486 6.70153 66.6024 6.75377 66.5421C6.80601 66.4819 6.84318 66.4095 6.86528 66.3251H7.22091C7.20082 66.4618 7.15109 66.5848 7.07172 66.6943C6.99337 66.8028 6.88939 66.8892 6.75979 66.9535C6.6312 67.0168 6.48152 67.0485 6.31073 67.0485ZM8.68111 67.0485C8.47215 67.0485 8.28881 66.9987 8.13108 66.8993C7.97437 66.7998 7.8518 66.6607 7.7634 66.4819C7.676 66.303 7.6323 66.0941 7.6323 65.855C7.6323 65.6139 7.676 65.4034 7.7634 65.2236C7.8518 65.0438 7.97437 64.9041 8.13108 64.8047C8.28881 64.7052 8.47215 64.6555 8.68111 64.6555C8.89007 64.6555 9.0729 64.7052 9.22962 64.8047C9.38735 64.9041 9.50991 65.0438 9.59731 65.2236C9.68572 65.4034 9.72992 65.6139 9.72992 65.855C9.72992 66.0941 9.68572 66.303 9.59731 66.4819C9.50991 66.6607 9.38735 66.7998 9.22962 66.8993C9.0729 66.9987 8.89007 67.0485 8.68111 67.0485ZM8.68111 66.729C8.83984 66.729 8.97043 66.6883 9.0729 66.6069C9.17537 66.5256 9.25122 66.4186 9.30045 66.286C9.34967 66.1534 9.37429 66.0097 9.37429 65.855C9.37429 65.7003 9.34967 65.5561 9.30045 65.4225C9.25122 65.2889 9.17537 65.1809 9.0729 65.0985C8.97043 65.0161 8.83984 64.975 8.68111 64.975C8.52238 64.975 8.39178 65.0161 8.28931 65.0985C8.18684 65.1809 8.11099 65.2889 8.06177 65.4225C8.01254 65.5561 7.98793 65.7003 7.98793 65.855C7.98793 66.0097 8.01254 66.1534 8.06177 66.286C8.11099 66.4186 8.18684 66.5256 8.28931 66.6069C8.39178 66.6883 8.52238 66.729 8.68111 66.729ZM11.7315 66.0539V64.6856H12.0871V67.0002H11.7315V66.6084H11.7074C11.6531 66.726 11.5687 66.8259 11.4542 66.9083C11.3397 66.9897 11.195 67.0304 11.0202 67.0304C10.8755 67.0304 10.747 66.9987 10.6344 66.9354C10.5219 66.8712 10.4335 66.7747 10.3692 66.6461C10.3049 66.5165 10.2728 66.3533 10.2728 66.1564V64.6856H10.6284V66.1323C10.6284 66.301 10.6756 66.4357 10.7701 66.5361C10.8655 66.6366 10.9871 66.6868 11.1347 66.6868C11.2231 66.6868 11.3131 66.6642 11.4045 66.619C11.4969 66.5738 11.5743 66.5045 11.6365 66.411C11.6998 66.3176 11.7315 66.1986 11.7315 66.0539ZM13.0941 65.6079V67.0002H12.7385V64.6856H13.082V65.0473H13.1122C13.1664 64.9297 13.2488 64.8353 13.3593 64.764C13.4698 64.6917 13.6125 64.6555 13.7873 64.6555C13.944 64.6555 14.0811 64.6876 14.1987 64.7519C14.3162 64.8152 14.4076 64.9117 14.4729 65.0413C14.5382 65.1698 14.5709 65.3326 14.5709 65.5295V67.0002H14.2152V65.5536C14.2152 65.3718 14.168 65.2301 14.0736 65.1287C13.9792 65.0262 13.8496 64.975 13.6848 64.975C13.5713 64.975 13.4698 64.9996 13.3804 65.0488C13.292 65.098 13.2222 65.1698 13.171 65.2643C13.1197 65.3587 13.0941 65.4732 13.0941 65.6079ZM16.2273 64.6856V64.987H15.0278V64.6856H16.2273ZM15.3774 64.1311H15.7331V66.3372C15.7331 66.4377 15.7476 66.513 15.7768 66.5632C15.8069 66.6125 15.8451 66.6456 15.8913 66.6627C15.9385 66.6788 15.9882 66.6868 16.0405 66.6868C16.0797 66.6868 16.1118 66.6848 16.1369 66.6808C16.162 66.6758 16.1821 66.6717 16.1972 66.6687L16.2695 66.9882C16.2454 66.9972 16.2118 67.0063 16.1686 67.0153C16.1254 67.0254 16.0706 67.0304 16.0043 67.0304C15.9039 67.0304 15.8054 67.0088 15.709 66.9656C15.6135 66.9224 15.5342 66.8566 15.4709 66.7682C15.4086 66.6798 15.3774 66.5683 15.3774 66.4336V64.1311ZM16.7623 67.0002V64.6856H17.1179V67.0002H16.7623ZM16.9431 64.2999C16.8738 64.2999 16.814 64.2762 16.7638 64.229C16.7146 64.1818 16.69 64.1251 16.69 64.0588C16.69 63.9924 16.7146 63.9357 16.7638 63.8885C16.814 63.8413 16.8738 63.8176 16.9431 63.8176C17.0124 63.8176 17.0717 63.8413 17.1209 63.8885C17.1712 63.9357 17.1963 63.9924 17.1963 64.0588C17.1963 64.1251 17.1712 64.1818 17.1209 64.229C17.0717 64.2762 17.0124 64.2999 16.9431 64.2999ZM18.1249 65.6079V67.0002H17.7693V64.6856H18.1129V65.0473H18.143C18.1973 64.9297 18.2796 64.8353 18.3901 64.764C18.5006 64.6917 18.6433 64.6555 18.8181 64.6555C18.9748 64.6555 19.112 64.6876 19.2295 64.7519C19.347 64.8152 19.4384 64.9117 19.5037 65.0413C19.569 65.1698 19.6017 65.3326 19.6017 65.5295V67.0002H19.2461V65.5536C19.2461 65.3718 19.1989 65.2301 19.1044 65.1287C19.01 65.0262 18.8804 64.975 18.7156 64.975C18.6021 64.975 18.5006 64.9996 18.4112 65.0488C18.3228 65.098 18.253 65.1698 18.2018 65.2643C18.1505 65.3587 18.1249 65.4732 18.1249 65.6079ZM21.1858 67.9164C21.0141 67.9164 20.8664 67.8943 20.7428 67.8501C20.6192 67.8069 20.5163 67.7497 20.4339 67.6784C20.3525 67.608 20.2877 67.5327 20.2395 67.4523L20.5228 67.2534C20.5549 67.2956 20.5956 67.3438 20.6449 67.3981C20.6941 67.4533 20.7614 67.501 20.8468 67.5412C20.9332 67.5824 21.0462 67.603 21.1858 67.603C21.3727 67.603 21.5269 67.5578 21.6485 67.4674C21.77 67.377 21.8308 67.2353 21.8308 67.0424V66.5723H21.8007C21.7745 66.6145 21.7374 66.6667 21.6891 66.729C21.6419 66.7903 21.5736 66.845 21.4842 66.8933C21.3958 66.9405 21.2763 66.9641 21.1256 66.9641C20.9387 66.9641 20.7709 66.9199 20.6223 66.8315C20.4746 66.7431 20.3575 66.6145 20.2711 66.4457C20.1858 66.2769 20.1431 66.072 20.1431 65.8309C20.1431 65.5938 20.1847 65.3873 20.2681 65.2115C20.3515 65.0347 20.4675 64.8981 20.6162 64.8017C20.7649 64.7042 20.9367 64.6555 21.1316 64.6555C21.2823 64.6555 21.4018 64.6806 21.4902 64.7308C21.5796 64.7801 21.648 64.8363 21.6952 64.8996C21.7434 64.9619 21.7806 65.0131 21.8067 65.0533H21.8429V64.6856H22.1864V67.0665C22.1864 67.2655 22.1412 67.4272 22.0508 67.5518C21.9614 67.6773 21.8408 67.7693 21.6891 67.8275C21.5385 67.8868 21.3707 67.9164 21.1858 67.9164ZM21.1738 66.6446C21.3164 66.6446 21.437 66.612 21.5354 66.5467C21.6339 66.4814 21.7087 66.3874 21.76 66.2649C21.8112 66.1423 21.8368 65.9956 21.8368 65.8249C21.8368 65.6581 21.8117 65.5109 21.7615 65.3833C21.7113 65.2557 21.6369 65.1558 21.5385 65.0835C21.44 65.0111 21.3184 64.975 21.1738 64.975C21.0231 64.975 20.8975 65.0131 20.7971 65.0895C20.6976 65.1658 20.6228 65.2683 20.5725 65.3969C20.5233 65.5255 20.4987 65.6681 20.4987 65.8249C20.4987 65.9856 20.5238 66.1277 20.574 66.2513C20.6253 66.3739 20.7006 66.4703 20.8001 66.5406C20.9005 66.61 21.0251 66.6446 21.1738 66.6446ZM24.9049 67.0424C24.702 67.0424 24.5272 67.0053 24.3805 66.9309C24.2338 66.8566 24.1208 66.7546 24.0414 66.625C23.9621 66.4954 23.9224 66.3472 23.9224 66.1805C23.9224 66.0519 23.9495 65.9379 24.0038 65.8384C24.059 65.738 24.1349 65.645 24.2313 65.5596C24.3288 65.4732 24.4408 65.3868 24.5674 65.3004L25.0134 64.9689C25.1008 64.9117 25.1706 64.8504 25.2229 64.7851C25.2761 64.7198 25.3027 64.6344 25.3027 64.5289C25.3027 64.4505 25.2681 64.3747 25.1987 64.3014C25.1304 64.228 25.0405 64.1914 24.929 64.1914C24.8506 64.1914 24.7813 64.2115 24.7211 64.2516C24.6618 64.2908 24.6151 64.341 24.5809 64.4023C24.5478 64.4626 24.5312 64.5249 24.5312 64.5892C24.5312 64.6615 24.5508 64.7349 24.59 64.8092C24.6301 64.8825 24.6809 64.9579 24.7422 65.0352C24.8044 65.1116 24.8687 65.1899 24.935 65.2703L26.3515 67.0002H25.9236L24.7542 65.5898C24.6457 65.4592 24.5473 65.3406 24.4589 65.2341C24.3704 65.1277 24.3001 65.0227 24.2479 64.9192C24.1956 64.8157 24.1695 64.7037 24.1695 64.5832C24.1695 64.4445 24.2002 64.323 24.2614 64.2185C24.3237 64.113 24.4106 64.0311 24.5221 63.9729C24.6347 63.9136 24.7663 63.8839 24.917 63.8839C25.0717 63.8839 25.2048 63.9141 25.3163 63.9744C25.4278 64.0336 25.5137 64.1125 25.574 64.2109C25.6342 64.3084 25.6644 64.4144 25.6644 64.5289C25.6644 64.6766 25.6277 64.8047 25.5544 64.9132C25.481 65.0217 25.3811 65.1226 25.2545 65.2161L24.6397 65.6742C24.501 65.7766 24.4071 65.8761 24.3579 65.9725C24.3087 66.069 24.2841 66.1383 24.2841 66.1805C24.2841 66.2769 24.3092 66.3668 24.3594 66.4502C24.4096 66.5336 24.4805 66.6009 24.5719 66.6521C24.6633 66.7034 24.7703 66.729 24.8928 66.729C25.0094 66.729 25.1229 66.7044 25.2334 66.6552C25.3439 66.6049 25.4439 66.5326 25.5333 66.4382C25.6237 66.3437 25.695 66.2302 25.7473 66.0976C25.8005 65.965 25.8271 65.8158 25.8271 65.6501H26.1707C26.1707 65.855 26.1471 66.0223 26.0999 66.1519C26.0527 66.2814 25.9994 66.3829 25.9401 66.4562C25.8809 66.5296 25.8332 66.5843 25.797 66.6205C25.7849 66.6356 25.7739 66.6506 25.7638 66.6657C25.7538 66.6808 25.7427 66.6958 25.7307 66.7109C25.6312 66.8224 25.5057 66.9058 25.354 66.9611C25.2023 67.0153 25.0526 67.0424 24.9049 67.0424ZM28.9694 64.6856V64.987H27.7217V64.6856H28.9694ZM28.0954 67.0002V64.3662C28.0954 64.2336 28.1266 64.123 28.1888 64.0346C28.2511 63.9462 28.332 63.8799 28.4315 63.8357C28.5309 63.7915 28.6359 63.7694 28.7464 63.7694C28.8338 63.7694 28.9051 63.7765 28.9604 63.7905C29.0156 63.8046 29.0568 63.8176 29.0839 63.8297L28.9815 64.1371C28.9634 64.1311 28.9383 64.1235 28.9061 64.1145C28.875 64.1055 28.8338 64.1009 28.7826 64.1009C28.665 64.1009 28.5801 64.1306 28.5279 64.1899C28.4767 64.2491 28.451 64.336 28.451 64.4505V67.0002H28.0954ZM29.4678 67.0002V64.6856H29.8235V67.0002H29.4678ZM29.6487 64.2999C29.5793 64.2999 29.5196 64.2762 29.4693 64.229C29.4201 64.1818 29.3955 64.1251 29.3955 64.0588C29.3955 63.9924 29.4201 63.9357 29.4693 63.8885C29.5196 63.8413 29.5793 63.8176 29.6487 63.8176C29.718 63.8176 29.7772 63.8413 29.8265 63.8885C29.8767 63.9357 29.9018 63.9924 29.9018 64.0588C29.9018 64.1251 29.8767 64.1818 29.8265 64.229C29.7772 64.2762 29.718 64.2999 29.6487 64.2999ZM30.8305 65.6079V67.0002H30.4748V64.6856H30.8184V65.0473H30.8485C30.9028 64.9297 30.9852 64.8353 31.0957 64.764C31.2062 64.6917 31.3488 64.6555 31.5236 64.6555C31.6804 64.6555 31.8175 64.6876 31.935 64.7519C32.0526 64.8152 32.144 64.9117 32.2093 65.0413C32.2746 65.1698 32.3072 65.3326 32.3072 65.5295V67.0002H31.9516V65.5536C31.9516 65.3718 31.9044 65.2301 31.8099 65.1287C31.7155 65.0262 31.5859 64.975 31.4212 64.975C31.3076 64.975 31.2062 64.9996 31.1168 65.0488C31.0284 65.098 30.9585 65.1698 30.9073 65.2643C30.8561 65.3587 30.8305 65.4732 30.8305 65.6079ZM33.6382 67.0545C33.4915 67.0545 33.3584 67.0269 33.2389 66.9716C33.1193 66.9154 33.0244 66.8345 32.9541 66.729C32.8837 66.6225 32.8486 66.4939 32.8486 66.3432C32.8486 66.2106 32.8747 66.1031 32.9269 66.0208C32.9792 65.9374 33.049 65.8721 33.1364 65.8249C33.2238 65.7776 33.3203 65.7425 33.4257 65.7194C33.5322 65.6953 33.6392 65.6762 33.7467 65.6621C33.8874 65.644 34.0014 65.6305 34.0888 65.6214C34.1772 65.6114 34.2415 65.5948 34.2817 65.5717C34.3228 65.5486 34.3434 65.5084 34.3434 65.4511V65.4391C34.3434 65.2904 34.3028 65.1749 34.2214 65.0925C34.141 65.0101 34.019 64.9689 33.8552 64.9689C33.6854 64.9689 33.5523 65.0061 33.4559 65.0804C33.3594 65.1548 33.2916 65.2341 33.2524 65.3185L32.9149 65.198C32.9752 65.0573 33.0555 64.9478 33.156 64.8695C33.2575 64.7901 33.368 64.7349 33.4875 64.7037C33.6081 64.6716 33.7266 64.6555 33.8431 64.6555C33.9175 64.6555 34.0029 64.6645 34.0993 64.6826C34.1968 64.6997 34.2907 64.7354 34.3811 64.7896C34.4725 64.8439 34.5484 64.9257 34.6087 65.0352C34.6689 65.1447 34.6991 65.2914 34.6991 65.4752V67.0002H34.3434V66.6868H34.3254C34.3013 66.737 34.2611 66.7908 34.2048 66.848C34.1486 66.9053 34.0737 66.954 33.9803 66.9942C33.8868 67.0344 33.7728 67.0545 33.6382 67.0545ZM33.6925 66.735C33.8331 66.735 33.9516 66.7074 34.0481 66.6521C34.1455 66.5969 34.2189 66.5256 34.2681 66.4382C34.3183 66.3508 34.3434 66.2588 34.3434 66.1624V65.8369C34.3284 65.855 34.2952 65.8716 34.244 65.8866C34.1938 65.9007 34.1355 65.9133 34.0692 65.9243C34.0039 65.9344 33.9401 65.9434 33.8778 65.9514C33.8165 65.9585 33.7668 65.9645 33.7286 65.9695C33.6362 65.9816 33.5498 66.0012 33.4694 66.0283C33.3901 66.0544 33.3258 66.0941 33.2766 66.1473C33.2283 66.1996 33.2042 66.2709 33.2042 66.3613C33.2042 66.4849 33.2499 66.5783 33.3413 66.6416C33.4338 66.7039 33.5508 66.735 33.6925 66.735ZM35.7038 65.6079V67.0002H35.3482V64.6856H35.6918V65.0473H35.7219C35.7761 64.9297 35.8585 64.8353 35.969 64.764C36.0795 64.6917 36.2222 64.6555 36.397 64.6555C36.5537 64.6555 36.6908 64.6876 36.8084 64.7519C36.9259 64.8152 37.0173 64.9117 37.0826 65.0413C37.1479 65.1698 37.1806 65.3326 37.1806 65.5295V67.0002H36.8249V65.5536C36.8249 65.3718 36.7777 65.2301 36.6833 65.1287C36.5889 65.0262 36.4593 64.975 36.2945 64.975C36.181 64.975 36.0795 64.9996 35.9901 65.0488C35.9017 65.098 35.8319 65.1698 35.7807 65.2643C35.7294 65.3587 35.7038 65.4732 35.7038 65.6079ZM38.7708 67.0485C38.5538 67.0485 38.3669 66.9972 38.2102 66.8948C38.0535 66.7923 37.9329 66.6511 37.8485 66.4713C37.7641 66.2915 37.7219 66.0861 37.7219 65.855C37.7219 65.6199 37.7651 65.4125 37.8515 65.2326C37.9389 65.0518 38.0605 64.9107 38.2162 64.8092C38.3729 64.7067 38.5558 64.6555 38.7647 64.6555C38.9275 64.6555 39.0741 64.6856 39.2047 64.7459C39.3353 64.8062 39.4423 64.8906 39.5257 64.9991C39.6091 65.1076 39.6608 65.2341 39.6809 65.3788H39.3253C39.2982 65.2733 39.2379 65.1799 39.1445 65.0985C39.052 65.0161 38.9275 64.975 38.7708 64.975C38.6321 64.975 38.5106 65.0111 38.4061 65.0835C38.3026 65.1548 38.2217 65.2557 38.1635 65.3863C38.1062 65.5159 38.0776 65.6681 38.0776 65.8429C38.0776 66.0218 38.1057 66.1775 38.162 66.3101C38.2192 66.4427 38.2996 66.5457 38.4031 66.619C38.5075 66.6923 38.6301 66.729 38.7708 66.729C38.8632 66.729 38.9471 66.7129 39.0224 66.6808C39.0977 66.6486 39.1615 66.6024 39.2138 66.5421C39.266 66.4819 39.3032 66.4095 39.3253 66.3251H39.6809C39.6608 66.4618 39.6111 66.5848 39.5317 66.6943C39.4534 66.8028 39.3494 66.8892 39.2198 66.9535C39.0912 67.0168 38.9415 67.0485 38.7708 67.0485ZM40.2008 67.0002V64.6856H40.5564V67.0002H40.2008ZM40.3816 64.2999C40.3123 64.2999 40.2525 64.2762 40.2023 64.229C40.1531 64.1818 40.1285 64.1251 40.1285 64.0588C40.1285 63.9924 40.1531 63.9357 40.2023 63.8885C40.2525 63.8413 40.3123 63.8176 40.3816 63.8176C40.451 63.8176 40.5102 63.8413 40.5595 63.8885C40.6097 63.9357 40.6348 63.9924 40.6348 64.0588C40.6348 64.1251 40.6097 64.1818 40.5595 64.229C40.5102 64.2762 40.451 64.2999 40.3816 64.2999ZM41.8889 67.0545C41.7423 67.0545 41.6091 67.0269 41.4896 66.9716C41.37 66.9154 41.2751 66.8345 41.2048 66.729C41.1345 66.6225 41.0993 66.4939 41.0993 66.3432C41.0993 66.2106 41.1254 66.1031 41.1777 66.0208C41.2299 65.9374 41.2997 65.8721 41.3871 65.8249C41.4745 65.7776 41.571 65.7425 41.6765 65.7194C41.7829 65.6953 41.8899 65.6762 41.9974 65.6621C42.1381 65.644 42.2521 65.6305 42.3395 65.6214C42.4279 65.6114 42.4922 65.5948 42.5324 65.5717C42.5736 65.5486 42.5942 65.5084 42.5942 65.4511V65.4391C42.5942 65.2904 42.5535 65.1749 42.4721 65.0925C42.3917 65.0101 42.2697 64.9689 42.1059 64.9689C41.9361 64.9689 41.803 65.0061 41.7066 65.0804C41.6102 65.1548 41.5423 65.2341 41.5032 65.3185L41.1656 65.198C41.2259 65.0573 41.3063 64.9478 41.4067 64.8695C41.5082 64.7901 41.6187 64.7349 41.7382 64.7037C41.8588 64.6716 41.9773 64.6555 42.0939 64.6555C42.1682 64.6555 42.2536 64.6645 42.35 64.6826C42.4475 64.6997 42.5414 64.7354 42.6318 64.7896C42.7233 64.8439 42.7991 64.9257 42.8594 65.0352C42.9197 65.1447 42.9498 65.2914 42.9498 65.4752V67.0002H42.5942V66.6868H42.5761C42.552 66.737 42.5118 66.7908 42.4555 66.848C42.3993 66.9053 42.3244 66.954 42.231 66.9942C42.1376 67.0344 42.0235 67.0545 41.8889 67.0545ZM41.9432 66.735C42.0838 66.735 42.2024 66.7074 42.2988 66.6521C42.3963 66.5969 42.4696 66.5256 42.5188 66.4382C42.569 66.3508 42.5942 66.2588 42.5942 66.1624V65.8369C42.5791 65.855 42.5459 65.8716 42.4947 65.8866C42.4445 65.9007 42.3862 65.9133 42.3199 65.9243C42.2546 65.9344 42.1908 65.9434 42.1285 65.9514C42.0672 65.9585 42.0175 65.9645 41.9793 65.9695C41.8869 65.9816 41.8005 66.0012 41.7202 66.0283C41.6408 66.0544 41.5765 66.0941 41.5273 66.1473C41.479 66.1996 41.4549 66.2709 41.4549 66.3613C41.4549 66.4849 41.5006 66.5783 41.5921 66.6416C41.6845 66.7039 41.8015 66.735 41.9432 66.735ZM43.9545 63.9141V67.0002H43.5989V63.9141H43.9545ZM45.7994 67.0002V64.6856H46.1429V65.0473H46.1731C46.2213 64.9237 46.2992 64.8278 46.4067 64.7595C46.5141 64.6901 46.6432 64.6555 46.7939 64.6555C46.9466 64.6555 47.0737 64.6901 47.1752 64.7595C47.2776 64.8278 47.3575 64.9237 47.4148 65.0473H47.4389C47.4982 64.9277 47.5871 64.8328 47.7056 64.7625C47.8242 64.6912 47.9663 64.6555 48.1321 64.6555C48.339 64.6555 48.5083 64.7203 48.6399 64.8499C48.7715 64.9785 48.8373 65.1789 48.8373 65.4511V67.0002H48.4817V65.4511C48.4817 65.2804 48.435 65.1583 48.3415 65.085C48.2481 65.0116 48.1381 64.975 48.0115 64.975C47.8488 64.975 47.7227 65.0242 47.6333 65.1226C47.5439 65.2201 47.4992 65.3436 47.4992 65.4933V67.0002H47.1375V65.415C47.1375 65.2834 47.0948 65.1774 47.0094 65.097C46.924 65.0156 46.814 64.975 46.6794 64.975C46.587 64.975 46.5006 64.9996 46.4202 65.0488C46.3408 65.098 46.2766 65.1663 46.2273 65.2537C46.1791 65.3401 46.155 65.4401 46.155 65.5536V67.0002H45.7994ZM50.1687 67.0545C50.022 67.0545 49.8889 67.0269 49.7693 66.9716C49.6498 66.9154 49.5548 66.8345 49.4845 66.729C49.4142 66.6225 49.379 66.4939 49.379 66.3432C49.379 66.2106 49.4052 66.1031 49.4574 66.0208C49.5096 65.9374 49.5795 65.8721 49.6669 65.8249C49.7543 65.7776 49.8507 65.7425 49.9562 65.7194C50.0627 65.6953 50.1697 65.6762 50.2772 65.6621C50.4178 65.644 50.5318 65.6305 50.6192 65.6214C50.7076 65.6114 50.7719 65.5948 50.8121 65.5717C50.8533 65.5486 50.8739 65.5084 50.8739 65.4511V65.4391C50.8739 65.2904 50.8332 65.1749 50.7518 65.0925C50.6715 65.0101 50.5494 64.9689 50.3857 64.9689C50.2159 64.9689 50.0828 65.0061 49.9863 65.0804C49.8899 65.1548 49.8221 65.2341 49.7829 65.3185L49.4453 65.198C49.5056 65.0573 49.586 64.9478 49.6864 64.8695C49.7879 64.7901 49.8984 64.7349 50.018 64.7037C50.1385 64.6716 50.2571 64.6555 50.3736 64.6555C50.4479 64.6555 50.5333 64.6645 50.6298 64.6826C50.7272 64.6997 50.8212 64.7354 50.9116 64.7896C51.003 64.8439 51.0788 64.9257 51.1391 65.0352C51.1994 65.1447 51.2295 65.2914 51.2295 65.4752V67.0002H50.8739V66.6868H50.8558C50.8317 66.737 50.7915 66.7908 50.7353 66.848C50.679 66.9053 50.6042 66.954 50.5107 66.9942C50.4173 67.0344 50.3033 67.0545 50.1687 67.0545ZM50.2229 66.735C50.3636 66.735 50.4821 66.7074 50.5785 66.6521C50.676 66.5969 50.7493 66.5256 50.7985 66.4382C50.8488 66.3508 50.8739 66.2588 50.8739 66.1624V65.8369C50.8588 65.855 50.8257 65.8716 50.7744 65.8866C50.7242 65.9007 50.6659 65.9133 50.5996 65.9243C50.5343 65.9344 50.4705 65.9434 50.4083 65.9514C50.347 65.9585 50.2972 65.9645 50.2591 65.9695C50.1666 65.9816 50.0803 66.0012 49.9999 66.0283C49.9205 66.0544 49.8562 66.0941 49.807 66.1473C49.7588 66.1996 49.7347 66.2709 49.7347 66.3613C49.7347 66.4849 49.7804 66.5783 49.8718 66.6416C49.9642 66.7039 50.0813 66.735 50.2229 66.735ZM52.2343 65.6079V67.0002H51.8786V64.6856H52.2222V65.0473H52.2523C52.3066 64.9297 52.389 64.8353 52.4995 64.764C52.61 64.6917 52.7526 64.6555 52.9274 64.6555C53.0842 64.6555 53.2213 64.6876 53.3388 64.7519C53.4564 64.8152 53.5478 64.9117 53.6131 65.0413C53.6784 65.1698 53.711 65.3326 53.711 65.5295V67.0002H53.3554V65.5536C53.3554 65.3718 53.3082 65.2301 53.2137 65.1287C53.1193 65.0262 52.9897 64.975 52.825 64.975C52.7114 64.975 52.61 64.9996 52.5206 65.0488C52.4322 65.098 52.3623 65.1698 52.3111 65.2643C52.2599 65.3587 52.2343 65.4732 52.2343 65.6079ZM55.042 67.0545C54.8953 67.0545 54.7622 67.0269 54.6427 66.9716C54.5231 66.9154 54.4282 66.8345 54.3579 66.729C54.2875 66.6225 54.2524 66.4939 54.2524 66.3432C54.2524 66.2106 54.2785 66.1031 54.3307 66.0208C54.383 65.9374 54.4528 65.8721 54.5402 65.8249C54.6276 65.7776 54.7241 65.7425 54.8295 65.7194C54.936 65.6953 55.043 65.6762 55.1505 65.6621C55.2912 65.644 55.4052 65.6305 55.4926 65.6214C55.581 65.6114 55.6453 65.5948 55.6855 65.5717C55.7267 65.5486 55.7472 65.5084 55.7472 65.4511V65.4391C55.7472 65.2904 55.7066 65.1749 55.6252 65.0925C55.5448 65.0101 55.4228 64.9689 55.259 64.9689C55.0892 64.9689 54.9561 65.0061 54.8597 65.0804C54.7632 65.1548 54.6954 65.2341 54.6562 65.3185L54.3187 65.198C54.379 65.0573 54.4593 64.9478 54.5598 64.8695C54.6613 64.7901 54.7718 64.7349 54.8913 64.7037C55.0119 64.6716 55.1304 64.6555 55.247 64.6555C55.3213 64.6555 55.4067 64.6645 55.5031 64.6826C55.6006 64.6997 55.6945 64.7354 55.7849 64.7896C55.8763 64.8439 55.9522 64.9257 56.0125 65.0352C56.0727 65.1447 56.1029 65.2914 56.1029 65.4752V67.0002H55.7472V66.6868H55.7292C55.7051 66.737 55.6649 66.7908 55.6086 66.848C55.5524 66.9053 55.4775 66.954 55.3841 66.9942C55.2907 67.0344 55.1766 67.0545 55.042 67.0545ZM55.0963 66.735C55.2369 66.735 55.3554 66.7074 55.4519 66.6521C55.5493 66.5969 55.6227 66.5256 55.6719 66.4382C55.7221 66.3508 55.7472 66.2588 55.7472 66.1624V65.8369C55.7322 65.855 55.699 65.8716 55.6478 65.8866C55.5976 65.9007 55.5393 65.9133 55.473 65.9243C55.4077 65.9344 55.3439 65.9434 55.2816 65.9514C55.2203 65.9585 55.1706 65.9645 55.1324 65.9695C55.04 65.9816 54.9536 66.0012 54.8732 66.0283C54.7939 66.0544 54.7296 66.0941 54.6804 66.1473C54.6321 66.1996 54.608 66.2709 54.608 66.3613C54.608 66.4849 54.6537 66.5783 54.7451 66.6416C54.8376 66.7039 54.9546 66.735 55.0963 66.735ZM57.6863 67.9164C57.5145 67.9164 57.3668 67.8943 57.2432 67.8501C57.1197 67.8069 57.0167 67.7497 56.9343 67.6784C56.8529 67.608 56.7881 67.5327 56.7399 67.4523L57.0232 67.2534C57.0554 67.2956 57.0961 67.3438 57.1453 67.3981C57.1945 67.4533 57.2618 67.501 57.3472 67.5412C57.4336 67.5824 57.5466 67.603 57.6863 67.603C57.8731 67.603 58.0273 67.5578 58.1489 67.4674C58.2704 67.377 58.3312 67.2353 58.3312 67.0424V66.5723H58.3011C58.275 66.6145 58.2378 66.6667 58.1896 66.729C58.1424 66.7903 58.074 66.845 57.9846 66.8933C57.8962 66.9405 57.7767 66.9641 57.626 66.9641C57.4391 66.9641 57.2714 66.9199 57.1227 66.8315C56.975 66.7431 56.858 66.6145 56.7716 66.4457C56.6862 66.2769 56.6435 66.072 56.6435 65.8309C56.6435 65.5938 56.6852 65.3873 56.7686 65.2115C56.8519 65.0347 56.968 64.8981 57.1167 64.8017C57.2653 64.7042 57.4371 64.6555 57.632 64.6555C57.7827 64.6555 57.9023 64.6806 57.9907 64.7308C58.0801 64.7801 58.1484 64.8363 58.1956 64.8996C58.2438 64.9619 58.281 65.0131 58.3071 65.0533H58.3433V64.6856H58.6869V67.0665C58.6869 67.2655 58.6416 67.4272 58.5512 67.5518C58.4618 67.6773 58.3413 67.7693 58.1896 67.8275C58.0389 67.8868 57.8711 67.9164 57.6863 67.9164ZM57.6742 66.6446C57.8169 66.6446 57.9374 66.612 58.0359 66.5467C58.1343 66.4814 58.2092 66.3874 58.2604 66.2649C58.3116 66.1423 58.3373 65.9956 58.3373 65.8249C58.3373 65.6581 58.3121 65.5109 58.2619 65.3833C58.2117 65.2557 58.1373 65.1558 58.0389 65.0835C57.9404 65.0111 57.8189 64.975 57.6742 64.975C57.5235 64.975 57.3979 65.0131 57.2975 65.0895C57.198 65.1658 57.1232 65.2683 57.073 65.3969C57.0237 65.5255 56.9991 65.6681 56.9991 65.8249C56.9991 65.9856 57.0242 66.1277 57.0745 66.2513C57.1257 66.3739 57.201 66.4703 57.3005 66.5406C57.401 66.61 57.5255 66.6446 57.6742 66.6446ZM60.3083 67.0485C60.0853 67.0485 59.8929 66.9992 59.7311 66.9008C59.5704 66.8013 59.4463 66.6627 59.3589 66.4849C59.2725 66.3061 59.2293 66.0981 59.2293 65.861C59.2293 65.6239 59.2725 65.415 59.3589 65.2341C59.4463 65.0523 59.5679 64.9107 59.7236 64.8092C59.8803 64.7067 60.0632 64.6555 60.2721 64.6555C60.3927 64.6555 60.5117 64.6756 60.6293 64.7158C60.7468 64.7559 60.8538 64.8212 60.9502 64.9117C61.0467 65.0011 61.1235 65.1196 61.1808 65.2673C61.2381 65.415 61.2667 65.5968 61.2667 65.8128V65.9635H59.4825V65.6561H60.905C60.905 65.5255 60.8789 65.4089 60.8267 65.3065C60.7754 65.204 60.7021 65.1231 60.6067 65.0639C60.5122 65.0046 60.4007 64.975 60.2721 64.975C60.1305 64.975 60.0079 65.0101 59.9044 65.0804C59.802 65.1498 59.7231 65.2402 59.6679 65.3517C59.6126 65.4632 59.585 65.5827 59.585 65.7103V65.9153C59.585 66.0901 59.6151 66.2382 59.6754 66.3598C59.7367 66.4804 59.8216 66.5723 59.9301 66.6356C60.0386 66.6979 60.1646 66.729 60.3083 66.729C60.4017 66.729 60.4861 66.7159 60.5615 66.6898C60.6378 66.6627 60.7036 66.6225 60.7589 66.5693C60.8141 66.515 60.8568 66.4477 60.8869 66.3673L61.2305 66.4638C61.1944 66.5803 61.1336 66.6828 61.0482 66.7712C60.9628 66.8586 60.8573 66.9269 60.7317 66.9761C60.6062 67.0244 60.465 67.0485 60.3083 67.0485ZM61.8077 67.0002V64.6856H62.1512V65.0473H62.1814C62.2296 64.9237 62.3075 64.8278 62.415 64.7595C62.5224 64.6901 62.6515 64.6555 62.8022 64.6555C62.9549 64.6555 63.082 64.6901 63.1835 64.7595C63.286 64.8278 63.3658 64.9237 63.4231 65.0473H63.4472C63.5065 64.9277 63.5954 64.8328 63.7139 64.7625C63.8325 64.6912 63.9746 64.6555 64.1404 64.6555C64.3473 64.6555 64.5166 64.7203 64.6482 64.8499C64.7798 64.9785 64.8456 65.1789 64.8456 65.4511V67.0002H64.49V65.4511C64.49 65.2804 64.4433 65.1583 64.3498 65.085C64.2564 65.0116 64.1464 64.975 64.0198 64.975C63.8571 64.975 63.731 65.0242 63.6416 65.1226C63.5522 65.2201 63.5075 65.3436 63.5075 65.4933V67.0002H63.1458V65.415C63.1458 65.2834 63.1031 65.1774 63.0177 65.097C62.9323 65.0156 62.8223 64.975 62.6877 64.975C62.5953 64.975 62.5089 64.9996 62.4285 65.0488C62.3492 65.098 62.2849 65.1663 62.2356 65.2537C62.1874 65.3401 62.1633 65.4401 62.1633 65.5536V67.0002H61.8077ZM66.4663 67.0485C66.2433 67.0485 66.0509 66.9992 65.8891 66.9008C65.7284 66.8013 65.6043 66.6627 65.5169 66.4849C65.4305 66.3061 65.3873 66.0981 65.3873 65.861C65.3873 65.6239 65.4305 65.415 65.5169 65.2341C65.6043 65.0523 65.7259 64.9107 65.8816 64.8092C66.0383 64.7067 66.2212 64.6555 66.4301 64.6555C66.5507 64.6555 66.6697 64.6756 66.7873 64.7158C66.9048 64.7559 67.0118 64.8212 67.1082 64.9117C67.2047 65.0011 67.2815 65.1196 67.3388 65.2673C67.3961 65.415 67.4247 65.5968 67.4247 65.8128V65.9635H65.6405V65.6561H67.063C67.063 65.5255 67.0369 65.4089 66.9847 65.3065C66.9334 65.204 66.8601 65.1231 66.7647 65.0639C66.6702 65.0046 66.5587 64.975 66.4301 64.975C66.2885 64.975 66.1659 65.0101 66.0624 65.0804C65.96 65.1498 65.8811 65.2402 65.8258 65.3517C65.7706 65.4632 65.743 65.5827 65.743 65.7103V65.9153C65.743 66.0901 65.7731 66.2382 65.8334 66.3598C65.8947 66.4804 65.9796 66.5723 66.0881 66.6356C66.1965 66.6979 66.3226 66.729 66.4663 66.729C66.5597 66.729 66.6441 66.7159 66.7194 66.6898C66.7958 66.6627 66.8616 66.6225 66.9169 66.5693C66.9721 66.515 67.0148 66.4477 67.0449 66.3673L67.3885 66.4638C67.3524 66.5803 67.2916 66.6828 67.2062 66.7712C67.1208 66.8586 67.0153 66.9269 66.8897 66.9761C66.7642 67.0244 66.623 67.0485 66.4663 67.0485ZM68.3213 65.6079V67.0002H67.9657V64.6856H68.3092V65.0473H68.3394C68.3936 64.9297 68.476 64.8353 68.5865 64.764C68.697 64.6917 68.8397 64.6555 69.0145 64.6555C69.1712 64.6555 69.3083 64.6876 69.4259 64.7519C69.5434 64.8152 69.6348 64.9117 69.7001 65.0413C69.7654 65.1698 69.7981 65.3326 69.7981 65.5295V67.0002H69.4424V65.5536C69.4424 65.3718 69.3952 65.2301 69.3008 65.1287C69.2064 65.0262 69.0768 64.975 68.912 64.975C68.7985 64.975 68.697 64.9996 68.6076 65.0488C68.5192 65.098 68.4494 65.1698 68.3982 65.2643C68.3469 65.3587 68.3213 65.4732 68.3213 65.6079ZM71.4545 64.6856V64.987H70.255V64.6856H71.4545ZM70.6046 64.1311H70.9603V66.3372C70.9603 66.4377 70.9748 66.513 71.004 66.5632C71.0341 66.6125 71.0723 66.6456 71.1185 66.6627C71.1657 66.6788 71.2155 66.6868 71.2677 66.6868C71.3069 66.6868 71.339 66.6848 71.3641 66.6808C71.3892 66.6758 71.4093 66.6717 71.4244 66.6687L71.4967 66.9882C71.4726 66.9972 71.439 67.0063 71.3958 67.0153C71.3526 67.0254 71.2978 67.0304 71.2315 67.0304C71.1311 67.0304 71.0326 67.0088 70.9362 66.9656C70.8407 66.9224 70.7614 66.8566 70.6981 66.7682C70.6358 66.6798 70.6046 66.5683 70.6046 66.4336V64.1311Z" fill="#B9B9B9"/>
</svg>
