<svg width="76" height="66" viewBox="0 0 76 66" fill="none" xmlns="http://www.w3.org/2000/svg">
<g clip-path="url(#clip0_76_12012)">
<path opacity="0.84" fill-rule="evenodd" clip-rule="evenodd" d="M37.9952 47.3754C46.4901 47.3754 53.379 47.619 53.379 47.9211C53.379 48.2233 46.4901 48.4669 37.9952 48.4669C29.5002 48.4669 22.6113 48.2233 22.6113 47.9211C22.6113 47.619 29.5002 47.3754 37.9952 47.3754Z" fill="#B9B9B9"/>
<path d="M69.1305 59.441V53.3595H72.8265V54.6947H70.7366V55.7472H72.7104V57.0532H70.7366V58.0765H72.8265V59.441H69.1305ZM68.2404 59.441H66.702L66.344 56.8096C66.3246 56.6244 66.2956 56.4197 66.2763 56.1858C66.2569 55.9617 66.2376 55.7083 66.2182 55.4451C66.1795 55.6985 66.1021 56.0201 65.9957 56.41C65.9763 56.4879 65.957 56.5464 65.9376 56.5854L65.1152 59.4312H64.0219L63.1995 56.5854C63.1898 56.5464 63.1705 56.4879 63.1511 56.41C63.035 56.0299 62.9576 55.7083 62.9286 55.4549C62.9092 55.6888 62.8899 55.9129 62.8705 56.1371C62.8512 56.3612 62.8222 56.5854 62.7931 56.8096L62.4352 59.441H60.9064L61.8353 53.3595H63.4704L64.3799 56.4977C64.3896 56.5172 64.3993 56.5562 64.4089 56.6049C64.496 56.8875 64.5444 57.1214 64.5734 57.3261C64.5831 57.2189 64.6024 57.1019 64.6315 56.9655C64.6605 56.8388 64.6992 56.6731 64.7572 56.4879L65.6764 53.3595H67.3115L68.2404 59.441ZM54.511 59.441L56.5912 53.3595H58.6521L60.742 59.441H59.1068L58.7972 58.3494H56.4558L56.1462 59.441H54.511ZM56.8138 57.1702H58.4489L57.8297 55.1625C57.8103 55.104 57.7813 55.0065 57.7523 54.8701C57.7232 54.7337 57.6749 54.5582 57.6265 54.3438C57.5878 54.49 57.5588 54.6362 57.5201 54.7726C57.491 54.9091 57.4523 55.0358 57.4136 55.1625L56.8138 57.1702ZM48.0189 59.441V53.3595H49.6056L51.889 56.4879C51.9374 56.5562 52.0051 56.6829 52.1019 56.868C52.1986 57.063 52.3147 57.2871 52.4308 57.56C52.4018 57.3066 52.3728 57.0824 52.3631 56.8875C52.3437 56.6926 52.3437 56.5172 52.3437 56.3612V53.3595H53.9208V59.441H52.3437L50.0604 56.3028C50.012 56.2345 49.9443 56.1078 49.8378 55.9227C49.7411 55.7277 49.625 55.5036 49.5089 55.2404C49.5379 55.4938 49.5669 55.718 49.5766 55.9227C49.5959 56.1176 49.5959 56.293 49.5959 56.449V59.4507H48.0189V59.441ZM40.743 57.482C40.9849 57.7647 41.2267 57.9693 41.4686 58.1058C41.7105 58.2422 41.9427 58.3104 42.1749 58.3104C42.3975 58.3104 42.5716 58.252 42.7168 58.135C42.8619 58.0181 42.9296 57.8621 42.9296 57.6867C42.9296 57.482 42.8716 57.3261 42.7458 57.2189C42.62 57.1117 42.3491 56.9947 41.9137 56.8778C41.3235 56.7218 40.9075 56.5074 40.6559 56.254C40.414 56.0006 40.2882 55.64 40.2882 55.1917C40.2882 54.607 40.4817 54.1392 40.8688 53.7688C41.2558 53.3985 41.7589 53.223 42.3684 53.223C42.6974 53.223 43.0167 53.2718 43.3166 53.3595C43.6166 53.4472 43.8972 53.5836 44.1681 53.7688L43.6553 54.9578C43.4714 54.8019 43.2779 54.6752 43.0747 54.5972C42.8812 54.5192 42.6877 54.4705 42.4942 54.4705C42.291 54.4705 42.1362 54.5192 42.0105 54.6167C41.8847 54.7142 41.8266 54.8311 41.8266 54.9871C41.8266 55.143 41.8847 55.2599 41.9911 55.3574C42.0975 55.4451 42.3104 55.5328 42.62 55.6205L42.6974 55.64C43.365 55.8252 43.8101 56.0201 44.0229 56.2443C44.1681 56.3905 44.2745 56.5757 44.3519 56.7803C44.4293 56.985 44.4583 57.2189 44.4583 57.4723C44.4583 58.1155 44.2455 58.6321 43.8294 59.0316C43.4134 59.4215 42.8522 59.6164 42.1459 59.6164C41.7299 59.6164 41.3429 59.5482 40.9945 59.402C40.6462 59.2558 40.3173 59.0316 39.998 58.7198L40.743 57.482ZM35.8376 57.482C36.0795 57.7647 36.3213 57.9693 36.5632 58.1058C36.8051 58.2422 37.0373 58.3104 37.2695 58.3104C37.4921 58.3104 37.6662 58.252 37.8113 58.135C37.9565 58.0181 38.0242 57.8621 38.0242 57.6867C38.0242 57.482 37.9662 57.3261 37.8404 57.2189C37.7146 57.1117 37.4437 56.9947 37.0083 56.8778C36.4181 56.7218 36.0021 56.5074 35.7505 56.254C35.5086 56.0006 35.3828 55.64 35.3828 55.1917C35.3828 54.607 35.5763 54.1392 35.9634 53.7688C36.3504 53.3985 36.8535 53.223 37.463 53.223C37.792 53.223 38.1113 53.2718 38.4112 53.3595C38.7112 53.4472 38.9917 53.5836 39.2626 53.7688L38.7499 54.9578C38.566 54.8019 38.3725 54.6752 38.1693 54.5972C37.9758 54.5192 37.7823 54.4705 37.5888 54.4705C37.3856 54.4705 37.2308 54.5192 37.105 54.6167C36.9793 54.7142 36.9212 54.8311 36.9212 54.9871C36.9212 55.143 36.9793 55.2599 37.0857 55.3574C37.1921 55.4451 37.405 55.5328 37.7146 55.6205L37.792 55.64C38.4596 55.8252 38.9047 56.0201 39.1175 56.2443C39.2626 56.3905 39.3691 56.5757 39.4465 56.7803C39.5239 56.985 39.5529 57.2189 39.5529 57.4723C39.5529 58.1155 39.3401 58.6321 38.924 59.0316C38.508 59.4215 37.9468 59.6164 37.2405 59.6164C36.8148 59.6164 36.4374 59.5482 36.0891 59.402C35.7408 59.2558 35.4119 59.0316 35.0926 58.7198L35.8376 57.482ZM30.7774 59.441V53.3595H34.4733V54.6947H32.3835V55.7472H34.3572V57.0532H32.3835V58.0765H34.4733V59.441H30.7774ZM23.5789 59.441V53.3595H25.1656L27.449 56.4879C27.4974 56.5562 27.5651 56.6829 27.6619 56.868C27.7586 57.063 27.8747 57.2871 27.9908 57.56C27.9618 57.3066 27.9328 57.0824 27.9231 56.8875C27.9038 56.6926 27.9038 56.5172 27.9038 56.3612V53.3595H29.4809V59.441H27.9038L25.6204 56.3028C25.572 56.2345 25.5043 56.1078 25.3979 55.9227C25.3011 55.7277 25.185 55.5036 25.0689 55.2404C25.0979 55.4938 25.1269 55.718 25.1366 55.9227C25.156 56.1176 25.156 56.293 25.156 56.449V59.4507H23.5789V59.441ZM20.5892 59.441V53.3595H22.2534V59.441H20.5892ZM15.916 57.482C16.1579 57.7647 16.3998 57.9693 16.6416 58.1058C16.8835 58.2422 17.1157 58.3104 17.3479 58.3104C17.5705 58.3104 17.7446 58.252 17.8898 58.135C18.0349 58.0181 18.1026 57.8621 18.1026 57.6867C18.1026 57.482 18.0446 57.3261 17.9188 57.2189C17.793 57.1117 17.5221 56.9947 17.0867 56.8778C16.4965 56.7218 16.0805 56.5074 15.8289 56.254C15.587 56.0006 15.4612 55.64 15.4612 55.1917C15.4612 54.607 15.6548 54.1392 16.0418 53.7688C16.4288 53.3985 16.9319 53.223 17.5415 53.223C17.8704 53.223 18.1897 53.2718 18.4896 53.3595C18.7896 53.4472 19.0702 53.5836 19.3411 53.7688L18.8283 54.9578C18.6444 54.8019 18.4509 54.6752 18.2478 54.5972C18.0542 54.5192 17.8607 54.4705 17.6672 54.4705C17.4641 54.4705 17.3092 54.5192 17.1835 54.6167C17.0577 54.7142 16.9996 54.8311 16.9996 54.9871C16.9996 55.143 17.0577 55.2599 17.1641 55.3574C17.2705 55.4451 17.4834 55.5328 17.793 55.6205L17.8704 55.64C18.538 55.8252 18.9831 56.0201 19.1959 56.2443C19.3411 56.3905 19.4475 56.5757 19.5249 56.7803C19.6023 56.985 19.6313 57.2189 19.6313 57.4723C19.6313 58.1155 19.4185 58.6321 19.0024 59.0316C18.5767 59.4215 18.0252 59.6164 17.3189 59.6164C16.8932 59.6164 16.5159 59.5482 16.1676 59.402C15.8192 59.2558 15.4903 59.0316 15.171 58.7198L15.916 57.482ZM9.01745 53.3595H10.6623V56.3125C10.6623 56.7511 10.6719 57.063 10.6913 57.2481C10.7106 57.4333 10.7493 57.599 10.8074 57.7257C10.8654 57.8816 10.9816 57.9986 11.1364 58.0863C11.2912 58.1643 11.4847 58.213 11.7072 58.213C11.9297 58.213 12.1232 58.174 12.2781 58.0863C12.4329 58.0083 12.5393 57.8816 12.607 57.7257C12.6651 57.599 12.6941 57.4431 12.7231 57.2481C12.7425 57.0532 12.7521 56.7413 12.7521 56.3125V55.8934V53.3497H14.3873V56.5659C14.3873 57.2286 14.3486 57.7257 14.2712 58.0376C14.1938 58.3592 14.0583 58.6223 13.8648 58.8465C13.6616 59.0901 13.3714 59.2753 13.0134 59.402C12.6554 59.5287 12.22 59.5872 11.6975 59.5872C11.1847 59.5872 10.7397 59.5287 10.3817 59.402C10.0237 59.2753 9.74311 59.0901 9.53025 58.8465C9.34642 58.6223 9.21096 58.3494 9.12388 58.0376C9.04648 57.7159 8.9981 57.2286 8.9981 56.5659V55.9422V53.3595H9.01745ZM4.85705 58.2032H5.43757C5.82458 58.2032 6.10517 58.1545 6.26965 58.057C6.43413 57.9596 6.51153 57.7939 6.51153 57.5697C6.51153 57.3164 6.43413 57.1409 6.289 57.0337C6.14387 56.9363 5.86328 56.8778 5.46659 56.8778H4.86672V58.2032H4.85705ZM3.32834 59.441V53.3595H4.98283C5.6601 53.3595 6.14387 53.379 6.41478 53.4277C6.68569 53.4764 6.9179 53.5446 7.11141 53.6518C7.33394 53.7785 7.49842 53.9442 7.6242 54.1489C7.74031 54.3633 7.79836 54.5972 7.79836 54.8701C7.79836 55.221 7.71128 55.4938 7.53712 55.6985C7.36297 55.9032 7.08238 56.0591 6.70504 56.1663C7.13076 56.1956 7.4694 56.3515 7.71128 56.6244C7.95316 56.8973 8.07894 57.2579 8.07894 57.7062C8.07894 58.0278 8.01122 58.3104 7.87576 58.5638C7.74031 58.8075 7.5468 59.0024 7.29524 59.1389C7.09206 59.2461 6.83082 59.3338 6.53088 59.3728C6.23095 59.4215 5.7375 59.441 5.05055 59.441H3.32834ZM4.85705 55.796H5.18601C5.59237 55.796 5.87296 55.7472 6.02777 55.6595C6.18257 55.5718 6.2503 55.4159 6.2503 55.1917C6.2503 54.9578 6.18257 54.8019 6.03744 54.7044C5.89231 54.6167 5.6214 54.568 5.21504 54.568H4.85705V55.796Z" fill="#B9B9B9"/>
<path d="M54.7626 65.9221V61.858H57.2201V62.3453H55.3237V63.5538H57.0073V64.0313H55.3237V65.4348H57.3652V65.9221H54.7626ZM52.2179 62.316C51.9761 62.316 51.7922 62.3258 51.6665 62.3355V63.8657H52.0728C52.2663 63.8657 52.4405 63.8559 52.5953 63.8364C52.7501 63.8169 52.8856 63.7779 52.992 63.7292C53.0984 63.6707 53.1855 63.5928 53.2435 63.4953C53.3016 63.3978 53.3306 63.2614 53.3306 63.0957C53.3306 62.9398 53.3016 62.8131 53.2435 62.7156C53.1855 62.6182 53.1081 62.5305 53.0113 62.472C52.9146 62.4135 52.7985 62.3745 52.663 62.3453C52.5082 62.3258 52.3728 62.316 52.2179 62.316ZM53.0694 64.2165C53.1274 64.2945 53.2145 64.4017 53.3016 64.5284C53.3983 64.6551 53.4951 64.7915 53.5919 64.9475C53.6886 65.1034 53.795 65.2593 53.8918 65.4348C53.9885 65.6005 54.0756 65.7661 54.1433 65.9221H53.5241C53.4467 65.7759 53.3596 65.6199 53.2726 65.4737C53.1855 65.3178 53.0887 65.1716 52.992 65.0352C52.8952 64.8987 52.8081 64.7623 52.7114 64.6453C52.6243 64.5284 52.5372 64.4212 52.4598 64.3335C52.4115 64.3335 52.3534 64.3432 52.305 64.3432C52.2566 64.3432 52.1986 64.3432 52.1405 64.3432H51.6665V65.9318H51.1053V61.9262C51.2601 61.8872 51.4439 61.858 51.6374 61.8482C51.8309 61.8385 52.0148 61.8287 52.1792 61.8287C52.7501 61.8287 53.1758 61.9359 53.4757 62.1504C53.7757 62.3648 53.9208 62.6864 53.9208 63.1152C53.9208 63.3881 53.8531 63.6123 53.708 63.8072C53.5531 63.9826 53.35 64.1288 53.0694 64.2165ZM47.777 65.9221V61.858H50.2345V62.3453H48.3381V63.5538H50.0216V64.0313H48.3381V65.4348H50.3796V65.9221H47.777ZM46.2095 61.858H46.7707V65.9221H46.2095V64.0508H44.2358V65.9221H43.6746V61.858H44.2358V63.5538H46.2095V61.858ZM39.0111 65.9221V61.858H41.4686V62.3453H39.5722V63.5538H41.2558V64.0313H39.5722V65.4348H41.6137V65.9221H39.0111ZM37.5307 65.9221C37.4437 65.7759 37.3469 65.6199 37.2405 65.4348C37.1341 65.2593 37.0083 65.0644 36.8825 64.8792C36.7567 64.6843 36.6213 64.4894 36.4858 64.2945C36.3503 64.0996 36.2149 63.9046 36.0794 63.7195C35.944 63.5343 35.8085 63.3589 35.6827 63.1932C35.557 63.0275 35.4409 62.8813 35.3248 62.7546V65.9221H34.7733V61.858H35.2183C35.4022 62.0529 35.5957 62.2771 35.7989 62.5402C36.002 62.8033 36.2149 63.0665 36.4181 63.3394C36.6213 63.6123 36.8148 63.8852 36.9986 64.1483C37.1824 64.4114 37.3276 64.6551 37.4533 64.8598V61.8482H38.0048V65.9123H37.5307V65.9221ZM33.2059 61.858H33.767V65.9221H33.2059V61.858ZM32.6157 65.425V65.9221H30.1871V61.858H30.7483V65.425H32.6157ZM28.7358 63.9241H29.297V65.8246C29.2486 65.8441 29.1809 65.8538 29.0938 65.8733C29.0067 65.8928 28.91 65.9123 28.7939 65.9318C28.6778 65.9513 28.552 65.9708 28.4165 65.9805C28.2811 65.9903 28.1456 66 28.0005 66C27.7199 66 27.4587 65.9513 27.2265 65.8636C26.9943 65.7661 26.7911 65.6297 26.6266 65.4543C26.4621 65.2788 26.3267 65.0547 26.2396 64.7915C26.1525 64.5284 26.1041 64.2263 26.1041 63.8851C26.1041 63.544 26.1525 63.2419 26.2589 62.9788C26.3654 62.7156 26.5008 62.4915 26.675 62.316C26.8491 62.1406 27.0523 62.0042 27.2845 61.9067C27.5167 61.8093 27.7683 61.7703 28.0392 61.7703C28.223 61.7703 28.3875 61.78 28.523 61.8093C28.6681 61.8287 28.7842 61.858 28.8906 61.8872C28.9874 61.9165 29.0745 61.9457 29.1422 61.9847C29.2099 62.0139 29.2486 62.0432 29.2777 62.0529L29.0938 62.5305C28.9777 62.4525 28.8326 62.394 28.6488 62.3453C28.4649 62.2966 28.2714 62.2673 28.0779 62.2673C27.8747 62.2673 27.6812 62.3063 27.5167 62.3745C27.3523 62.4525 27.2071 62.5597 27.0813 62.6961C26.9652 62.8326 26.8685 63.008 26.8008 63.2127C26.733 63.4173 26.704 63.6415 26.704 63.8851C26.704 64.1288 26.733 64.353 26.7911 64.5479C26.8491 64.7428 26.9362 64.9182 27.0426 65.0644C27.1588 65.2106 27.2942 65.3178 27.4684 65.3958C27.6328 65.4737 27.836 65.5127 28.0682 65.5127C28.2327 65.5127 28.3682 65.503 28.4843 65.4835C28.6004 65.464 28.6778 65.4445 28.7358 65.4348V63.9241ZM24.5851 64.4114C24.4593 64.0703 24.3335 63.739 24.2174 63.4271C24.0917 63.1055 23.9659 62.8033 23.8401 62.511C23.7046 62.8033 23.5789 63.1055 23.4531 63.4271C23.3273 63.7487 23.2112 64.0703 23.0854 64.4114H24.5851ZM25.1076 65.9221C25.0398 65.7466 24.9818 65.5712 24.9237 65.4055C24.8657 65.2398 24.8076 65.0644 24.7399 64.889H22.9113L22.5436 65.9221H21.9631C22.1179 65.4932 22.263 65.0937 22.3985 64.7331C22.5339 64.3725 22.6694 64.0216 22.7952 63.6902C22.9209 63.3589 23.0564 63.047 23.1822 62.7449C23.308 62.4427 23.4434 62.1504 23.5789 61.858H24.1013C24.2368 62.1504 24.3722 62.4427 24.5077 62.7449C24.6335 63.047 24.7689 63.3589 24.8947 63.6902C25.0205 64.0216 25.156 64.3627 25.2914 64.7331C25.4269 65.0937 25.572 65.4932 25.7268 65.9221H25.1076ZM21.8179 61.858V62.355H20.5505V65.9221H19.9893V62.355H18.7218V61.858H21.8179Z" fill="#B9B9B9"/>
<path fill-rule="evenodd" clip-rule="evenodd" d="M25.3301 42.5315H30.816L47.7092 25.515H50.6602L54.8884 21.2657H37.9952L42.2233 25.515L25.3301 42.5315Z" fill="#E3E3E3"/>
<path fill-rule="evenodd" clip-rule="evenodd" d="M50.6602 25.515V28.4973L36.7374 42.5315H42.2233L50.6602 34.0233L54.8883 38.2725V21.2657L50.6602 25.515Z" fill="#E3E3E3"/>
<path fill-rule="evenodd" clip-rule="evenodd" d="M54.8884 25.5151V31.0411L68.8209 17.0068H71.7719L76 12.7576H59.1068L63.3253 17.0068L54.8884 25.5151Z" fill="#B9B9B9"/>
<path fill-rule="evenodd" clip-rule="evenodd" d="M71.7719 17.0068V19.9891L49.6733 42.5316H55.1593L71.7719 25.5151L76 29.7741V12.7576L71.7719 17.0068Z" fill="#B9B9B9"/>
<path fill-rule="evenodd" clip-rule="evenodd" d="M50.6602 21.2658H45.1743L59.1068 7.23154V4.24926L63.3253 0V17.0068L59.1068 12.7575L50.6602 21.2658Z" fill="#E3E3E3"/>
<path fill-rule="evenodd" clip-rule="evenodd" d="M59.1068 4.24926H56.1461L42.2233 18.2835V12.7575L50.6602 4.24926L46.4418 0H63.3253L59.1068 4.24926Z" fill="#E3E3E3"/>
<path fill-rule="evenodd" clip-rule="evenodd" d="M17.2221 42.5316H11.7362L37.9952 15.7398V12.7576L42.2233 8.5083V25.5151L37.9952 21.2658L17.2221 42.5316Z" fill="#B9B9B9"/>
<path fill-rule="evenodd" clip-rule="evenodd" d="M37.9952 12.7576H35.0442L5.48593 42.5316H0L29.5582 12.7576L25.3301 8.5083H42.2233L37.9952 12.7576Z" fill="#B9B9B9"/>
</g>
<defs>
<clipPath id="clip0_76_12012">
<rect width="76" height="66" fill="white"/>
</clipPath>
</defs>
</svg>
