<svg width="72" height="67" viewBox="0 0 72 67" fill="none" xmlns="http://www.w3.org/2000/svg">
<path d="M21.9719 46.3831L20.1897 43.3279L6.35641 19.3531H2.87689L18.4499 46.3831H21.9719Z" fill="#B9B9B9"/>
<path d="M35.9317 46.3831L34.192 43.3279L32.4522 40.3152L30.67 37.3024L28.9302 34.2897L27.1905 31.2345L20.3163 19.3531H16.8368L25.4507 34.2897L27.1905 37.3024L28.9302 40.3152L30.67 43.3279L32.4522 46.3831H32.4098H32.4522H35.9317Z" fill="#B9B9B9"/>
<path d="M41.151 43.3279L39.4113 40.3152L37.6715 37.3024L35.9317 34.2897L34.192 31.2345L32.4522 28.2217L30.67 25.2089L27.3178 19.3531H23.8383L28.9302 28.2217L32.4522 34.2897L34.192 37.3024L35.9317 40.3152L37.6715 43.3279L39.4113 46.3831H42.8908H42.9332H42.8908L41.151 43.3279Z" fill="#B9B9B9"/>
<path d="M48.7045 0.0460205H45.1825L32.4525 22.1538L34.1923 25.1665L48.7045 0.0460205Z" fill="#B9B9B9"/>
<path d="M25.4507 46.3831H28.9303L27.1905 43.3279L25.4507 40.3152L23.711 37.3024L13.3573 19.3531H9.8353L21.9712 40.3152L23.711 43.3279L25.4507 46.3831Z" fill="#B9B9B9"/>
<path d="M37.6715 31.192L55.6632 0.0460205H52.1837L35.9317 28.1793L35.9742 28.2217L37.6715 31.192Z" fill="#B9B9B9"/>
<path d="M41.1938 37.26L62.665 0.0460205H59.1855L39.454 34.2472V34.2897L41.1938 37.26Z" fill="#B9B9B9"/>
<path d="M69.6662 0.0460205H66.1442L42.9332 40.2728V40.3152L44.673 43.3279L69.6662 0.0460205Z" fill="#B9B9B9"/>
<path d="M5.08276 58.9861C4.74329 59.2831 4.27652 59.4953 3.76732 59.4953C2.70649 59.4953 1.8154 58.6466 1.8154 57.5434C1.8154 56.4825 2.70649 55.5914 3.76732 55.5914C4.27652 55.5914 4.74329 55.8036 5.08276 56.1006L6.01629 55.1671C5.42223 54.6155 4.65842 54.276 3.76732 54.276C1.98513 54.276 0.499969 55.7187 0.499969 57.5434C0.499969 59.368 1.94269 60.8107 3.76732 60.8107C4.61599 60.8107 5.42223 60.4713 6.01629 59.9196L5.08276 58.9861Z" fill="#B9B9B9"/>
<path d="M14.5878 54.3184C12.8056 54.3184 11.3205 55.7611 11.3205 57.5857C11.3205 59.4103 12.7632 60.8531 14.5878 60.8531C16.37 60.8531 17.8552 59.4103 17.8552 57.5857C17.8552 55.7611 16.4124 54.3184 14.5878 54.3184ZM14.5878 59.5377C13.527 59.5377 12.6359 58.6466 12.6359 57.5857C12.6359 56.5249 13.527 55.6338 14.5878 55.6338C15.6486 55.6338 16.5398 56.5249 16.5398 57.5857C16.5398 58.6466 15.6911 59.5377 14.5878 59.5377Z" fill="#B9B9B9"/>
<path d="M26.8935 59.0709L24.984 54.3184H23.6261V60.8106H24.8991V57.5857L26.2145 60.8106H27.6148L28.9303 57.5857V60.8106H30.2033V54.3184H28.803L26.8935 59.0709Z" fill="#B9B9B9"/>
<path d="M37.7995 54.3184H35.9749V60.8106H37.2903V58.2222H37.8419C38.9027 58.2222 39.7938 57.3311 39.7938 56.2703C39.7514 55.2095 38.8603 54.3184 37.7995 54.3184ZM37.7995 56.9068H37.2903V55.5914H37.7995C38.1389 55.5914 38.436 55.8884 38.436 56.2279C38.436 56.6098 38.1389 56.9068 37.7995 56.9068Z" fill="#B9B9B9"/>
<path d="M46.9644 54.3184L44.6306 60.8106H46.0309L46.7098 58.986H48.7042L49.3831 60.8106H50.7834L48.4495 54.3184H46.9644ZM47.1341 57.713L47.6433 56.2279L48.195 57.713H47.1341Z" fill="#B9B9B9"/>
<path d="M61.7312 54.3184H60.4157V58.6466L57.8273 54.3184H56.2997V60.8106H57.5727V56.4825L60.2036 60.8106H61.7312V54.3184Z" fill="#B9B9B9"/>
<path d="M70.302 60.8106V57.713L71.9993 54.3184H70.5566L69.6231 56.1006L68.732 54.3184H67.2892L68.9866 57.713V60.8106H70.302Z" fill="#B9B9B9"/>
<path d="M0.499969 63.9932H1.26376V66.3695H1.6881V63.9932H2.4519V63.6113H0.499969V63.9932Z" fill="#B9B9B9"/>
<path d="M5.50643 63.6113L4.48804 66.3695H4.91237L5.12454 65.733H6.18537L6.39753 66.3695H6.82187L5.80347 63.6113H5.50643ZM5.25183 65.3935L5.63374 64.2054L6.01564 65.3935H5.25183Z" fill="#B9B9B9"/>
<path d="M10.3017 65.2237H10.8534V65.351C10.8534 65.5207 10.8109 65.648 10.6836 65.7753C10.5988 65.9026 10.429 65.9451 10.3017 65.9451C10.2169 65.9451 10.132 65.9451 10.0471 65.9027C9.96227 65.8602 9.91983 65.8178 9.8774 65.7753C9.83497 65.7329 9.79253 65.648 9.75009 65.5632C9.75009 65.4783 9.70766 65.2661 9.70766 65.0115C9.70766 64.7569 9.70766 64.5448 9.75009 64.4599C9.75009 64.375 9.79253 64.2902 9.8774 64.2477C9.91983 64.2053 9.96227 64.1629 10.0471 64.1205C10.132 64.078 10.2169 64.078 10.3017 64.078C10.429 64.078 10.5563 64.1205 10.6412 64.2053C10.7261 64.2902 10.8109 64.3751 10.8109 64.5024H11.2353C11.1928 64.2902 11.0655 64.078 10.9382 63.9083C10.7685 63.7386 10.5563 63.6537 10.3017 63.6537C10.0896 63.6537 9.91983 63.6961 9.75009 63.8234C9.62279 63.9083 9.4955 64.0356 9.41063 64.1629C9.3682 64.2478 9.32576 64.3326 9.32576 64.4175C9.32576 64.5448 9.28333 64.757 9.28333 65.054C9.28333 65.351 9.28333 65.5632 9.32576 65.6905C9.32576 65.7329 9.3682 65.8178 9.3682 65.8178C9.3682 65.8602 9.41063 65.9026 9.41063 65.9451C9.4955 66.0724 9.58036 66.1997 9.75009 66.2845C9.87739 66.3694 10.0896 66.4543 10.3017 66.4543C10.5988 66.4543 10.8109 66.3694 10.9807 66.1572C11.1504 65.9875 11.2777 65.7329 11.2777 65.4783V64.9267H10.3017V65.2237Z" fill="#B9B9B9"/>
<path d="M14.5029 63.6113H14.0786V66.3695H15.8608V65.9876H14.5029V63.6113Z" fill="#B9B9B9"/>
<path d="M19.0015 63.6113H18.5772V66.3695H19.0015V63.6113Z" fill="#B9B9B9"/>
<path d="M23.5406 65.5633L22.2676 63.6113H21.8857V66.3695H22.31V64.4176L23.5406 66.3695H23.9649V63.6113H23.5406V65.5633Z" fill="#B9B9B9"/>
<path d="M26.8517 66.3695H28.6339V65.9876H27.276V65.1814H28.4217V64.7995H27.276V63.9932H28.6339V63.6113H26.8517V66.3695Z" fill="#B9B9B9"/>
<path d="M35.465 65.2237H36.0166V65.351C36.0166 65.5207 35.9742 65.648 35.8469 65.7753C35.762 65.9026 35.5923 65.9451 35.465 65.9451C35.3801 65.9451 35.2953 65.9451 35.2104 65.9027C35.1255 65.8602 35.0831 65.8178 35.0407 65.7753C34.9982 65.7329 34.9558 65.648 34.9134 65.5632C34.9134 65.4783 34.8709 65.2661 34.8709 65.0115C34.8709 64.7569 34.8709 64.5448 34.9134 64.4599C34.9134 64.375 34.9558 64.2902 35.0407 64.2477C35.0831 64.2053 35.1255 64.1629 35.2104 64.1205C35.2953 64.078 35.3801 64.078 35.465 64.078C35.5923 64.078 35.7196 64.1205 35.8045 64.2053C35.8893 64.2902 35.9742 64.3751 35.9742 64.5024H36.3985C36.3561 64.2902 36.2288 64.078 36.1015 63.9083C35.9318 63.7386 35.7196 63.6537 35.465 63.6537C35.2528 63.6537 35.0831 63.6961 34.9134 63.8234C34.7861 63.9083 34.6588 64.0356 34.5739 64.1629C34.5315 64.2478 34.489 64.3326 34.489 64.4175C34.489 64.5448 34.4466 64.757 34.4466 65.054C34.4466 65.351 34.4466 65.5632 34.489 65.6905C34.489 65.7329 34.5315 65.8178 34.5315 65.8178C34.5315 65.8602 34.5739 65.9026 34.5739 65.9451C34.6588 66.0724 34.7436 66.1997 34.9134 66.2845C35.0407 66.3694 35.2528 66.4543 35.465 66.4543C35.762 66.4543 35.9742 66.3694 36.1439 66.1572C36.3137 65.9875 36.441 65.7329 36.441 65.4783V64.9267H35.465V65.2237Z" fill="#B9B9B9"/>
<path d="M41.0244 64.0774C40.9395 63.9501 40.8547 63.8228 40.7274 63.738C40.6001 63.6531 40.3879 63.5682 40.1757 63.5682C39.9636 63.5682 39.7938 63.6107 39.6241 63.738C39.4968 63.8228 39.3695 63.9501 39.2846 64.0774C39.2422 64.1623 39.1998 64.2472 39.1998 64.332C39.1998 64.4593 39.1573 64.6715 39.1573 64.9685C39.1573 65.2656 39.1573 65.4777 39.1998 65.605C39.1998 65.6475 39.2422 65.7323 39.2422 65.7323C39.2422 65.7748 39.2846 65.8172 39.2846 65.8596C39.3695 65.9869 39.4544 66.1142 39.6241 66.1991C39.7514 66.284 39.9636 66.3688 40.1757 66.3688C40.3879 66.3688 40.5577 66.3264 40.7274 66.1991C40.8547 66.1142 40.982 65.9869 41.0244 65.8596C41.0668 65.7748 41.1093 65.6899 41.1093 65.605C41.1093 65.4777 41.1517 65.2656 41.1517 64.9685C41.1517 64.6291 41.1517 64.4169 41.1093 64.332C41.1093 64.2472 41.0668 64.1623 41.0244 64.0774ZM40.6849 65.5202C40.6849 65.605 40.6425 65.6899 40.5576 65.7323C40.5152 65.7748 40.4728 65.8172 40.3879 65.8596C40.303 65.9021 40.2182 65.9021 40.1333 65.9021C40.0484 65.9021 39.9636 65.9021 39.8787 65.8596C39.7939 65.8172 39.7514 65.7748 39.709 65.7323C39.6665 65.6899 39.6241 65.605 39.5817 65.5202C39.5817 65.4353 39.5392 65.2231 39.5392 64.9685C39.5392 64.7139 39.5392 64.5018 39.5817 64.4169C39.5817 64.332 39.6241 64.2472 39.709 64.2047C39.7514 64.1623 39.7939 64.1199 39.8787 64.0774C39.9636 64.035 40.0484 64.035 40.1333 64.035C40.2182 64.035 40.303 64.0774 40.3879 64.0774C40.4728 64.1199 40.5152 64.1623 40.5576 64.2047C40.6001 64.2472 40.6425 64.332 40.6849 64.4169C40.6849 64.5018 40.7274 64.7139 40.7274 64.9685C40.7274 65.2656 40.7274 65.4353 40.6849 65.5202Z" fill="#B9B9B9"/>
<path d="M43.951 66.3695H45.7332V65.9876H44.3753V65.1814H45.521V64.7995H44.3753V63.9932H45.7332V63.6113H43.951V66.3695Z" fill="#B9B9B9"/>
<path d="M49.468 64.7995C49.3407 64.7995 49.2134 64.757 49.1709 64.757C49.0436 64.7146 48.9163 64.6722 48.8739 64.6297C48.8315 64.5449 48.789 64.5024 48.789 64.4176C48.789 64.2903 48.8315 64.2054 48.9163 64.1205C49.0012 64.0357 49.1285 64.0357 49.2558 64.0357C49.5104 64.0357 49.7226 64.1205 49.9347 64.2478L50.1469 63.9084C49.8923 63.7386 49.5953 63.6113 49.2558 63.6113C48.9588 63.6113 48.7466 63.6962 48.5769 63.8235C48.4072 63.9508 48.3223 64.163 48.3223 64.4176C48.3223 64.6297 48.4071 64.7995 48.5344 64.9268C48.6617 65.0541 48.8315 65.1389 49.0861 65.1814C49.2134 65.1814 49.3407 65.2238 49.468 65.2238C49.7226 65.2662 49.8499 65.3935 49.8074 65.6057C49.8074 65.8603 49.6377 65.9876 49.2558 65.9876C48.9588 65.9876 48.7042 65.9027 48.492 65.733L48.2374 66.03C48.5344 66.2846 48.8739 66.4119 49.2982 66.4119C49.9347 66.4119 50.2318 66.1573 50.2742 65.6057C50.2742 65.3935 50.2318 65.2238 50.1045 65.0965C49.9347 64.9268 49.7226 64.8419 49.468 64.7995Z" fill="#B9B9B9"/>
<path d="M57.7418 64.7995H56.6385V63.6113H56.2566V66.3695H56.6385V65.1814H57.7418V66.3695H58.1661V63.6113H57.7418V64.7995Z" fill="#B9B9B9"/>
<path d="M61.095 66.3695H62.8348V65.9876H61.4769V65.1814H62.6226V64.7995H61.4769V63.9932H62.8348V63.6113H61.095V66.3695Z" fill="#B9B9B9"/>
<path d="M67.459 64.3751C67.459 64.1205 67.3741 63.9084 67.2044 63.7811C67.0771 63.6538 66.8649 63.6113 66.6528 63.6113H65.5919V66.3695H66.0163V65.1814H66.5679L67.1195 66.3695H67.6287L66.9922 65.1389C67.2892 65.0116 67.459 64.757 67.459 64.3751ZM65.9738 64.7995V63.9508H66.6103C66.7376 63.9508 66.8649 63.9932 66.9073 64.0357C66.9922 64.1205 67.0347 64.2054 67.0347 64.3327C67.0347 64.46 66.9922 64.5449 66.9073 64.6297C66.8225 64.7146 66.6952 64.757 66.5679 64.757H65.9738V64.7995Z" fill="#B9B9B9"/>
<path d="M70.2181 66.3695H72.0003V65.9876H70.6425V65.1814H71.7881V64.7995H70.6425V63.9932H72.0003V63.6113H70.2181V66.3695Z" fill="#B9B9B9"/>
</svg>
