<svg width="54" height="54" viewBox="0 0 54 54" fill="none" xmlns="http://www.w3.org/2000/svg">
<rect width="54" height="54" rx="10" fill="#FFF5E0"/>
<path d="M21 28.5V18.75M21 28.5C21.3978 28.5 21.7794 28.658 22.0607 28.9393C22.342 29.2206 22.5 29.6022 22.5 30C22.5 30.3978 22.342 30.7794 22.0607 31.0607C21.7794 31.342 21.3978 31.5 21 31.5M21 28.5C20.6022 28.5 20.2206 28.658 19.9393 28.9393C19.658 29.2206 19.5 29.6022 19.5 30C19.5 30.3978 19.658 30.7794 19.9393 31.0607C20.2206 31.342 20.6022 31.5 21 31.5M21 35.25V31.5M33 28.5V18.75M33 28.5C33.3978 28.5 33.7794 28.658 34.0607 28.9393C34.342 29.2206 34.5 29.6022 34.5 30C34.5 30.3978 34.342 30.7794 34.0607 31.0607C33.7794 31.342 33.3978 31.5 33 31.5M33 28.5C32.6022 28.5 32.2206 28.658 31.9393 28.9393C31.658 29.2206 31.5 29.6022 31.5 30C31.5 30.3978 31.658 30.7794 31.9393 31.0607C32.2206 31.342 32.6022 31.5 33 31.5M33 35.25V31.5M27 22.5V18.75M27 22.5C27.3978 22.5 27.7794 22.658 28.0607 22.9393C28.342 23.2206 28.5 23.6022 28.5 24C28.5 24.3978 28.342 24.7794 28.0607 25.0607C27.7794 25.342 27.3978 25.5 27 25.5M27 22.5C26.6022 22.5 26.2206 22.658 25.9393 22.9393C25.658 23.2206 25.5 23.6022 25.5 24C25.5 24.3978 25.658 24.7794 25.9393 25.0607C26.2206 25.342 26.6022 25.5 27 25.5M27 35.25V25.5" stroke="#FFA920" stroke-width="1.5" stroke-linecap="round" stroke-linejoin="round"/>
</svg>
