<svg width="25" height="24" viewBox="0 0 25 24" fill="none" xmlns="http://www.w3.org/2000/svg">
<path d="M13.25 15.75V15H11.375C10.7548 15 10.25 14.4952 10.25 13.875V12.375C10.25 11.7548 10.7548 11.25 11.375 11.25H11.75V10.5H13.25V11.25H14C14.1989 11.25 14.3897 11.329 14.5303 11.4697C14.671 11.6103 14.75 11.8011 14.75 12C14.75 12.1989 14.671 12.3897 14.5303 12.5303C14.3897 12.671 14.1989 12.75 14 12.75H11.75V13.5H13.625C14.2452 13.5 14.75 14.0048 14.75 14.625V16.125C14.75 16.7453 14.2452 17.25 13.625 17.25H13.25V18H11.75V17.25H11C10.8011 17.25 10.6103 17.171 10.4697 17.0303C10.329 16.8897 10.25 16.6989 10.25 16.5C10.25 16.3011 10.329 16.1103 10.4697 15.9697C10.6103 15.829 10.8011 15.75 11 15.75H13.25Z" fill="white"/>
<path d="M22.4701 10.6447L14.3161 2.96925C13.8245 2.50736 13.1753 2.25024 12.5008 2.25024C11.8262 2.25024 11.177 2.50736 10.6854 2.96925L8.75114 4.791V3C8.75114 2.80109 8.67212 2.61032 8.53147 2.46967C8.39082 2.32902 8.20005 2.25 8.00114 2.25H5.00114C4.80223 2.25 4.61146 2.32902 4.47081 2.46967C4.33016 2.61032 4.25114 2.80109 4.25114 3V9.027L2.55389 10.6252C2.03864 11.0722 1.86464 11.784 2.10914 12.4387C2.34989 13.0837 2.93939 13.5 3.61064 13.5H4.25114V21C4.25114 21.1989 4.33016 21.3897 4.47081 21.5303C4.61146 21.671 4.80223 21.75 5.00114 21.75H20.0011C20.2001 21.75 20.3908 21.671 20.5315 21.5303C20.6721 21.3897 20.7511 21.1989 20.7511 21V13.5H21.3901C22.0621 13.5 22.6524 13.083 22.8931 12.438C23.1369 11.7832 22.9621 11.0715 22.4701 10.6447ZM5.75114 3.75H7.25114V6.2025L5.75114 7.61475V3.75ZM21.4876 11.9137C21.4554 12 21.4059 12 21.3901 12H20.0011C19.8022 12 19.6115 12.079 19.4708 12.2197C19.3302 12.3603 19.2511 12.5511 19.2511 12.75V20.25H5.75114V12.75C5.75114 12.5511 5.67212 12.3603 5.53147 12.2197C5.39082 12.079 5.20005 12 5.00114 12H3.61064C3.59489 12 3.54614 12 3.51389 11.9137C3.50138 11.8834 3.49908 11.8498 3.50733 11.818C3.51558 11.7862 3.53394 11.7579 3.55964 11.7375L11.7136 4.062C11.9268 3.86178 12.2083 3.75032 12.5008 3.75032C12.7932 3.75032 13.0747 3.86178 13.2879 4.062L21.4636 11.7577C21.5199 11.8057 21.4989 11.883 21.4876 11.9137Z" fill="white"/>
</svg>
