
<!-- Use theme colors in your SVG code -->
<svg width="46" height="48" viewBox="0 0 46 48" fill="none" xmlns="http://www.w3.org/2000/svg">
    <g clip-path="url(#clip0_44_21834)">
        <path d="M8.93004 22.9571C9.4597 22.9571 9.96773 22.747 10.3427 22.3729L21.5904 11.1503C22.3712 10.3712 23.6354 10.3713 24.416 11.1506L35.6573 22.3725C36.0322 22.7469 36.5404 22.9571 37.0703 22.9571H41.1657C42.9483 22.9571 43.8403 20.8011 42.5787 19.5417L24.4162 1.41036C23.6355 0.631015 22.3712 0.630922 21.5904 1.41015L3.42253 19.5415C2.16064 20.8008 3.05253 22.9571 4.83531 22.9571H8.93004Z" fill="#FFA920"/>
        <path d="M12.7137 10.3471H7.74915C6.64458 10.3471 5.74915 11.2425 5.74915 12.3471V17.8108H12.7137V10.3471Z" fill="#FFA920"/>
        <path d="M28.831 29.5379C29.5127 26.6661 27.7331 23.7863 24.8563 23.1059C21.9795 22.4254 19.0949 24.2019 18.4132 27.0738C17.7316 29.9456 19.5111 32.8253 22.3879 33.5058C25.2647 34.1863 28.1494 32.4098 28.831 29.5379Z" fill="#FFA920"/>
        <path d="M24.6148 28.5192C24.6148 27.6157 25.3473 26.8833 26.2507 26.8833H42.2316C43.3362 26.8833 44.2316 27.7787 44.2316 28.8833L44.2316 46C44.2316 47.1046 43.3362 48 42.2316 48H3.49536C2.39079 48 1.49536 47.1046 1.49536 46V29.7149C1.49536 28.6103 2.39079 27.7149 3.49536 27.7149H6.39161C7.49618 27.7149 8.39161 28.6103 8.39161 29.7149V39.1156C8.39161 40.2202 9.28704 41.1156 10.3916 41.1156H35.3285C36.4331 41.1156 37.3285 40.2202 37.3285 39.1156V32.1551C37.3285 31.0505 36.4331 30.1551 35.3285 30.1551H26.2507C25.3473 30.1551 24.6148 29.4227 24.6148 28.5192Z" fill="#FFA920"/>
    </g>
    <defs>
        <clipPath id="clip0_44_21834">
            <rect width="46" height="48" fill="#FFFFFF"/>
        </clipPath>
    </defs>
</svg>
